# Tiled2Unity generated file. Do not modify by hand.
# Wavefront file for '001---Zone-1---Start-town_mesh_0025.obj'

# Vertices (Count = 68)
v -3.52 -1.44 0
v -3.68 -1.44 0
v -3.68 -1.28 0
v -3.52 -1.28 0
v -3.2 -3.52 0
v -3.36 -3.52 0
v -3.36 -3.36 0
v -3.2 -3.36 0
v -3.36 -3.52 0
v -3.52 -3.52 0
v -3.52 -3.36 0
v -3.36 -3.36 0
v -3.52 -3.52 0
v -3.68 -3.52 0
v -3.68 -3.36 0
v -3.52 -3.36 0
v -4 -3.52 0
v -4.16 -3.52 0
v -4.16 -3.36 0
v -4 -3.36 0
v -4.16 -3.52 0
v -4.32 -3.52 0
v -4.32 -3.36 0
v -4.16 -3.36 0
v -3.2 -3.68 0
v -3.36 -3.68 0
v -3.36 -3.52 0
v -3.2 -3.52 0
v -4.16 -3.68 0
v -4.32 -3.68 0
v -4.32 -3.52 0
v -4.16 -3.52 0
v -3.2 -3.84 0
v -3.36 -3.84 0
v -3.36 -3.68 0
v -3.2 -3.68 0
v -4.16 -3.84 0
v -4.32 -3.84 0
v -4.32 -3.68 0
v -4.16 -3.68 0
v -3.2 -4 0
v -3.36 -4 0
v -3.36 -3.84 0
v -3.2 -3.84 0
v -4.16 -4 0
v -4.32 -4 0
v -4.32 -3.84 0
v -4.16 -3.84 0
v -3.2 -4.16 0
v -3.36 -4.16 0
v -3.36 -4 0
v -3.2 -4 0
v -4.16 -4.16 0
v -4.32 -4.16 0
v -4.32 -4 0
v -4.16 -4 0
v -4.16 -4.32 0
v -4.32 -4.32 0
v -4.32 -4.16 0
v -4.16 -4.16 0
v -2.72 -4.48 0
v -2.88 -4.48 0
v -2.88 -4.32 0
v -2.72 -4.32 0
v -2.72 -4.64 0
v -2.88 -4.64 0
v -2.88 -4.48 0
v -2.72 -4.48 0

# Texture cooridinates (Count = 42)
vt 0.3195739 0.3655977
vt 0.3408788 0.3655977
vt 0.3408788 0.3749271
vt 0.3195739 0.3749271
vt 0 0.04839653
vt 0.02130493 0.04839653
vt 0.02130493 0.05772597
vt 0 0.05772597
vt 0.04260985 0.04839653
vt 0.04260985 0.05772597
vt 0.06391478 0.04839653
vt 0.06391478 0.05772597
vt 0.1065246 0.04839653
vt 0.1278296 0.04839653
vt 0.1278296 0.05772597
vt 0.1065246 0.05772597
vt 0.1491345 0.04839653
vt 0.1491345 0.05772597
vt 0 0.03906703
vt 0.02130493 0.03906703
vt 0.1278296 0.03906703
vt 0.1491345 0.03906703
vt 0 0.02973759
vt 0.02130493 0.02973759
vt 0.1278296 0.02973759
vt 0.1491345 0.02973759
vt 0 0.02040815
vt 0.02130493 0.02040815
vt 0.1278296 0.02040815
vt 0.1491345 0.02040815
vt 0 0.01107872
vt 0.02130493 0.01107872
vt 0.1278296 0.01107872
vt 0.1491345 0.01107872
vt 0.1278296 0.001749277
vt 0.1491345 0.001749277
vt 0.575233 0.1883382
vt 0.5965379 0.1883382
vt 0.5965379 0.1976677
vt 0.575233 0.1976677
vt 0.575233 0.1790087
vt 0.5965379 0.1790087

# Normal
vn 0 0 -1

# Mesh description
g 001---Zone-1---Start-town_mesh_0025

# Faces
f 1/1/1 2/2/1 3/3/1 4/4/1
f 5/5/1 6/6/1 7/7/1 8/8/1
f 9/6/1 10/9/1 11/10/1 12/7/1
f 13/9/1 14/11/1 15/12/1 16/10/1
f 17/13/1 18/14/1 19/15/1 20/16/1
f 21/14/1 22/17/1 23/18/1 24/15/1
f 25/19/1 26/20/1 27/6/1 28/5/1
f 29/21/1 30/22/1 31/17/1 32/14/1
f 33/23/1 34/24/1 35/20/1 36/19/1
f 37/25/1 38/26/1 39/22/1 40/21/1
f 41/27/1 42/28/1 43/24/1 44/23/1
f 45/29/1 46/30/1 47/26/1 48/25/1
f 49/31/1 50/32/1 51/28/1 52/27/1
f 53/33/1 54/34/1 55/30/1 56/29/1
f 57/35/1 58/36/1 59/34/1 60/33/1
f 61/37/1 62/38/1 63/39/1 64/40/1
f 65/41/1 66/42/1 67/38/1 68/37/1

