# Tiled2Unity generated file. Do not modify by hand.
# Wavefront file for '001---Zone-1---Start-town_mesh_0020.obj'

# Vertices (Count = 8)
v -2.72 -5.12 0
v -2.88 -5.12 0
v -2.88 -4.96 0
v -2.72 -4.96 0
v -2.72 -5.28 0
v -2.88 -5.28 0
v -2.88 -5.12 0
v -2.72 -5.12 0

# Texture cooridinates (Count = 6)
vt 0.4831461 0.8108108
vt 0.494382 0.8108108
vt 0.494382 0.8378378
vt 0.4831461 0.8378378
vt 0.505618 0.8108108
vt 0.505618 0.8378378

# Normal
vn 0 0 -1

# Mesh description
g 001---Zone-1---Start-town_mesh_0020

# Faces
f 1/1/1 2/2/1 3/3/1 4/4/1
f 5/2/1 6/5/1 7/6/1 8/3/1

