# Tiled2Unity generated file. Do not modify by hand.
# Wavefront file for '001---Zone-1---Start-town_mesh_0015.obj'

# Vertices (Count = 284)
v -3.2 -1.44 0
v -3.36 -1.44 0
v -3.36 -1.28 0
v -3.2 -1.28 0
v -3.2 -1.6 0
v -3.36 -1.6 0
v -3.36 -1.44 0
v -3.2 -1.44 0
v -3.2 -1.76 0
v -3.36 -1.76 0
v -3.36 -1.6 0
v -3.2 -1.6 0
v -1.92 -1.92 0
v -2.08 -1.92 0
v -2.08 -1.76 0
v -1.92 -1.76 0
v -3.2 -1.92 0
v -3.36 -1.92 0
v -3.36 -1.76 0
v -3.2 -1.76 0
v -1.92 -2.08 0
v -2.08 -2.08 0
v -2.08 -1.92 0
v -1.92 -1.92 0
v -3.2 -2.08 0
v -3.36 -2.08 0
v -3.36 -1.92 0
v -3.2 -1.92 0
v -6.56 -2.08 0
v -6.72 -2.08 0
v -6.72 -1.92 0
v -6.56 -1.92 0
v -1.92 -2.24 0
v -2.08 -2.24 0
v -2.08 -2.08 0
v -1.92 -2.08 0
v -3.2 -2.24 0
v -3.36 -2.24 0
v -3.36 -2.08 0
v -3.2 -2.08 0
v -6.56 -2.24 0
v -6.72 -2.24 0
v -6.72 -2.08 0
v -6.56 -2.08 0
v -1.92 -2.4 0
v -2.08 -2.4 0
v -2.08 -2.24 0
v -1.92 -2.24 0
v -3.2 -2.4 0
v -3.36 -2.4 0
v -3.36 -2.24 0
v -3.2 -2.24 0
v -6.56 -2.4 0
v -6.72 -2.4 0
v -6.72 -2.24 0
v -6.56 -2.24 0
v -1.92 -2.56 0
v -2.08 -2.56 0
v -2.08 -2.4 0
v -1.92 -2.4 0
v -2.08 -2.56 0
v -2.24 -2.56 0
v -2.24 -2.4 0
v -2.08 -2.4 0
v -2.24 -2.56 0
v -2.4 -2.56 0
v -2.4 -2.4 0
v -2.24 -2.4 0
v -2.4 -2.56 0
v -2.56 -2.56 0
v -2.56 -2.4 0
v -2.4 -2.4 0
v -2.56 -2.56 0
v -2.72 -2.56 0
v -2.72 -2.4 0
v -2.56 -2.4 0
v -3.04 -2.56 0
v -3.2 -2.56 0
v -3.2 -2.4 0
v -3.04 -2.4 0
v -3.2 -2.56 0
v -3.36 -2.56 0
v -3.36 -2.4 0
v -3.2 -2.4 0
v -7.52 -2.72 0
v -7.68 -2.72 0
v -7.68 -2.56 0
v -7.52 -2.56 0
v -7.52 -2.88 0
v -7.68 -2.88 0
v -7.68 -2.72 0
v -7.52 -2.72 0
v -4.16 -3.2 0
v -4.32 -3.2 0
v -4.32 -3.04 0
v -4.16 -3.04 0
v -4.16 -3.52 0
v -4.32 -3.52 0
v -4.32 -3.36 0
v -4.16 -3.36 0
v -4.16 -3.68 0
v -4.32 -3.68 0
v -4.32 -3.52 0
v -4.16 -3.52 0
v -4.16 -3.84 0
v -4.32 -3.84 0
v -4.32 -3.68 0
v -4.16 -3.68 0
v -6.88 -4.96 0
v -7.04 -4.96 0
v -7.04 -4.8 0
v -6.88 -4.8 0
v -1.44 -5.12 0
v -1.6 -5.12 0
v -1.6 -4.96 0
v -1.44 -4.96 0
v -1.6 -5.12 0
v -1.76 -5.12 0
v -1.76 -4.96 0
v -1.6 -4.96 0
v -1.76 -5.12 0
v -1.92 -5.12 0
v -1.92 -4.96 0
v -1.76 -4.96 0
v -1.92 -5.12 0
v -2.08 -5.12 0
v -2.08 -4.96 0
v -1.92 -4.96 0
v -5.12 -5.12 0
v -5.28 -5.12 0
v -5.28 -4.96 0
v -5.12 -4.96 0
v -5.6 -5.12 0
v -5.76 -5.12 0
v -5.76 -4.96 0
v -5.6 -4.96 0
v -6.88 -5.12 0
v -7.04 -5.12 0
v -7.04 -4.96 0
v -6.88 -4.96 0
v -1.44 -5.28 0
v -1.6 -5.28 0
v -1.6 -5.12 0
v -1.44 -5.12 0
v -1.6 -5.28 0
v -1.76 -5.28 0
v -1.76 -5.12 0
v -1.6 -5.12 0
v -1.76 -5.28 0
v -1.92 -5.28 0
v -1.92 -5.12 0
v -1.76 -5.12 0
v -1.92 -5.28 0
v -2.08 -5.28 0
v -2.08 -5.12 0
v -1.92 -5.12 0
v -5.12 -5.28 0
v -5.28 -5.28 0
v -5.28 -5.12 0
v -5.12 -5.12 0
v -5.6 -5.28 0
v -5.76 -5.28 0
v -5.76 -5.12 0
v -5.6 -5.12 0
v -6.88 -5.28 0
v -7.04 -5.28 0
v -7.04 -5.12 0
v -6.88 -5.12 0
v -1.44 -5.44 0
v -1.6 -5.44 0
v -1.6 -5.28 0
v -1.44 -5.28 0
v -1.6 -5.44 0
v -1.76 -5.44 0
v -1.76 -5.28 0
v -1.6 -5.28 0
v -1.76 -5.44 0
v -1.92 -5.44 0
v -1.92 -5.28 0
v -1.76 -5.28 0
v -1.92 -5.44 0
v -2.08 -5.44 0
v -2.08 -5.28 0
v -1.92 -5.28 0
v -5.6 -5.44 0
v -5.76 -5.44 0
v -5.76 -5.28 0
v -5.6 -5.28 0
v -6.88 -5.44 0
v -7.04 -5.44 0
v -7.04 -5.28 0
v -6.88 -5.28 0
v -1.44 -5.6 0
v -1.6 -5.6 0
v -1.6 -5.44 0
v -1.44 -5.44 0
v -1.6 -5.6 0
v -1.76 -5.6 0
v -1.76 -5.44 0
v -1.6 -5.44 0
v -1.76 -5.6 0
v -1.92 -5.6 0
v -1.92 -5.44 0
v -1.76 -5.44 0
v -1.92 -5.6 0
v -2.08 -5.6 0
v -2.08 -5.44 0
v -1.92 -5.44 0
v -6.88 -5.6 0
v -7.04 -5.6 0
v -7.04 -5.44 0
v -6.88 -5.44 0
v -1.44 -5.76 0
v -1.6 -5.76 0
v -1.6 -5.6 0
v -1.44 -5.6 0
v -1.6 -5.76 0
v -1.76 -5.76 0
v -1.76 -5.6 0
v -1.6 -5.6 0
v -1.76 -5.76 0
v -1.92 -5.76 0
v -1.92 -5.6 0
v -1.76 -5.6 0
v -1.92 -5.76 0
v -2.08 -5.76 0
v -2.08 -5.6 0
v -1.92 -5.6 0
v -6.88 -5.76 0
v -7.04 -5.76 0
v -7.04 -5.6 0
v -6.88 -5.6 0
v -1.44 -5.92 0
v -1.6 -5.92 0
v -1.6 -5.76 0
v -1.44 -5.76 0
v -1.6 -5.92 0
v -1.76 -5.92 0
v -1.76 -5.76 0
v -1.6 -5.76 0
v -1.76 -5.92 0
v -1.92 -5.92 0
v -1.92 -5.76 0
v -1.76 -5.76 0
v -1.92 -5.92 0
v -2.08 -5.92 0
v -2.08 -5.76 0
v -1.92 -5.76 0
v -6.88 -5.92 0
v -7.04 -5.92 0
v -7.04 -5.76 0
v -6.88 -5.76 0
v -6.88 -6.08 0
v -7.04 -6.08 0
v -7.04 -5.92 0
v -6.88 -5.92 0
v -6.88 -6.24 0
v -7.04 -6.24 0
v -7.04 -6.08 0
v -6.88 -6.08 0
v -7.04 -6.24 0
v -7.2 -6.24 0
v -7.2 -6.08 0
v -7.04 -6.08 0
v -7.68 -6.24 0
v -7.84 -6.24 0
v -7.84 -6.08 0
v -7.68 -6.08 0
v -7.84 -6.24 0
v -8 -6.24 0
v -8 -6.08 0
v -7.84 -6.08 0
v -8 -6.24 0
v -8.16 -6.24 0
v -8.16 -6.08 0
v -8 -6.08 0
v -8.16 -6.24 0
v -8.32 -6.24 0
v -8.32 -6.08 0
v -8.16 -6.08 0
v -5.28 -8.16 0
v -5.44 -8.16 0
v -5.44 -8 0
v -5.28 -8 0

# Texture cooridinates (Count = 81)
vt 0.528254 0.5838467
vt 0.5384127 0.5838467
vt 0.5384127 0.5947981
vt 0.528254 0.5947981
vt 0.4977778 0.5838467
vt 0.5079365 0.5838467
vt 0.5079365 0.5947981
vt 0.4977778 0.5947981
vt 0.64 0.7152635
vt 0.6501587 0.7152635
vt 0.6501587 0.7262149
vt 0.64 0.7262149
vt 0.64 0.7043121
vt 0.6501587 0.7043121
vt 0.64 0.6933607
vt 0.6501587 0.6933607
vt 0.4977778 0.5728953
vt 0.5079365 0.5728953
vt 0.5180953 0.5947981
vt 0.5180953 0.6057495
vt 0.5079365 0.6057495
vt 0.5180953 0.5838467
vt 0.528254 0.5728953
vt 0.5384127 0.5728953
vt 0.7009524 0.9233402
vt 0.7111111 0.9233402
vt 0.7111111 0.9342916
vt 0.7009524 0.9342916
vt 0.7009524 0.9123888
vt 0.7111111 0.9123888
vt 0.5384127 0.890486
vt 0.5485714 0.890486
vt 0.5485714 0.9014374
vt 0.5384127 0.9014374
vt 0.3352381 0.7809719
vt 0.3453968 0.7809719
vt 0.3453968 0.7919233
vt 0.3352381 0.7919233
vt 0.3352381 0.7700205
vt 0.3453968 0.7700205
vt 0.3352381 0.7590691
vt 0.3453968 0.7590691
vt 0.4977778 0.6057495
vt 0.1828571 0.8795345
vt 0.1930159 0.8795345
vt 0.1930159 0.890486
vt 0.1828571 0.890486
vt 0.2031746 0.8795345
vt 0.2031746 0.890486
vt 0.2133333 0.8795345
vt 0.2133333 0.890486
vt 0.2234921 0.8795345
vt 0.2234921 0.890486
vt 0.1828571 0.8685831
vt 0.1930159 0.8685831
vt 0.2031746 0.8685831
vt 0.2133333 0.8685831
vt 0.2234921 0.8685831
vt 0.1828571 0.8576317
vt 0.1930159 0.8576317
vt 0.2031746 0.8576317
vt 0.2133333 0.8576317
vt 0.2234921 0.8576317
vt 0.1828571 0.8466803
vt 0.1930159 0.8466803
vt 0.2031746 0.8466803
vt 0.2133333 0.8466803
vt 0.2234921 0.8466803
vt 0.1828571 0.8357289
vt 0.1930159 0.8357289
vt 0.2031746 0.8357289
vt 0.2133333 0.8357289
vt 0.2234921 0.8357289
vt 0.1828571 0.8247775
vt 0.1930159 0.8247775
vt 0.2031746 0.8247775
vt 0.2133333 0.8247775
vt 0.2234921 0.8247775
vt 0.528254 0.6057495
vt 0.6907936 0.9123888
vt 0.6907936 0.9233402

# Normal
vn 0 0 -1

# Mesh description
g 001---Zone-1---Start-town_mesh_0015

# Faces
f 1/1/1 2/2/1 3/3/1 4/4/1
f 5/1/1 6/2/1 7/3/1 8/4/1
f 9/1/1 10/2/1 11/3/1 12/4/1
f 13/5/1 14/6/1 15/7/1 16/8/1
f 17/1/1 18/2/1 19/3/1 20/4/1
f 21/5/1 22/6/1 23/7/1 24/8/1
f 25/1/1 26/2/1 27/3/1 28/4/1
f 29/9/1 30/10/1 31/11/1 32/12/1
f 33/5/1 34/6/1 35/7/1 36/8/1
f 37/1/1 38/2/1 39/3/1 40/4/1
f 41/13/1 42/14/1 43/10/1 44/9/1
f 45/5/1 46/6/1 47/7/1 48/8/1
f 49/1/1 50/2/1 51/3/1 52/4/1
f 53/15/1 54/16/1 55/14/1 56/13/1
f 57/17/1 58/18/1 59/6/1 60/5/1
f 61/7/1 62/19/1 63/20/1 64/21/1
f 65/7/1 66/19/1 67/20/1 68/21/1
f 69/7/1 70/19/1 71/20/1 72/21/1
f 73/6/1 74/22/1 75/19/1 76/7/1
f 77/22/1 78/1/1 79/4/1 80/19/1
f 81/23/1 82/24/1 83/2/1 84/1/1
f 85/25/1 86/26/1 87/27/1 88/28/1
f 89/29/1 90/30/1 91/26/1 92/25/1
f 93/31/1 94/32/1 95/33/1 96/34/1
f 97/35/1 98/36/1 99/37/1 100/38/1
f 101/39/1 102/40/1 103/36/1 104/35/1
f 105/41/1 106/42/1 107/40/1 108/39/1
f 109/8/1 110/7/1 111/21/1 112/43/1
f 113/44/1 114/45/1 115/46/1 116/47/1
f 117/45/1 118/48/1 119/49/1 120/46/1
f 121/48/1 122/50/1 123/51/1 124/49/1
f 125/50/1 126/52/1 127/53/1 128/51/1
f 129/25/1 130/26/1 131/27/1 132/28/1
f 133/9/1 134/10/1 135/11/1 136/12/1
f 137/5/1 138/6/1 139/7/1 140/8/1
f 141/54/1 142/55/1 143/45/1 144/44/1
f 145/55/1 146/56/1 147/48/1 148/45/1
f 149/56/1 150/57/1 151/50/1 152/48/1
f 153/57/1 154/58/1 155/52/1 156/50/1
f 157/29/1 158/30/1 159/26/1 160/25/1
f 161/13/1 162/14/1 163/10/1 164/9/1
f 165/5/1 166/6/1 167/7/1 168/8/1
f 169/59/1 170/60/1 171/55/1 172/54/1
f 173/60/1 174/61/1 175/56/1 176/55/1
f 177/61/1 178/62/1 179/57/1 180/56/1
f 181/62/1 182/63/1 183/58/1 184/57/1
f 185/15/1 186/16/1 187/14/1 188/13/1
f 189/5/1 190/6/1 191/7/1 192/8/1
f 193/64/1 194/65/1 195/60/1 196/59/1
f 197/65/1 198/66/1 199/61/1 200/60/1
f 201/66/1 202/67/1 203/62/1 204/61/1
f 205/67/1 206/68/1 207/63/1 208/62/1
f 209/5/1 210/6/1 211/7/1 212/8/1
f 213/69/1 214/70/1 215/65/1 216/64/1
f 217/70/1 218/71/1 219/66/1 220/65/1
f 221/71/1 222/72/1 223/67/1 224/66/1
f 225/72/1 226/73/1 227/68/1 228/67/1
f 229/5/1 230/6/1 231/7/1 232/8/1
f 233/74/1 234/75/1 235/70/1 236/69/1
f 237/75/1 238/76/1 239/71/1 240/70/1
f 241/76/1 242/77/1 243/72/1 244/71/1
f 245/77/1 246/78/1 247/73/1 248/72/1
f 249/5/1 250/6/1 251/7/1 252/8/1
f 253/5/1 254/6/1 255/7/1 256/8/1
f 257/17/1 258/18/1 259/6/1 260/5/1
f 261/6/1 262/22/1 263/19/1 264/7/1
f 265/22/1 266/1/1 267/4/1 268/19/1
f 269/19/1 270/4/1 271/79/1 272/20/1
f 273/19/1 274/4/1 275/79/1 276/20/1
f 277/19/1 278/4/1 279/79/1 280/20/1
f 281/80/1 282/29/1 283/25/1 284/81/1

