# Tiled2Unity generated file. Do not modify by hand.
# Wavefront file for '001---Zone-1---Start-town_mesh_0033.obj'

# Vertices (Count = 272)
v -7.04 -0.48 0
v -7.2 -0.48 0
v -7.2 -0.32 0
v -7.04 -0.32 0
v -7.36 -0.48 0
v -7.52 -0.48 0
v -7.52 -0.32 0
v -7.36 -0.32 0
v -7.52 -0.48 0
v -7.68 -0.48 0
v -7.68 -0.32 0
v -7.52 -0.32 0
v -7.84 -0.48 0
v -8 -0.48 0
v -8 -0.32 0
v -7.84 -0.32 0
v -3.36 -1.28 0
v -3.52 -1.28 0
v -3.52 -1.12 0
v -3.36 -1.12 0
v -3.52 -1.28 0
v -3.68 -1.28 0
v -3.68 -1.12 0
v -3.52 -1.12 0
v -3.68 -1.28 0
v -3.84 -1.28 0
v -3.84 -1.12 0
v -3.68 -1.12 0
v -3.84 -1.44 0
v -4 -1.44 0
v -4 -1.28 0
v -3.84 -1.28 0
v -4 -1.44 0
v -4.16 -1.44 0
v -4.16 -1.28 0
v -4 -1.28 0
v -4.16 -1.44 0
v -4.32 -1.44 0
v -4.32 -1.28 0
v -4.16 -1.28 0
v -4.32 -1.44 0
v -4.48 -1.44 0
v -4.48 -1.28 0
v -4.32 -1.28 0
v -4.48 -1.44 0
v -4.64 -1.44 0
v -4.64 -1.28 0
v -4.48 -1.28 0
v -4.64 -1.44 0
v -4.8 -1.44 0
v -4.8 -1.28 0
v -4.64 -1.28 0
v -5.12 -1.44 0
v -5.28 -1.44 0
v -5.28 -1.28 0
v -5.12 -1.28 0
v -5.12 -1.6 0
v -5.28 -1.6 0
v -5.28 -1.44 0
v -5.12 -1.44 0
v -8.48 -2.08 0
v -8.639999 -2.08 0
v -8.639999 -1.92 0
v -8.48 -1.92 0
v -4.16 -2.24 0
v -4.32 -2.24 0
v -4.32 -2.08 0
v -4.16 -2.08 0
v -4.32 -2.24 0
v -4.48 -2.24 0
v -4.48 -2.08 0
v -4.32 -2.08 0
v -3.52 -2.56 0
v -3.68 -2.56 0
v -3.68 -2.4 0
v -3.52 -2.4 0
v -3.68 -2.56 0
v -3.84 -2.56 0
v -3.84 -2.4 0
v -3.68 -2.4 0
v -3.52 -2.72 0
v -3.68 -2.72 0
v -3.68 -2.56 0
v -3.52 -2.56 0
v -3.68 -2.72 0
v -3.84 -2.72 0
v -3.84 -2.56 0
v -3.68 -2.56 0
v -7.84 -2.88 0
v -8 -2.88 0
v -8 -2.72 0
v -7.84 -2.72 0
v -4.16 -3.2 0
v -4.32 -3.2 0
v -4.32 -3.04 0
v -4.16 -3.04 0
v -3.2 -3.36 0
v -3.36 -3.36 0
v -3.36 -3.2 0
v -3.2 -3.2 0
v -3.04 -3.52 0
v -3.2 -3.52 0
v -3.2 -3.36 0
v -3.04 -3.36 0
v -3.2 -3.52 0
v -3.36 -3.52 0
v -3.36 -3.36 0
v -3.2 -3.36 0
v -3.36 -3.52 0
v -3.52 -3.52 0
v -3.52 -3.36 0
v -3.36 -3.36 0
v -3.04 -3.68 0
v -3.2 -3.68 0
v -3.2 -3.52 0
v -3.04 -3.52 0
v -3.2 -3.68 0
v -3.36 -3.68 0
v -3.36 -3.52 0
v -3.2 -3.52 0
v -3.36 -3.68 0
v -3.52 -3.68 0
v -3.52 -3.52 0
v -3.36 -3.52 0
v -2.56 -4.96 0
v -2.72 -4.96 0
v -2.72 -4.8 0
v -2.56 -4.8 0
v -1.28 -5.12 0
v -1.44 -5.12 0
v -1.44 -4.96 0
v -1.28 -4.96 0
v -1.44 -5.12 0
v -1.6 -5.12 0
v -1.6 -4.96 0
v -1.44 -4.96 0
v -1.44 -5.28 0
v -1.6 -5.28 0
v -1.6 -5.12 0
v -1.44 -5.12 0
v -1.6 -5.28 0
v -1.76 -5.28 0
v -1.76 -5.12 0
v -1.6 -5.12 0
v -1.76 -5.28 0
v -1.92 -5.28 0
v -1.92 -5.12 0
v -1.76 -5.12 0
v -1.92 -5.28 0
v -2.08 -5.28 0
v -2.08 -5.12 0
v -1.92 -5.12 0
v -3.04 -5.28 0
v -3.2 -5.28 0
v -3.2 -5.12 0
v -3.04 -5.12 0
v -4.64 -5.28 0
v -4.8 -5.28 0
v -4.8 -5.12 0
v -4.64 -5.12 0
v -1.44 -5.44 0
v -1.6 -5.44 0
v -1.6 -5.28 0
v -1.44 -5.28 0
v -1.6 -5.44 0
v -1.76 -5.44 0
v -1.76 -5.28 0
v -1.6 -5.28 0
v -1.76 -5.44 0
v -1.92 -5.44 0
v -1.92 -5.28 0
v -1.76 -5.28 0
v -1.92 -5.44 0
v -2.08 -5.44 0
v -2.08 -5.28 0
v -1.92 -5.28 0
v -1.44 -5.6 0
v -1.6 -5.6 0
v -1.6 -5.44 0
v -1.44 -5.44 0
v -1.6 -5.6 0
v -1.76 -5.6 0
v -1.76 -5.44 0
v -1.6 -5.44 0
v -1.76 -5.6 0
v -1.92 -5.6 0
v -1.92 -5.44 0
v -1.76 -5.44 0
v -1.92 -5.6 0
v -2.08 -5.6 0
v -2.08 -5.44 0
v -1.92 -5.44 0
v -7.52 -5.6 0
v -7.68 -5.6 0
v -7.68 -5.44 0
v -7.52 -5.44 0
v -7.68 -5.6 0
v -7.84 -5.6 0
v -7.84 -5.44 0
v -7.68 -5.44 0
v -1.44 -5.76 0
v -1.6 -5.76 0
v -1.6 -5.6 0
v -1.44 -5.6 0
v -1.6 -5.76 0
v -1.76 -5.76 0
v -1.76 -5.6 0
v -1.6 -5.6 0
v -1.76 -5.76 0
v -1.92 -5.76 0
v -1.92 -5.6 0
v -1.76 -5.6 0
v -3.84 -5.92 0
v -4 -5.92 0
v -4 -5.76 0
v -3.84 -5.76 0
v -4 -5.92 0
v -4.16 -5.92 0
v -4.16 -5.76 0
v -4 -5.76 0
v -4.16 -5.92 0
v -4.32 -5.92 0
v -4.32 -5.76 0
v -4.16 -5.76 0
v -4.32 -5.92 0
v -4.48 -5.92 0
v -4.48 -5.76 0
v -4.32 -5.76 0
v -4.48 -5.92 0
v -4.64 -5.92 0
v -4.64 -5.76 0
v -4.48 -5.76 0
v -4.64 -5.92 0
v -4.8 -5.92 0
v -4.8 -5.76 0
v -4.64 -5.76 0
v -7.36 -5.92 0
v -7.52 -5.92 0
v -7.52 -5.76 0
v -7.36 -5.76 0
v -7.52 -5.92 0
v -7.68 -5.92 0
v -7.68 -5.76 0
v -7.52 -5.76 0
v -3.52 -6.08 0
v -3.68 -6.08 0
v -3.68 -5.92 0
v -3.52 -5.92 0
v -3.68 -6.08 0
v -3.84 -6.08 0
v -3.84 -5.92 0
v -3.68 -5.92 0
v -6.4 -6.08 0
v -6.56 -6.08 0
v -6.56 -5.92 0
v -6.4 -5.92 0
v -5.44 -6.24 0
v -5.6 -6.24 0
v -5.6 -6.08 0
v -5.44 -6.08 0
v -3.36 -6.4 0
v -3.52 -6.4 0
v -3.52 -6.24 0
v -3.36 -6.24 0
v -3.36 -6.56 0
v -3.52 -6.56 0
v -3.52 -6.4 0
v -3.36 -6.4 0
v -3.52 -6.72 0
v -3.68 -6.72 0
v -3.68 -6.56 0
v -3.52 -6.56 0

# Texture cooridinates (Count = 20)
vt 0.5 0.25
vt 0.75 0.25
vt 0.75 0.5
vt 0.5 0.5
vt 0.25 0.25
vt 0.25 0.5
vt 1 0.25
vt 1 0.5
vt 0 0.75
vt 0.25 0.75
vt 0.25 1
vt 0 1
vt 1 0.75
vt 0.75 0.75
vt 0.5 0.75
vt 1 1
vt 0.75 1
vt 0.5 1
vt 0 0.25
vt 0 0.5

# Normal
vn 0 0 -1

# Mesh description
g 001---Zone-1---Start-town_mesh_0033

# Faces
f 1/1/1 2/2/1 3/3/1 4/4/1
f 5/1/1 6/2/1 7/3/1 8/4/1
f 9/1/1 10/2/1 11/3/1 12/4/1
f 13/1/1 14/2/1 15/3/1 16/4/1
f 17/1/1 18/2/1 19/3/1 20/4/1
f 21/1/1 22/2/1 23/3/1 24/4/1
f 25/1/1 26/2/1 27/3/1 28/4/1
f 29/5/1 30/1/1 31/4/1 32/6/1
f 33/5/1 34/1/1 35/4/1 36/6/1
f 37/5/1 38/1/1 39/4/1 40/6/1
f 41/5/1 42/1/1 43/4/1 44/6/1
f 45/5/1 46/1/1 47/4/1 48/6/1
f 49/5/1 50/1/1 51/4/1 52/6/1
f 53/2/1 54/7/1 55/8/1 56/3/1
f 57/2/1 58/7/1 59/8/1 60/3/1
f 61/9/1 62/10/1 63/11/1 64/12/1
f 65/1/1 66/2/1 67/3/1 68/4/1
f 69/1/1 70/2/1 71/3/1 72/4/1
f 73/3/1 74/8/1 75/13/1 76/14/1
f 77/4/1 78/3/1 79/14/1 80/15/1
f 81/14/1 82/13/1 83/16/1 84/17/1
f 85/15/1 86/14/1 87/17/1 88/18/1
f 89/1/1 90/2/1 91/3/1 92/4/1
f 93/9/1 94/10/1 95/11/1 96/12/1
f 97/5/1 98/1/1 99/4/1 100/6/1
f 101/9/1 102/10/1 103/11/1 104/12/1
f 105/9/1 106/10/1 107/11/1 108/12/1
f 109/9/1 110/10/1 111/11/1 112/12/1
f 113/9/1 114/10/1 115/11/1 116/12/1
f 117/9/1 118/10/1 119/11/1 120/12/1
f 121/9/1 122/10/1 123/11/1 124/12/1
f 125/9/1 126/10/1 127/11/1 128/12/1
f 129/1/1 130/2/1 131/3/1 132/4/1
f 133/1/1 134/2/1 135/3/1 136/4/1
f 137/5/1 138/1/1 139/4/1 140/6/1
f 141/5/1 142/1/1 143/4/1 144/6/1
f 145/5/1 146/1/1 147/4/1 148/6/1
f 149/4/1 150/3/1 151/14/1 152/15/1
f 153/1/1 154/2/1 155/3/1 156/4/1
f 157/1/1 158/2/1 159/3/1 160/4/1
f 161/9/1 162/10/1 163/11/1 164/12/1
f 165/9/1 166/10/1 167/11/1 168/12/1
f 169/9/1 170/10/1 171/11/1 172/12/1
f 173/19/1 174/5/1 175/6/1 176/20/1
f 177/9/1 178/10/1 179/11/1 180/12/1
f 181/9/1 182/10/1 183/11/1 184/12/1
f 185/9/1 186/10/1 187/11/1 188/12/1
f 189/19/1 190/5/1 191/6/1 192/20/1
f 193/5/1 194/1/1 195/4/1 196/6/1
f 197/9/1 198/10/1 199/11/1 200/12/1
f 201/14/1 202/13/1 203/16/1 204/17/1
f 205/1/1 206/2/1 207/3/1 208/4/1
f 209/1/1 210/2/1 211/3/1 212/4/1
f 213/5/1 214/1/1 215/4/1 216/6/1
f 217/5/1 218/1/1 219/4/1 220/6/1
f 221/5/1 222/1/1 223/4/1 224/6/1
f 225/5/1 226/1/1 227/4/1 228/6/1
f 229/5/1 230/1/1 231/4/1 232/6/1
f 233/5/1 234/1/1 235/4/1 236/6/1
f 237/1/1 238/2/1 239/3/1 240/4/1
f 241/1/1 242/2/1 243/3/1 244/4/1
f 245/5/1 246/1/1 247/4/1 248/6/1
f 249/5/1 250/1/1 251/4/1 252/6/1
f 253/5/1 254/1/1 255/4/1 256/6/1
f 257/9/1 258/10/1 259/11/1 260/12/1
f 261/2/1 262/7/1 263/8/1 264/3/1
f 265/2/1 266/7/1 267/8/1 268/3/1
f 269/9/1 270/10/1 271/11/1 272/12/1

