# Tiled2Unity generated file. Do not modify by hand.
# Wavefront file for '001---Zone-1---Start-town_mesh_0007.obj'

# Vertices (Count = 96)
v -3.04 -3.2 0
v -3.2 -3.2 0
v -3.2 -3.04 0
v -3.04 -3.04 0
v -3.2 -3.2 0
v -3.36 -3.2 0
v -3.36 -3.04 0
v -3.2 -3.04 0
v -3.36 -3.2 0
v -3.52 -3.2 0
v -3.52 -3.04 0
v -3.36 -3.04 0
v -3.04 -3.36 0
v -3.2 -3.36 0
v -3.2 -3.2 0
v -3.04 -3.2 0
v -3.2 -3.36 0
v -3.36 -3.36 0
v -3.36 -3.2 0
v -3.2 -3.2 0
v -3.36 -3.36 0
v -3.52 -3.36 0
v -3.52 -3.2 0
v -3.36 -3.2 0
v -3.04 -3.52 0
v -3.2 -3.52 0
v -3.2 -3.36 0
v -3.04 -3.36 0
v -3.2 -3.52 0
v -3.36 -3.52 0
v -3.36 -3.36 0
v -3.2 -3.36 0
v -3.36 -3.52 0
v -3.52 -3.52 0
v -3.52 -3.36 0
v -3.36 -3.36 0
v -3.04 -3.68 0
v -3.2 -3.68 0
v -3.2 -3.52 0
v -3.04 -3.52 0
v -3.2 -3.68 0
v -3.36 -3.68 0
v -3.36 -3.52 0
v -3.2 -3.52 0
v -3.36 -3.68 0
v -3.52 -3.68 0
v -3.52 -3.52 0
v -3.36 -3.52 0
v -6.24 -5.92 0
v -6.4 -5.92 0
v -6.4 -5.76 0
v -6.24 -5.76 0
v -6.4 -5.92 0
v -6.56 -5.92 0
v -6.56 -5.76 0
v -6.4 -5.76 0
v -6.56 -5.92 0
v -6.72 -5.92 0
v -6.72 -5.76 0
v -6.56 -5.76 0
v -6.24 -6.08 0
v -6.4 -6.08 0
v -6.4 -5.92 0
v -6.24 -5.92 0
v -6.4 -6.08 0
v -6.56 -6.08 0
v -6.56 -5.92 0
v -6.4 -5.92 0
v -6.56 -6.08 0
v -6.72 -6.08 0
v -6.72 -5.92 0
v -6.56 -5.92 0
v -6.24 -6.24 0
v -6.4 -6.24 0
v -6.4 -6.08 0
v -6.24 -6.08 0
v -6.4 -6.24 0
v -6.56 -6.24 0
v -6.56 -6.08 0
v -6.4 -6.08 0
v -6.56 -6.24 0
v -6.72 -6.24 0
v -6.72 -6.08 0
v -6.56 -6.08 0
v -6.24 -6.4 0
v -6.4 -6.4 0
v -6.4 -6.24 0
v -6.24 -6.24 0
v -6.4 -6.4 0
v -6.56 -6.4 0
v -6.56 -6.24 0
v -6.4 -6.24 0
v -6.56 -6.4 0
v -6.72 -6.4 0
v -6.72 -6.24 0
v -6.56 -6.24 0

# Texture cooridinates (Count = 35)
vt 0.3970223 0.6495551
vt 0.4069479 0.6495551
vt 0.4069479 0.6605065
vt 0.3970223 0.6605065
vt 0.4168735 0.6495551
vt 0.4168735 0.6605065
vt 0.426799 0.6495551
vt 0.426799 0.6605065
vt 0.3970223 0.6386037
vt 0.4069479 0.6386037
vt 0.4168735 0.6386037
vt 0.426799 0.6386037
vt 0.3970223 0.6276523
vt 0.4069479 0.6276523
vt 0.4168735 0.6276523
vt 0.426799 0.6276523
vt 0.3970223 0.6167009
vt 0.4069479 0.6167009
vt 0.4168735 0.6167009
vt 0.426799 0.6167009
vt 0.4367246 0.6495551
vt 0.4367246 0.6605065
vt 0.4466501 0.6495551
vt 0.4466501 0.6605065
vt 0.4565757 0.6495551
vt 0.4565757 0.6605065
vt 0.4367246 0.6386037
vt 0.4466501 0.6386037
vt 0.4565757 0.6386037
vt 0.4367246 0.6276523
vt 0.4466501 0.6276523
vt 0.4565757 0.6276523
vt 0.4367246 0.6167009
vt 0.4466501 0.6167009
vt 0.4565757 0.6167009

# Normal
vn 0 0 -1

# Mesh description
g 001---Zone-1---Start-town_mesh_0007

# Faces
f 1/1/1 2/2/1 3/3/1 4/4/1
f 5/2/1 6/5/1 7/6/1 8/3/1
f 9/5/1 10/7/1 11/8/1 12/6/1
f 13/9/1 14/10/1 15/2/1 16/1/1
f 17/10/1 18/11/1 19/5/1 20/2/1
f 21/11/1 22/12/1 23/7/1 24/5/1
f 25/13/1 26/14/1 27/10/1 28/9/1
f 29/14/1 30/15/1 31/11/1 32/10/1
f 33/15/1 34/16/1 35/12/1 36/11/1
f 37/17/1 38/18/1 39/14/1 40/13/1
f 41/18/1 42/19/1 43/15/1 44/14/1
f 45/19/1 46/20/1 47/16/1 48/15/1
f 49/7/1 50/21/1 51/22/1 52/8/1
f 53/21/1 54/23/1 55/24/1 56/22/1
f 57/23/1 58/25/1 59/26/1 60/24/1
f 61/12/1 62/27/1 63/21/1 64/7/1
f 65/27/1 66/28/1 67/23/1 68/21/1
f 69/28/1 70/29/1 71/25/1 72/23/1
f 73/16/1 74/30/1 75/27/1 76/12/1
f 77/30/1 78/31/1 79/28/1 80/27/1
f 81/31/1 82/32/1 83/29/1 84/28/1
f 85/20/1 86/33/1 87/30/1 88/16/1
f 89/33/1 90/34/1 91/31/1 92/30/1
f 93/34/1 94/35/1 95/32/1 96/31/1

