# Tiled2Unity generated file. Do not modify by hand.
# Wavefront file for '001---Zone-1---Start-town_mesh_0010.obj'

# Vertices (Count = 452)
v -7.68 -2.24 0
v -7.84 -2.24 0
v -7.84 -2.08 0
v -7.68 -2.08 0
v -7.84 -2.24 0
v -8 -2.24 0
v -8 -2.08 0
v -7.84 -2.08 0
v -8 -2.24 0
v -8.16 -2.24 0
v -8.16 -2.08 0
v -8 -2.08 0
v -8.16 -2.24 0
v -8.32 -2.24 0
v -8.32 -2.08 0
v -8.16 -2.08 0
v -8.32 -2.24 0
v -8.48 -2.24 0
v -8.48 -2.08 0
v -8.32 -2.08 0
v -7.68 -2.4 0
v -7.84 -2.4 0
v -7.84 -2.24 0
v -7.68 -2.24 0
v -7.84 -2.4 0
v -8 -2.4 0
v -8 -2.24 0
v -7.84 -2.24 0
v -8 -2.4 0
v -8.16 -2.4 0
v -8.16 -2.24 0
v -8 -2.24 0
v -8.16 -2.4 0
v -8.32 -2.4 0
v -8.32 -2.24 0
v -8.16 -2.24 0
v -8.32 -2.4 0
v -8.48 -2.4 0
v -8.48 -2.24 0
v -8.32 -2.24 0
v -7.68 -2.56 0
v -7.84 -2.56 0
v -7.84 -2.4 0
v -7.68 -2.4 0
v -7.84 -2.56 0
v -8 -2.56 0
v -8 -2.4 0
v -7.84 -2.4 0
v -8 -2.56 0
v -8.16 -2.56 0
v -8.16 -2.4 0
v -8 -2.4 0
v -8.16 -2.56 0
v -8.32 -2.56 0
v -8.32 -2.4 0
v -8.16 -2.4 0
v -8.32 -2.56 0
v -8.48 -2.56 0
v -8.48 -2.4 0
v -8.32 -2.4 0
v -7.68 -2.72 0
v -7.84 -2.72 0
v -7.84 -2.56 0
v -7.68 -2.56 0
v -7.84 -2.72 0
v -8 -2.72 0
v -8 -2.56 0
v -7.84 -2.56 0
v -8 -2.72 0
v -8.16 -2.72 0
v -8.16 -2.56 0
v -8 -2.56 0
v -8.16 -2.72 0
v -8.32 -2.72 0
v -8.32 -2.56 0
v -8.16 -2.56 0
v -8.32 -2.72 0
v -8.48 -2.72 0
v -8.48 -2.56 0
v -8.32 -2.56 0
v -7.68 -2.88 0
v -7.84 -2.88 0
v -7.84 -2.72 0
v -7.68 -2.72 0
v -7.84 -2.88 0
v -8 -2.88 0
v -8 -2.72 0
v -7.84 -2.72 0
v -8 -2.88 0
v -8.16 -2.88 0
v -8.16 -2.72 0
v -8 -2.72 0
v -8.16 -2.88 0
v -8.32 -2.88 0
v -8.32 -2.72 0
v -8.16 -2.72 0
v -8.32 -2.88 0
v -8.48 -2.88 0
v -8.48 -2.72 0
v -8.32 -2.72 0
v -7.68 -3.04 0
v -7.84 -3.04 0
v -7.84 -2.88 0
v -7.68 -2.88 0
v -7.84 -3.04 0
v -8 -3.04 0
v -8 -2.88 0
v -7.84 -2.88 0
v -8 -3.04 0
v -8.16 -3.04 0
v -8.16 -2.88 0
v -8 -2.88 0
v -8.16 -3.04 0
v -8.32 -3.04 0
v -8.32 -2.88 0
v -8.16 -2.88 0
v -8.32 -3.04 0
v -8.48 -3.04 0
v -8.48 -2.88 0
v -8.32 -2.88 0
v -2.88 -4.32 0
v -3.04 -4.32 0
v -3.04 -4.16 0
v -2.88 -4.16 0
v -3.04 -4.32 0
v -3.2 -4.32 0
v -3.2 -4.16 0
v -3.04 -4.16 0
v -3.2 -4.32 0
v -3.36 -4.32 0
v -3.36 -4.16 0
v -3.2 -4.16 0
v -3.36 -4.32 0
v -3.52 -4.32 0
v -3.52 -4.16 0
v -3.36 -4.16 0
v -3.52 -4.32 0
v -3.68 -4.32 0
v -3.68 -4.16 0
v -3.52 -4.16 0
v -3.68 -4.32 0
v -3.84 -4.32 0
v -3.84 -4.16 0
v -3.68 -4.16 0
v -2.88 -4.48 0
v -3.04 -4.48 0
v -3.04 -4.32 0
v -2.88 -4.32 0
v -3.04 -4.48 0
v -3.2 -4.48 0
v -3.2 -4.32 0
v -3.04 -4.32 0
v -3.2 -4.48 0
v -3.36 -4.48 0
v -3.36 -4.32 0
v -3.2 -4.32 0
v -3.36 -4.48 0
v -3.52 -4.48 0
v -3.52 -4.32 0
v -3.36 -4.32 0
v -3.52 -4.48 0
v -3.68 -4.48 0
v -3.68 -4.32 0
v -3.52 -4.32 0
v -3.68 -4.48 0
v -3.84 -4.48 0
v -3.84 -4.32 0
v -3.68 -4.32 0
v -4.48 -4.48 0
v -4.64 -4.48 0
v -4.64 -4.32 0
v -4.48 -4.32 0
v -4.64 -4.48 0
v -4.8 -4.48 0
v -4.8 -4.32 0
v -4.64 -4.32 0
v -4.8 -4.48 0
v -4.96 -4.48 0
v -4.96 -4.32 0
v -4.8 -4.32 0
v -4.96 -4.48 0
v -5.12 -4.48 0
v -5.12 -4.32 0
v -4.96 -4.32 0
v -5.12 -4.48 0
v -5.28 -4.48 0
v -5.28 -4.32 0
v -5.12 -4.32 0
v -2.88 -4.64 0
v -3.04 -4.64 0
v -3.04 -4.48 0
v -2.88 -4.48 0
v -3.04 -4.64 0
v -3.2 -4.64 0
v -3.2 -4.48 0
v -3.04 -4.48 0
v -3.2 -4.64 0
v -3.36 -4.64 0
v -3.36 -4.48 0
v -3.2 -4.48 0
v -3.36 -4.64 0
v -3.52 -4.64 0
v -3.52 -4.48 0
v -3.36 -4.48 0
v -3.52 -4.64 0
v -3.68 -4.64 0
v -3.68 -4.48 0
v -3.52 -4.48 0
v -3.68 -4.64 0
v -3.84 -4.64 0
v -3.84 -4.48 0
v -3.68 -4.48 0
v -4.48 -4.64 0
v -4.64 -4.64 0
v -4.64 -4.48 0
v -4.48 -4.48 0
v -4.64 -4.64 0
v -4.8 -4.64 0
v -4.8 -4.48 0
v -4.64 -4.48 0
v -4.8 -4.64 0
v -4.96 -4.64 0
v -4.96 -4.48 0
v -4.8 -4.48 0
v -4.96 -4.64 0
v -5.12 -4.64 0
v -5.12 -4.48 0
v -4.96 -4.48 0
v -5.12 -4.64 0
v -5.28 -4.64 0
v -5.28 -4.48 0
v -5.12 -4.48 0
v -2.88 -4.8 0
v -3.04 -4.8 0
v -3.04 -4.64 0
v -2.88 -4.64 0
v -3.04 -4.8 0
v -3.2 -4.8 0
v -3.2 -4.64 0
v -3.04 -4.64 0
v -3.2 -4.8 0
v -3.36 -4.8 0
v -3.36 -4.64 0
v -3.2 -4.64 0
v -3.36 -4.8 0
v -3.52 -4.8 0
v -3.52 -4.64 0
v -3.36 -4.64 0
v -3.52 -4.8 0
v -3.68 -4.8 0
v -3.68 -4.64 0
v -3.52 -4.64 0
v -3.68 -4.8 0
v -3.84 -4.8 0
v -3.84 -4.64 0
v -3.68 -4.64 0
v -4.48 -4.8 0
v -4.64 -4.8 0
v -4.64 -4.64 0
v -4.48 -4.64 0
v -4.64 -4.8 0
v -4.8 -4.8 0
v -4.8 -4.64 0
v -4.64 -4.64 0
v -4.8 -4.8 0
v -4.96 -4.8 0
v -4.96 -4.64 0
v -4.8 -4.64 0
v -4.96 -4.8 0
v -5.12 -4.8 0
v -5.12 -4.64 0
v -4.96 -4.64 0
v -5.12 -4.8 0
v -5.28 -4.8 0
v -5.28 -4.64 0
v -5.12 -4.64 0
v -2.88 -4.96 0
v -3.04 -4.96 0
v -3.04 -4.8 0
v -2.88 -4.8 0
v -3.04 -4.96 0
v -3.2 -4.96 0
v -3.2 -4.8 0
v -3.04 -4.8 0
v -3.2 -4.96 0
v -3.36 -4.96 0
v -3.36 -4.8 0
v -3.2 -4.8 0
v -3.36 -4.96 0
v -3.52 -4.96 0
v -3.52 -4.8 0
v -3.36 -4.8 0
v -3.52 -4.96 0
v -3.68 -4.96 0
v -3.68 -4.8 0
v -3.52 -4.8 0
v -3.68 -4.96 0
v -3.84 -4.96 0
v -3.84 -4.8 0
v -3.68 -4.8 0
v -4.48 -4.96 0
v -4.64 -4.96 0
v -4.64 -4.8 0
v -4.48 -4.8 0
v -4.64 -4.96 0
v -4.8 -4.96 0
v -4.8 -4.8 0
v -4.64 -4.8 0
v -4.8 -4.96 0
v -4.96 -4.96 0
v -4.96 -4.8 0
v -4.8 -4.8 0
v -4.96 -4.96 0
v -5.12 -4.96 0
v -5.12 -4.8 0
v -4.96 -4.8 0
v -5.12 -4.96 0
v -5.28 -4.96 0
v -5.28 -4.8 0
v -5.12 -4.8 0
v -2.88 -5.12 0
v -3.04 -5.12 0
v -3.04 -4.96 0
v -2.88 -4.96 0
v -3.04 -5.12 0
v -3.2 -5.12 0
v -3.2 -4.96 0
v -3.04 -4.96 0
v -3.2 -5.12 0
v -3.36 -5.12 0
v -3.36 -4.96 0
v -3.2 -4.96 0
v -3.36 -5.12 0
v -3.52 -5.12 0
v -3.52 -4.96 0
v -3.36 -4.96 0
v -3.52 -5.12 0
v -3.68 -5.12 0
v -3.68 -4.96 0
v -3.52 -4.96 0
v -3.68 -5.12 0
v -3.84 -5.12 0
v -3.84 -4.96 0
v -3.68 -4.96 0
v -4.48 -5.12 0
v -4.64 -5.12 0
v -4.64 -4.96 0
v -4.48 -4.96 0
v -4.64 -5.12 0
v -4.8 -5.12 0
v -4.8 -4.96 0
v -4.64 -4.96 0
v -4.8 -5.12 0
v -4.96 -5.12 0
v -4.96 -4.96 0
v -4.8 -4.96 0
v -4.96 -5.12 0
v -5.12 -5.12 0
v -5.12 -4.96 0
v -4.96 -4.96 0
v -5.12 -5.12 0
v -5.28 -5.12 0
v -5.28 -4.96 0
v -5.12 -4.96 0
v -2.88 -5.28 0
v -3.04 -5.28 0
v -3.04 -5.12 0
v -2.88 -5.12 0
v -3.04 -5.28 0
v -3.2 -5.28 0
v -3.2 -5.12 0
v -3.04 -5.12 0
v -3.2 -5.28 0
v -3.36 -5.28 0
v -3.36 -5.12 0
v -3.2 -5.12 0
v -3.36 -5.28 0
v -3.52 -5.28 0
v -3.52 -5.12 0
v -3.36 -5.12 0
v -3.52 -5.28 0
v -3.68 -5.28 0
v -3.68 -5.12 0
v -3.52 -5.12 0
v -3.68 -5.28 0
v -3.84 -5.28 0
v -3.84 -5.12 0
v -3.68 -5.12 0
v -4.48 -5.28 0
v -4.64 -5.28 0
v -4.64 -5.12 0
v -4.48 -5.12 0
v -4.64 -5.28 0
v -4.8 -5.28 0
v -4.8 -5.12 0
v -4.64 -5.12 0
v -4.8 -5.28 0
v -4.96 -5.28 0
v -4.96 -5.12 0
v -4.8 -5.12 0
v -4.96 -5.28 0
v -5.12 -5.28 0
v -5.12 -5.12 0
v -4.96 -5.12 0
v -5.12 -5.28 0
v -5.28 -5.28 0
v -5.28 -5.12 0
v -5.12 -5.12 0
v -2.88 -5.44 0
v -3.04 -5.44 0
v -3.04 -5.28 0
v -2.88 -5.28 0
v -3.04 -5.44 0
v -3.2 -5.44 0
v -3.2 -5.28 0
v -3.04 -5.28 0
v -3.2 -5.44 0
v -3.36 -5.44 0
v -3.36 -5.28 0
v -3.2 -5.28 0
v -3.36 -5.44 0
v -3.52 -5.44 0
v -3.52 -5.28 0
v -3.36 -5.28 0
v -3.52 -5.44 0
v -3.68 -5.44 0
v -3.68 -5.28 0
v -3.52 -5.28 0
v -3.68 -5.44 0
v -3.84 -5.44 0
v -3.84 -5.28 0
v -3.68 -5.28 0
v -4.48 -5.44 0
v -4.64 -5.44 0
v -4.64 -5.28 0
v -4.48 -5.28 0
v -4.64 -5.44 0
v -4.8 -5.44 0
v -4.8 -5.28 0
v -4.64 -5.28 0
v -4.8 -5.44 0
v -4.96 -5.44 0
v -4.96 -5.28 0
v -4.8 -5.28 0
v -4.96 -5.44 0
v -5.12 -5.44 0
v -5.12 -5.28 0
v -4.96 -5.28 0
v -5.12 -5.44 0
v -5.28 -5.44 0
v -5.28 -5.28 0
v -5.12 -5.28 0

# Texture cooridinates (Count = 145)
vt 0.5185185 0.9651163
vt 0.5308642 0.9651163
vt 0.5308642 0.9767442
vt 0.5185185 0.9767442
vt 0.5432099 0.9651163
vt 0.5432099 0.9767442
vt 0.5555556 0.9651163
vt 0.5555556 0.9767442
vt 0.5679013 0.9651163
vt 0.5679013 0.9767442
vt 0.5802469 0.9651163
vt 0.5802469 0.9767442
vt 0.5185185 0.9534883
vt 0.5308642 0.9534883
vt 0.5432099 0.9534883
vt 0.5555556 0.9534883
vt 0.5679013 0.9534883
vt 0.5802469 0.9534883
vt 0.5185185 0.9418604
vt 0.5308642 0.9418604
vt 0.5432099 0.9418604
vt 0.5555556 0.9418604
vt 0.5679013 0.9418604
vt 0.5802469 0.9418604
vt 0.5185185 0.9302325
vt 0.5308642 0.9302325
vt 0.5432099 0.9302325
vt 0.5555556 0.9302325
vt 0.5679013 0.9302325
vt 0.5802469 0.9302325
vt 0.5185185 0.9186047
vt 0.5308642 0.9186047
vt 0.5432099 0.9186047
vt 0.5555556 0.9186047
vt 0.5679013 0.9186047
vt 0.5802469 0.9186047
vt 0.5185185 0.9069768
vt 0.5308642 0.9069768
vt 0.5432099 0.9069768
vt 0.5555556 0.9069768
vt 0.5679013 0.9069768
vt 0.5802469 0.9069768
vt 0.3209876 0.9883721
vt 0.3333333 0.9883721
vt 0.3333333 1
vt 0.3209876 1
vt 0.345679 0.9883721
vt 0.345679 1
vt 0.3580247 0.9883721
vt 0.3580247 1
vt 0.3703704 0.9883721
vt 0.3703704 1
vt 0.3827161 0.9883721
vt 0.3827161 1
vt 0.3950617 0.9883721
vt 0.3950617 1
vt 0.3209876 0.9767442
vt 0.3333333 0.9767442
vt 0.345679 0.9767442
vt 0.3580247 0.9767442
vt 0.3703704 0.9767442
vt 0.3827161 0.9767442
vt 0.3950617 0.9767442
vt 0.4074074 0.9767442
vt 0.4074074 0.9883721
vt 0.4197531 0.9767442
vt 0.4197531 0.9883721
vt 0.4320988 0.9767442
vt 0.4320988 0.9883721
vt 0.4444444 0.9767442
vt 0.4444444 0.9883721
vt 0.4567901 0.9767442
vt 0.4567901 0.9883721
vt 0.3209876 0.9651163
vt 0.3333333 0.9651163
vt 0.345679 0.9651163
vt 0.3580247 0.9651163
vt 0.3703704 0.9651163
vt 0.3827161 0.9651163
vt 0.3950617 0.9651163
vt 0.4074074 0.9651163
vt 0.4197531 0.9651163
vt 0.4320988 0.9651163
vt 0.4444444 0.9651163
vt 0.4567901 0.9651163
vt 0.3209876 0.9534883
vt 0.3333333 0.9534883
vt 0.345679 0.9534883
vt 0.3580247 0.9534883
vt 0.3703704 0.9534883
vt 0.3827161 0.9534883
vt 0.3950617 0.9534883
vt 0.4074074 0.9534883
vt 0.4197531 0.9534883
vt 0.4320988 0.9534883
vt 0.4444444 0.9534883
vt 0.4567901 0.9534883
vt 0.3209876 0.9418604
vt 0.3333333 0.9418604
vt 0.345679 0.9418604
vt 0.3580247 0.9418604
vt 0.3703704 0.9418604
vt 0.3827161 0.9418604
vt 0.3950617 0.9418604
vt 0.4074074 0.9418604
vt 0.4197531 0.9418604
vt 0.4320988 0.9418604
vt 0.4444444 0.9418604
vt 0.4567901 0.9418604
vt 0.3209876 0.9302325
vt 0.3333333 0.9302325
vt 0.345679 0.9302325
vt 0.3580247 0.9302325
vt 0.3703704 0.9302325
vt 0.3827161 0.9302325
vt 0.3950617 0.9302325
vt 0.4074074 0.9302325
vt 0.4197531 0.9302325
vt 0.4320988 0.9302325
vt 0.4444444 0.9302325
vt 0.4567901 0.9302325
vt 0.3209876 0.9186047
vt 0.3333333 0.9186047
vt 0.345679 0.9186047
vt 0.3580247 0.9186047
vt 0.3703704 0.9186047
vt 0.3827161 0.9186047
vt 0.3950617 0.9186047
vt 0.4074074 0.9186047
vt 0.4197531 0.9186047
vt 0.4320988 0.9186047
vt 0.4444444 0.9186047
vt 0.4567901 0.9186047
vt 0.3209876 0.9069768
vt 0.3333333 0.9069768
vt 0.345679 0.9069768
vt 0.3580247 0.9069768
vt 0.3703704 0.9069768
vt 0.3827161 0.9069768
vt 0.3950617 0.9069768
vt 0.4074074 0.9069768
vt 0.4197531 0.9069768
vt 0.4320988 0.9069768
vt 0.4444444 0.9069768
vt 0.4567901 0.9069768

# Normal
vn 0 0 -1

# Mesh description
g 001---Zone-1---Start-town_mesh_0010

# Faces
f 1/1/1 2/2/1 3/3/1 4/4/1
f 5/2/1 6/5/1 7/6/1 8/3/1
f 9/5/1 10/7/1 11/8/1 12/6/1
f 13/7/1 14/9/1 15/10/1 16/8/1
f 17/9/1 18/11/1 19/12/1 20/10/1
f 21/13/1 22/14/1 23/2/1 24/1/1
f 25/14/1 26/15/1 27/5/1 28/2/1
f 29/15/1 30/16/1 31/7/1 32/5/1
f 33/16/1 34/17/1 35/9/1 36/7/1
f 37/17/1 38/18/1 39/11/1 40/9/1
f 41/19/1 42/20/1 43/14/1 44/13/1
f 45/20/1 46/21/1 47/15/1 48/14/1
f 49/21/1 50/22/1 51/16/1 52/15/1
f 53/22/1 54/23/1 55/17/1 56/16/1
f 57/23/1 58/24/1 59/18/1 60/17/1
f 61/25/1 62/26/1 63/20/1 64/19/1
f 65/26/1 66/27/1 67/21/1 68/20/1
f 69/27/1 70/28/1 71/22/1 72/21/1
f 73/28/1 74/29/1 75/23/1 76/22/1
f 77/29/1 78/30/1 79/24/1 80/23/1
f 81/31/1 82/32/1 83/26/1 84/25/1
f 85/32/1 86/33/1 87/27/1 88/26/1
f 89/33/1 90/34/1 91/28/1 92/27/1
f 93/34/1 94/35/1 95/29/1 96/28/1
f 97/35/1 98/36/1 99/30/1 100/29/1
f 101/37/1 102/38/1 103/32/1 104/31/1
f 105/38/1 106/39/1 107/33/1 108/32/1
f 109/39/1 110/40/1 111/34/1 112/33/1
f 113/40/1 114/41/1 115/35/1 116/34/1
f 117/41/1 118/42/1 119/36/1 120/35/1
f 121/43/1 122/44/1 123/45/1 124/46/1
f 125/44/1 126/47/1 127/48/1 128/45/1
f 129/47/1 130/49/1 131/50/1 132/48/1
f 133/49/1 134/51/1 135/52/1 136/50/1
f 137/51/1 138/53/1 139/54/1 140/52/1
f 141/53/1 142/55/1 143/56/1 144/54/1
f 145/57/1 146/58/1 147/44/1 148/43/1
f 149/58/1 150/59/1 151/47/1 152/44/1
f 153/59/1 154/60/1 155/49/1 156/47/1
f 157/60/1 158/61/1 159/51/1 160/49/1
f 161/61/1 162/62/1 163/53/1 164/51/1
f 165/62/1 166/63/1 167/55/1 168/53/1
f 169/63/1 170/64/1 171/65/1 172/55/1
f 173/64/1 174/66/1 175/67/1 176/65/1
f 177/66/1 178/68/1 179/69/1 180/67/1
f 181/68/1 182/70/1 183/71/1 184/69/1
f 185/70/1 186/72/1 187/73/1 188/71/1
f 189/74/1 190/75/1 191/58/1 192/57/1
f 193/75/1 194/76/1 195/59/1 196/58/1
f 197/76/1 198/77/1 199/60/1 200/59/1
f 201/77/1 202/78/1 203/61/1 204/60/1
f 205/78/1 206/79/1 207/62/1 208/61/1
f 209/79/1 210/80/1 211/63/1 212/62/1
f 213/80/1 214/81/1 215/64/1 216/63/1
f 217/81/1 218/82/1 219/66/1 220/64/1
f 221/82/1 222/83/1 223/68/1 224/66/1
f 225/83/1 226/84/1 227/70/1 228/68/1
f 229/84/1 230/85/1 231/72/1 232/70/1
f 233/86/1 234/87/1 235/75/1 236/74/1
f 237/87/1 238/88/1 239/76/1 240/75/1
f 241/88/1 242/89/1 243/77/1 244/76/1
f 245/89/1 246/90/1 247/78/1 248/77/1
f 249/90/1 250/91/1 251/79/1 252/78/1
f 253/91/1 254/92/1 255/80/1 256/79/1
f 257/92/1 258/93/1 259/81/1 260/80/1
f 261/93/1 262/94/1 263/82/1 264/81/1
f 265/94/1 266/95/1 267/83/1 268/82/1
f 269/95/1 270/96/1 271/84/1 272/83/1
f 273/96/1 274/97/1 275/85/1 276/84/1
f 277/98/1 278/99/1 279/87/1 280/86/1
f 281/99/1 282/100/1 283/88/1 284/87/1
f 285/100/1 286/101/1 287/89/1 288/88/1
f 289/101/1 290/102/1 291/90/1 292/89/1
f 293/102/1 294/103/1 295/91/1 296/90/1
f 297/103/1 298/104/1 299/92/1 300/91/1
f 301/104/1 302/105/1 303/93/1 304/92/1
f 305/105/1 306/106/1 307/94/1 308/93/1
f 309/106/1 310/107/1 311/95/1 312/94/1
f 313/107/1 314/108/1 315/96/1 316/95/1
f 317/108/1 318/109/1 319/97/1 320/96/1
f 321/110/1 322/111/1 323/99/1 324/98/1
f 325/111/1 326/112/1 327/100/1 328/99/1
f 329/112/1 330/113/1 331/101/1 332/100/1
f 333/113/1 334/114/1 335/102/1 336/101/1
f 337/114/1 338/115/1 339/103/1 340/102/1
f 341/115/1 342/116/1 343/104/1 344/103/1
f 345/116/1 346/117/1 347/105/1 348/104/1
f 349/117/1 350/118/1 351/106/1 352/105/1
f 353/118/1 354/119/1 355/107/1 356/106/1
f 357/119/1 358/120/1 359/108/1 360/107/1
f 361/120/1 362/121/1 363/109/1 364/108/1
f 365/122/1 366/123/1 367/111/1 368/110/1
f 369/123/1 370/124/1 371/112/1 372/111/1
f 373/124/1 374/125/1 375/113/1 376/112/1
f 377/125/1 378/126/1 379/114/1 380/113/1
f 381/126/1 382/127/1 383/115/1 384/114/1
f 385/127/1 386/128/1 387/116/1 388/115/1
f 389/128/1 390/129/1 391/117/1 392/116/1
f 393/129/1 394/130/1 395/118/1 396/117/1
f 397/130/1 398/131/1 399/119/1 400/118/1
f 401/131/1 402/132/1 403/120/1 404/119/1
f 405/132/1 406/133/1 407/121/1 408/120/1
f 409/134/1 410/135/1 411/123/1 412/122/1
f 413/135/1 414/136/1 415/124/1 416/123/1
f 417/136/1 418/137/1 419/125/1 420/124/1
f 421/137/1 422/138/1 423/126/1 424/125/1
f 425/138/1 426/139/1 427/127/1 428/126/1
f 429/139/1 430/140/1 431/128/1 432/127/1
f 433/140/1 434/141/1 435/129/1 436/128/1
f 437/141/1 438/142/1 439/130/1 440/129/1
f 441/142/1 442/143/1 443/131/1 444/130/1
f 445/143/1 446/144/1 447/132/1 448/131/1
f 449/144/1 450/145/1 451/133/1 452/132/1

