# Tiled2Unity generated file. Do not modify by hand.
# Wavefront file for '001---Zone-1---Start-town_mesh_0028.obj'

# Vertices (Count = 12)
v -4.64 -0.96 0
v -4.8 -0.96 0
v -4.8 -0.8 0
v -4.64 -0.8 0
v -7.84 -1.76 0
v -8 -1.76 0
v -8 -1.6 0
v -7.84 -1.6 0
v -3.68 -5.12 0
v -3.84 -5.12 0
v -3.84 -4.96 0
v -3.68 -4.96 0

# Texture cooridinates (Count = 8)
vt 0.2343542 0.9253644
vt 0.2556591 0.9253644
vt 0.2556591 0.9346939
vt 0.2343542 0.9346939
vt 0.06391478 0.9813411
vt 0.0852197 0.9813411
vt 0.0852197 0.9906706
vt 0.06391478 0.9906706

# Normal
vn 0 0 -1

# Mesh description
g 001---Zone-1---Start-town_mesh_0028

# Faces
f 1/1/1 2/2/1 3/3/1 4/4/1
f 5/1/1 6/2/1 7/3/1 8/4/1
f 9/5/1 10/6/1 11/7/1 12/8/1

