# Tiled2Unity generated file. Do not modify by hand.
# Wavefront file for '001---Zone-1---Start-town_mesh_0012.obj'

# Vertices (Count = 272)
v -7.2 -0.16 0
v -7.36 -0.16 0
v -7.36 0 0
v -7.2 0 0
v -7.36 -0.16 0
v -7.52 -0.16 0
v -7.52 0 0
v -7.36 0 0
v -7.52 -0.16 0
v -7.68 -0.16 0
v -7.68 0 0
v -7.52 0 0
v -7.68 -0.16 0
v -7.84 -0.16 0
v -7.84 0 0
v -7.68 0 0
v -7.2 -0.32 0
v -7.36 -0.32 0
v -7.36 -0.16 0
v -7.2 -0.16 0
v -7.36 -0.32 0
v -7.52 -0.32 0
v -7.52 -0.16 0
v -7.36 -0.16 0
v -7.52 -0.32 0
v -7.68 -0.32 0
v -7.68 -0.16 0
v -7.52 -0.16 0
v -7.68 -0.32 0
v -7.84 -0.32 0
v -7.84 -0.16 0
v -7.68 -0.16 0
v -7.2 -0.48 0
v -7.36 -0.48 0
v -7.36 -0.32 0
v -7.2 -0.32 0
v -7.36 -0.48 0
v -7.52 -0.48 0
v -7.52 -0.32 0
v -7.36 -0.32 0
v -7.52 -0.48 0
v -7.68 -0.48 0
v -7.68 -0.32 0
v -7.52 -0.32 0
v -7.68 -0.48 0
v -7.84 -0.48 0
v -7.84 -0.32 0
v -7.68 -0.32 0
v -7.2 -0.64 0
v -7.36 -0.64 0
v -7.36 -0.48 0
v -7.2 -0.48 0
v -7.36 -0.64 0
v -7.52 -0.64 0
v -7.52 -0.48 0
v -7.36 -0.48 0
v -7.52 -0.64 0
v -7.68 -0.64 0
v -7.68 -0.48 0
v -7.52 -0.48 0
v -7.68 -0.64 0
v -7.84 -0.64 0
v -7.84 -0.48 0
v -7.68 -0.48 0
v -4.48 -0.8 0
v -4.64 -0.8 0
v -4.64 -0.64 0
v -4.48 -0.64 0
v -5.12 -0.96 0
v -5.28 -0.96 0
v -5.28 -0.8 0
v -5.12 -0.8 0
v -5.12 -1.12 0
v -5.28 -1.12 0
v -5.28 -0.96 0
v -5.12 -0.96 0
v -6.72 -1.6 0
v -6.88 -1.6 0
v -6.88 -1.44 0
v -6.72 -1.44 0
v -6.88 -1.6 0
v -7.04 -1.6 0
v -7.04 -1.44 0
v -6.88 -1.44 0
v -6.72 -1.76 0
v -6.88 -1.76 0
v -6.88 -1.6 0
v -6.72 -1.6 0
v -6.88 -1.76 0
v -7.04 -1.76 0
v -7.04 -1.6 0
v -6.88 -1.6 0
v -3.52 -1.92 0
v -3.68 -1.92 0
v -3.68 -1.76 0
v -3.52 -1.76 0
v -3.52 -2.08 0
v -3.68 -2.08 0
v -3.68 -1.92 0
v -3.52 -1.92 0
v -3.36 -2.24 0
v -3.52 -2.24 0
v -3.52 -2.08 0
v -3.36 -2.08 0
v -4.32 -3.2 0
v -4.48 -3.2 0
v -4.48 -3.04 0
v -4.32 -3.04 0
v -4.48 -3.2 0
v -4.64 -3.2 0
v -4.64 -3.04 0
v -4.48 -3.04 0
v -4.64 -3.2 0
v -4.8 -3.2 0
v -4.8 -3.04 0
v -4.64 -3.04 0
v -4.8 -3.2 0
v -4.96 -3.2 0
v -4.96 -3.04 0
v -4.8 -3.04 0
v -4.96 -3.2 0
v -5.12 -3.2 0
v -5.12 -3.04 0
v -4.96 -3.04 0
v -5.12 -3.2 0
v -5.28 -3.2 0
v -5.28 -3.04 0
v -5.12 -3.04 0
v -5.28 -3.2 0
v -5.44 -3.2 0
v -5.44 -3.04 0
v -5.28 -3.04 0
v -5.44 -3.2 0
v -5.6 -3.2 0
v -5.6 -3.04 0
v -5.44 -3.04 0
v -5.6 -3.2 0
v -5.76 -3.2 0
v -5.76 -3.04 0
v -5.6 -3.04 0
v -4.32 -3.36 0
v -4.48 -3.36 0
v -4.48 -3.2 0
v -4.32 -3.2 0
v -5.6 -3.36 0
v -5.76 -3.36 0
v -5.76 -3.2 0
v -5.6 -3.2 0
v -4.32 -3.52 0
v -4.48 -3.52 0
v -4.48 -3.36 0
v -4.32 -3.36 0
v -4.64 -3.52 0
v -4.8 -3.52 0
v -4.8 -3.36 0
v -4.64 -3.36 0
v -4.8 -3.52 0
v -4.96 -3.52 0
v -4.96 -3.36 0
v -4.8 -3.36 0
v -4.96 -3.52 0
v -5.12 -3.52 0
v -5.12 -3.36 0
v -4.96 -3.36 0
v -5.12 -3.52 0
v -5.28 -3.52 0
v -5.28 -3.36 0
v -5.12 -3.36 0
v -5.28 -3.52 0
v -5.44 -3.52 0
v -5.44 -3.36 0
v -5.28 -3.36 0
v -5.6 -3.52 0
v -5.76 -3.52 0
v -5.76 -3.36 0
v -5.6 -3.36 0
v -4.32 -3.68 0
v -4.48 -3.68 0
v -4.48 -3.52 0
v -4.32 -3.52 0
v -4.8 -3.68 0
v -4.96 -3.68 0
v -4.96 -3.52 0
v -4.8 -3.52 0
v -4.96 -3.68 0
v -5.12 -3.68 0
v -5.12 -3.52 0
v -4.96 -3.52 0
v -5.12 -3.68 0
v -5.28 -3.68 0
v -5.28 -3.52 0
v -5.12 -3.52 0
v -5.6 -3.68 0
v -5.76 -3.68 0
v -5.76 -3.52 0
v -5.6 -3.52 0
v -4.32 -3.84 0
v -4.48 -3.84 0
v -4.48 -3.68 0
v -4.32 -3.68 0
v -4.64 -3.84 0
v -4.8 -3.84 0
v -4.8 -3.68 0
v -4.64 -3.68 0
v -4.8 -3.84 0
v -4.96 -3.84 0
v -4.96 -3.68 0
v -4.8 -3.68 0
v -4.96 -3.84 0
v -5.12 -3.84 0
v -5.12 -3.68 0
v -4.96 -3.68 0
v -5.12 -3.84 0
v -5.28 -3.84 0
v -5.28 -3.68 0
v -5.12 -3.68 0
v -5.28 -3.84 0
v -5.44 -3.84 0
v -5.44 -3.68 0
v -5.28 -3.68 0
v -5.6 -3.84 0
v -5.76 -3.84 0
v -5.76 -3.68 0
v -5.6 -3.68 0
v -4.32 -4 0
v -4.48 -4 0
v -4.48 -3.84 0
v -4.32 -3.84 0
v -5.6 -4 0
v -5.76 -4 0
v -5.76 -3.84 0
v -5.6 -3.84 0
v -4.32 -4.16 0
v -4.48 -4.16 0
v -4.48 -4 0
v -4.32 -4 0
v -4.48 -4.16 0
v -4.64 -4.16 0
v -4.64 -4 0
v -4.48 -4 0
v -4.64 -4.16 0
v -4.8 -4.16 0
v -4.8 -4 0
v -4.64 -4 0
v -4.8 -4.16 0
v -4.96 -4.16 0
v -4.96 -4 0
v -4.8 -4 0
v -4.96 -4.16 0
v -5.12 -4.16 0
v -5.12 -4 0
v -4.96 -4 0
v -5.12 -4.16 0
v -5.28 -4.16 0
v -5.28 -4 0
v -5.12 -4 0
v -5.28 -4.16 0
v -5.44 -4.16 0
v -5.44 -4 0
v -5.28 -4 0
v -5.44 -4.16 0
v -5.6 -4.16 0
v -5.6 -4 0
v -5.44 -4 0
v -5.6 -4.16 0
v -5.76 -4.16 0
v -5.76 -4 0
v -5.6 -4 0
v -5.28 -6.4 0
v -5.44 -6.4 0
v -5.44 -6.24 0
v -5.28 -6.24 0

# Texture cooridinates (Count = 98)
vt 0.7272727 0.7684211
vt 0.7454545 0.7684211
vt 0.7454545 0.7789474
vt 0.7272727 0.7789474
vt 0.7636364 0.7684211
vt 0.7636364 0.7789474
vt 0.7818182 0.7684211
vt 0.7818182 0.7789474
vt 0.8 0.7684211
vt 0.8 0.7789474
vt 0.7272727 0.7578948
vt 0.7454545 0.7578948
vt 0.7636364 0.7578948
vt 0.7818182 0.7578948
vt 0.8 0.7578948
vt 0.7272727 0.7473685
vt 0.7454545 0.7473685
vt 0.7636364 0.7473685
vt 0.7818182 0.7473685
vt 0.8 0.7473685
vt 0.7272727 0.7368421
vt 0.7454545 0.7368421
vt 0.7636364 0.7368421
vt 0.7818182 0.7368421
vt 0.8 0.7368421
vt 0.3636364 0.4736842
vt 0.3818182 0.4736842
vt 0.3818182 0.4842106
vt 0.3636364 0.4842106
vt 0.2727273 0.4842106
vt 0.2909091 0.4842106
vt 0.2909091 0.4947369
vt 0.2727273 0.4947369
vt 0.2727273 0.4736842
vt 0.2909091 0.4736842
vt 0.1454545 0.968421
vt 0.1636364 0.968421
vt 0.1636364 0.9789473
vt 0.1454545 0.9789473
vt 0.1818182 0.968421
vt 0.1818182 0.9789473
vt 0.1454545 0.9578947
vt 0.1636364 0.9578947
vt 0.1818182 0.9578947
vt 0.2727273 0.968421
vt 0.2909091 0.968421
vt 0.2909091 0.9789473
vt 0.2727273 0.9789473
vt 0.2 0.7578948
vt 0.2181818 0.7578948
vt 0.2181818 0.7684211
vt 0.2 0.7684211
vt 0.2363636 0.7578948
vt 0.2363636 0.7684211
vt 0.1636364 0.7578948
vt 0.1818182 0.7578948
vt 0.1818182 0.7684211
vt 0.1636364 0.7684211
vt 0.2545455 0.7578948
vt 0.2545455 0.7684211
vt 0.1454545 0.7473685
vt 0.1636364 0.7473685
vt 0.1454545 0.7578948
vt 0.2363636 0.7473685
vt 0.2545455 0.7473685
vt 0.2 0.7473685
vt 0.2181818 0.7473685
vt 0.2 0.4
vt 0.2181818 0.4
vt 0.2181818 0.4105263
vt 0.2 0.4105263
vt 0.6727273 0.6210526
vt 0.6909091 0.6210526
vt 0.6909091 0.6315789
vt 0.6727273 0.6315789
vt 0.7090909 0.6210526
vt 0.7090909 0.6315789
vt 0.7272727 0.6210526
vt 0.7272727 0.6315789
vt 0.1818182 0.7473685
vt 0.6727273 0.6105263
vt 0.6909091 0.6105263
vt 0.7090909 0.6105263
vt 0.7272727 0.6105263
vt 0.1090909 0.7368421
vt 0.1272727 0.7368421
vt 0.1272727 0.7473685
vt 0.1090909 0.7473685
vt 0.6727273 0.6
vt 0.6909091 0.6
vt 0.7090909 0.6
vt 0.7272727 0.6
vt 0.1454545 0.7368421
vt 0.1636364 0.7368421
vt 0.2181818 0.7368421
vt 0.2363636 0.7368421
vt 0.1818182 0.7368421
vt 0.2545455 0.7368421

# Normal
vn 0 0 -1

# Mesh description
g 001---Zone-1---Start-town_mesh_0012

# Faces
f 1/1/1 2/2/1 3/3/1 4/4/1
f 5/2/1 6/5/1 7/6/1 8/3/1
f 9/5/1 10/7/1 11/8/1 12/6/1
f 13/7/1 14/9/1 15/10/1 16/8/1
f 17/11/1 18/12/1 19/2/1 20/1/1
f 21/12/1 22/13/1 23/5/1 24/2/1
f 25/13/1 26/14/1 27/7/1 28/5/1
f 29/14/1 30/15/1 31/9/1 32/7/1
f 33/16/1 34/17/1 35/12/1 36/11/1
f 37/17/1 38/18/1 39/13/1 40/12/1
f 41/18/1 42/19/1 43/14/1 44/13/1
f 45/19/1 46/20/1 47/15/1 48/14/1
f 49/21/1 50/22/1 51/17/1 52/16/1
f 53/22/1 54/23/1 55/18/1 56/17/1
f 57/23/1 58/24/1 59/19/1 60/18/1
f 61/24/1 62/25/1 63/20/1 64/19/1
f 65/26/1 66/27/1 67/28/1 68/29/1
f 69/30/1 70/31/1 71/32/1 72/33/1
f 73/34/1 74/35/1 75/31/1 76/30/1
f 77/36/1 78/37/1 79/38/1 80/39/1
f 81/37/1 82/40/1 83/41/1 84/38/1
f 85/42/1 86/43/1 87/37/1 88/36/1
f 89/43/1 90/44/1 91/40/1 92/37/1
f 93/45/1 94/46/1 95/47/1 96/48/1
f 97/45/1 98/46/1 99/47/1 100/48/1
f 101/45/1 102/46/1 103/47/1 104/48/1
f 105/49/1 106/50/1 107/51/1 108/52/1
f 109/50/1 110/53/1 111/54/1 112/51/1
f 113/50/1 114/53/1 115/54/1 116/51/1
f 117/50/1 118/53/1 119/54/1 120/51/1
f 121/50/1 122/53/1 123/54/1 124/51/1
f 125/55/1 126/56/1 127/57/1 128/58/1
f 129/55/1 130/56/1 131/57/1 132/58/1
f 133/50/1 134/53/1 135/54/1 136/51/1
f 137/53/1 138/59/1 139/60/1 140/54/1
f 141/61/1 142/62/1 143/55/1 144/63/1
f 145/64/1 146/65/1 147/59/1 148/53/1
f 149/66/1 150/67/1 151/50/1 152/49/1
f 153/68/1 154/69/1 155/70/1 156/71/1
f 157/72/1 158/73/1 159/74/1 160/75/1
f 161/73/1 162/76/1 163/77/1 164/74/1
f 165/76/1 166/78/1 167/79/1 168/77/1
f 169/68/1 170/69/1 171/70/1 172/71/1
f 173/80/1 174/66/1 175/49/1 176/56/1
f 177/66/1 178/67/1 179/50/1 180/49/1
f 181/81/1 182/82/1 183/73/1 184/72/1
f 185/82/1 186/83/1 187/76/1 188/73/1
f 189/83/1 190/84/1 191/78/1 192/76/1
f 193/64/1 194/65/1 195/59/1 196/53/1
f 197/66/1 198/67/1 199/50/1 200/49/1
f 201/85/1 202/86/1 203/87/1 204/88/1
f 205/89/1 206/90/1 207/82/1 208/81/1
f 209/90/1 210/91/1 211/83/1 212/82/1
f 213/91/1 214/92/1 215/84/1 216/83/1
f 217/68/1 218/69/1 219/70/1 220/71/1
f 221/64/1 222/65/1 223/59/1 224/53/1
f 225/66/1 226/67/1 227/50/1 228/49/1
f 229/64/1 230/65/1 231/59/1 232/53/1
f 233/93/1 234/94/1 235/62/1 236/61/1
f 237/95/1 238/96/1 239/64/1 240/67/1
f 241/95/1 242/96/1 243/64/1 244/67/1
f 245/95/1 246/96/1 247/64/1 248/67/1
f 249/94/1 250/97/1 251/80/1 252/62/1
f 253/95/1 254/96/1 255/64/1 256/67/1
f 257/95/1 258/96/1 259/64/1 260/67/1
f 261/95/1 262/96/1 263/64/1 264/67/1
f 265/96/1 266/98/1 267/65/1 268/64/1
f 269/26/1 270/27/1 271/28/1 272/29/1

