# Tiled2Unity generated file. Do not modify by hand.
# Wavefront file for '001---Zone-1---Start-town_mesh_0011.obj'

# Vertices (Count = 16)
v 0 -5.92 0
v -0.16 -5.92 0
v -0.16 -5.76 0
v 0 -5.76 0
v -0.16 -5.92 0
v -0.32 -5.92 0
v -0.32 -5.76 0
v -0.16 -5.76 0
v 0 -6.08 0
v -0.16 -6.08 0
v -0.16 -5.92 0
v 0 -5.92 0
v -0.16 -6.08 0
v -0.32 -6.08 0
v -0.32 -5.92 0
v -0.16 -5.92 0

# Texture cooridinates (Count = 9)
vt 0.05617978 0.9189189
vt 0.06741573 0.9189189
vt 0.06741573 0.9459459
vt 0.05617978 0.9459459
vt 0.07865169 0.9189189
vt 0.07865169 0.9459459
vt 0.05617978 0.8918919
vt 0.06741573 0.8918919
vt 0.07865169 0.8918919

# Normal
vn 0 0 -1

# Mesh description
g 001---Zone-1---Start-town_mesh_0011

# Faces
f 1/1/1 2/2/1 3/3/1 4/4/1
f 5/2/1 6/5/1 7/6/1 8/3/1
f 9/7/1 10/8/1 11/2/1 12/1/1
f 13/8/1 14/9/1 15/5/1 16/2/1

