# Tiled2Unity generated file. Do not modify by hand.
# Wavefront file for '001---Zone-1---Start-town_mesh_0013.obj'

# Vertices (Count = 364)
v -4.64 -0.64 0
v -4.8 -0.64 0
v -4.8 -0.48 0
v -4.64 -0.48 0
v -4.64 -0.8 0
v -4.8 -0.8 0
v -4.8 -0.64 0
v -4.64 -0.64 0
v -3.36 -0.96 0
v -3.52 -0.96 0
v -3.52 -0.8 0
v -3.36 -0.8 0
v -3.36 -1.12 0
v -3.52 -1.12 0
v -3.52 -0.96 0
v -3.36 -0.96 0
v -5.12 -1.44 0
v -5.28 -1.44 0
v -5.28 -1.28 0
v -5.12 -1.28 0
v -5.28 -1.44 0
v -5.44 -1.44 0
v -5.44 -1.28 0
v -5.28 -1.28 0
v -5.44 -1.44 0
v -5.6 -1.44 0
v -5.6 -1.28 0
v -5.44 -1.28 0
v -5.12 -1.6 0
v -5.28 -1.6 0
v -5.28 -1.44 0
v -5.12 -1.44 0
v -5.28 -1.6 0
v -5.44 -1.6 0
v -5.44 -1.44 0
v -5.28 -1.44 0
v -5.44 -1.6 0
v -5.6 -1.6 0
v -5.6 -1.44 0
v -5.44 -1.44 0
v -2.56 -1.76 0
v -2.72 -1.76 0
v -2.72 -1.6 0
v -2.56 -1.6 0
v -2.72 -1.76 0
v -2.88 -1.76 0
v -2.88 -1.6 0
v -2.72 -1.6 0
v -2.88 -1.76 0
v -3.04 -1.76 0
v -3.04 -1.6 0
v -2.88 -1.6 0
v -3.04 -1.76 0
v -3.2 -1.76 0
v -3.2 -1.6 0
v -3.04 -1.6 0
v -2.56 -1.92 0
v -2.72 -1.92 0
v -2.72 -1.76 0
v -2.56 -1.76 0
v -2.72 -1.92 0
v -2.88 -1.92 0
v -2.88 -1.76 0
v -2.72 -1.76 0
v -2.88 -1.92 0
v -3.04 -1.92 0
v -3.04 -1.76 0
v -2.88 -1.76 0
v -3.04 -1.92 0
v -3.2 -1.92 0
v -3.2 -1.76 0
v -3.04 -1.76 0
v -8.48 -1.92 0
v -8.639999 -1.92 0
v -8.639999 -1.76 0
v -8.48 -1.76 0
v -2.08 -2.08 0
v -2.24 -2.08 0
v -2.24 -1.92 0
v -2.08 -1.92 0
v -2.24 -2.08 0
v -2.4 -2.08 0
v -2.4 -1.92 0
v -2.24 -1.92 0
v -2.4 -2.08 0
v -2.56 -2.08 0
v -2.56 -1.92 0
v -2.4 -1.92 0
v -2.56 -2.08 0
v -2.72 -2.08 0
v -2.72 -1.92 0
v -2.56 -1.92 0
v -2.72 -2.08 0
v -2.88 -2.08 0
v -2.88 -1.92 0
v -2.72 -1.92 0
v -2.88 -2.08 0
v -3.04 -2.08 0
v -3.04 -1.92 0
v -2.88 -1.92 0
v -3.04 -2.08 0
v -3.2 -2.08 0
v -3.2 -1.92 0
v -3.04 -1.92 0
v -8.48 -2.08 0
v -8.639999 -2.08 0
v -8.639999 -1.92 0
v -8.48 -1.92 0
v -1.6 -2.24 0
v -1.76 -2.24 0
v -1.76 -2.08 0
v -1.6 -2.08 0
v -1.76 -2.24 0
v -1.92 -2.24 0
v -1.92 -2.08 0
v -1.76 -2.08 0
v -2.08 -2.24 0
v -2.24 -2.24 0
v -2.24 -2.08 0
v -2.08 -2.08 0
v -2.24 -2.24 0
v -2.4 -2.24 0
v -2.4 -2.08 0
v -2.24 -2.08 0
v -2.4 -2.24 0
v -2.56 -2.24 0
v -2.56 -2.08 0
v -2.4 -2.08 0
v -2.56 -2.24 0
v -2.72 -2.24 0
v -2.72 -2.08 0
v -2.56 -2.08 0
v -2.72 -2.24 0
v -2.88 -2.24 0
v -2.88 -2.08 0
v -2.72 -2.08 0
v -2.88 -2.24 0
v -3.04 -2.24 0
v -3.04 -2.08 0
v -2.88 -2.08 0
v -3.04 -2.24 0
v -3.2 -2.24 0
v -3.2 -2.08 0
v -3.04 -2.08 0
v -1.6 -2.4 0
v -1.76 -2.4 0
v -1.76 -2.24 0
v -1.6 -2.24 0
v -1.76 -2.4 0
v -1.92 -2.4 0
v -1.92 -2.24 0
v -1.76 -2.24 0
v -2.08 -2.4 0
v -2.24 -2.4 0
v -2.24 -2.24 0
v -2.08 -2.24 0
v -2.24 -2.4 0
v -2.4 -2.4 0
v -2.4 -2.24 0
v -2.24 -2.24 0
v -2.4 -2.4 0
v -2.56 -2.4 0
v -2.56 -2.24 0
v -2.4 -2.24 0
v -2.56 -2.4 0
v -2.72 -2.4 0
v -2.72 -2.24 0
v -2.56 -2.24 0
v -2.72 -2.4 0
v -2.88 -2.4 0
v -2.88 -2.24 0
v -2.72 -2.24 0
v -2.88 -2.4 0
v -3.04 -2.4 0
v -3.04 -2.24 0
v -2.88 -2.24 0
v -3.04 -2.4 0
v -3.2 -2.4 0
v -3.2 -2.24 0
v -3.04 -2.24 0
v -1.6 -2.56 0
v -1.76 -2.56 0
v -1.76 -2.4 0
v -1.6 -2.4 0
v -1.6 -2.72 0
v -1.76 -2.72 0
v -1.76 -2.56 0
v -1.6 -2.56 0
v -8.48 -2.72 0
v -8.639999 -2.72 0
v -8.639999 -2.56 0
v -8.48 -2.56 0
v -8.48 -3.04 0
v -8.639999 -3.04 0
v -8.639999 -2.88 0
v -8.48 -2.88 0
v -2.24 -4.48 0
v -2.4 -4.48 0
v -2.4 -4.32 0
v -2.24 -4.32 0
v -2.24 -4.64 0
v -2.4 -4.64 0
v -2.4 -4.48 0
v -2.24 -4.48 0
v -4.32 -5.12 0
v -4.48 -5.12 0
v -4.48 -4.96 0
v -4.32 -4.96 0
v -4.32 -5.28 0
v -4.48 -5.28 0
v -4.48 -5.12 0
v -4.32 -5.12 0
v -7.2 -5.28 0
v -7.36 -5.28 0
v -7.36 -5.12 0
v -7.2 -5.12 0
v -7.2 -5.44 0
v -7.36 -5.44 0
v -7.36 -5.28 0
v -7.2 -5.28 0
v -7.36 -5.44 0
v -7.52 -5.44 0
v -7.52 -5.28 0
v -7.36 -5.28 0
v -7.52 -5.44 0
v -7.68 -5.44 0
v -7.68 -5.28 0
v -7.52 -5.28 0
v -7.04 -5.6 0
v -7.2 -5.6 0
v -7.2 -5.44 0
v -7.04 -5.44 0
v -7.2 -5.6 0
v -7.36 -5.6 0
v -7.36 -5.44 0
v -7.2 -5.44 0
v -7.36 -5.6 0
v -7.52 -5.6 0
v -7.52 -5.44 0
v -7.36 -5.44 0
v -7.52 -5.6 0
v -7.68 -5.6 0
v -7.68 -5.44 0
v -7.52 -5.44 0
v -7.68 -5.6 0
v -7.84 -5.6 0
v -7.84 -5.44 0
v -7.68 -5.44 0
v -7.2 -5.76 0
v -7.36 -5.76 0
v -7.36 -5.6 0
v -7.2 -5.6 0
v -7.36 -5.76 0
v -7.52 -5.76 0
v -7.52 -5.6 0
v -7.36 -5.6 0
v -7.52 -5.76 0
v -7.68 -5.76 0
v -7.68 -5.6 0
v -7.52 -5.6 0
v -7.68 -5.76 0
v -7.84 -5.76 0
v -7.84 -5.6 0
v -7.68 -5.6 0
v -7.2 -5.92 0
v -7.36 -5.92 0
v -7.36 -5.76 0
v -7.2 -5.76 0
v -7.36 -5.92 0
v -7.52 -5.92 0
v -7.52 -5.76 0
v -7.36 -5.76 0
v -7.52 -5.92 0
v -7.68 -5.92 0
v -7.68 -5.76 0
v -7.52 -5.76 0
v -7.68 -5.92 0
v -7.84 -5.92 0
v -7.84 -5.76 0
v -7.68 -5.76 0
v -8 -5.92 0
v -8.16 -5.92 0
v -8.16 -5.76 0
v -8 -5.76 0
v -8.16 -5.92 0
v -8.32 -5.92 0
v -8.32 -5.76 0
v -8.16 -5.76 0
v -7.2 -6.08 0
v -7.36 -6.08 0
v -7.36 -5.92 0
v -7.2 -5.92 0
v -7.36 -6.08 0
v -7.52 -6.08 0
v -7.52 -5.92 0
v -7.36 -5.92 0
v -7.52 -6.08 0
v -7.68 -6.08 0
v -7.68 -5.92 0
v -7.52 -5.92 0
v -7.84 -6.08 0
v -8 -6.08 0
v -8 -5.92 0
v -7.84 -5.92 0
v -8.16 -6.08 0
v -8.32 -6.08 0
v -8.32 -5.92 0
v -8.16 -5.92 0
v -5.12 -6.24 0
v -5.28 -6.24 0
v -5.28 -6.08 0
v -5.12 -6.08 0
v -5.28 -6.24 0
v -5.44 -6.24 0
v -5.44 -6.08 0
v -5.28 -6.08 0
v -5.44 -6.24 0
v -5.6 -6.24 0
v -5.6 -6.08 0
v -5.44 -6.08 0
v -3.36 -6.4 0
v -3.52 -6.4 0
v -3.52 -6.24 0
v -3.36 -6.24 0
v -3.52 -6.4 0
v -3.68 -6.4 0
v -3.68 -6.24 0
v -3.52 -6.24 0
v -3.68 -6.4 0
v -3.84 -6.4 0
v -3.84 -6.24 0
v -3.68 -6.24 0
v -3.36 -6.56 0
v -3.52 -6.56 0
v -3.52 -6.4 0
v -3.36 -6.4 0
v -3.52 -6.56 0
v -3.68 -6.56 0
v -3.68 -6.4 0
v -3.52 -6.4 0
v -3.68 -6.56 0
v -3.84 -6.56 0
v -3.84 -6.4 0
v -3.68 -6.4 0
v -3.52 -6.72 0
v -3.68 -6.72 0
v -3.68 -6.56 0
v -3.52 -6.56 0
v -4.64 -7.04 0
v -4.8 -7.04 0
v -4.8 -6.88 0
v -4.64 -6.88 0
v -4.48 -7.2 0
v -4.64 -7.2 0
v -4.64 -7.04 0
v -4.48 -7.04 0
v -4.64 -7.2 0
v -4.8 -7.2 0
v -4.8 -7.04 0
v -4.64 -7.04 0
v -9.28 -7.2 0
v -9.44 -7.2 0
v -9.44 -7.04 0
v -9.28 -7.04 0

# Texture cooridinates (Count = 129)
vt 0.337469 0.7919233
vt 0.3473946 0.7919233
vt 0.3473946 0.8028747
vt 0.337469 0.8028747
vt 0.337469 0.7809719
vt 0.3473946 0.7809719
vt 0.5657568 0.9780972
vt 0.5756824 0.9780972
vt 0.5756824 0.9890486
vt 0.5657568 0.9890486
vt 0.5856079 0.9780972
vt 0.5856079 0.9890486
vt 0.5955335 0.9780972
vt 0.5955335 0.9890486
vt 0.5657568 0.9671458
vt 0.5756824 0.9671458
vt 0.5856079 0.9671458
vt 0.5955335 0.9671458
vt 0.5955335 0.8685831
vt 0.605459 0.8685831
vt 0.605459 0.8795345
vt 0.5955335 0.8795345
vt 0.6153846 0.8685831
vt 0.6153846 0.8795345
vt 0.6253102 0.8685831
vt 0.6253102 0.8795345
vt 0.5955335 0.8576317
vt 0.605459 0.8576317
vt 0.6253102 0.8576317
vt 0.6352357 0.8576317
vt 0.6352357 0.8685831
vt 0.6153846 0.8576317
vt 0.6352357 0.8466803
vt 0.6451613 0.8466803
vt 0.6451613 0.8576317
vt 0.8337469 0.4524298
vt 0.8436725 0.4524298
vt 0.8436725 0.4633812
vt 0.8337469 0.4633812
vt 0.853598 0.4524298
vt 0.853598 0.4633812
vt 0.6451613 0.8685831
vt 0.6451613 0.8795345
vt 0.6352357 0.8795345
vt 0.6253102 0.8466803
vt 0.8337469 0.4414784
vt 0.8436725 0.4414784
vt 0.853598 0.4414784
vt 0.5955335 0.8466803
vt 0.605459 0.8466803
vt 0.6153846 0.8466803
vt 0.605459 0.4195756
vt 0.6153846 0.4195756
vt 0.6153846 0.430527
vt 0.605459 0.430527
vt 0.3771712 0.8028747
vt 0.3870968 0.8028747
vt 0.3870968 0.8138261
vt 0.3771712 0.8138261
vt 0.5955335 0.9123888
vt 0.605459 0.9123888
vt 0.605459 0.9233402
vt 0.5955335 0.9233402
vt 0.6550869 0.9123888
vt 0.6650124 0.9123888
vt 0.6650124 0.9233402
vt 0.6550869 0.9233402
vt 0.6451613 0.7590691
vt 0.6550869 0.7590691
vt 0.6550869 0.7700205
vt 0.6451613 0.7700205
vt 0.6451613 0.7481177
vt 0.6550869 0.7481177
vt 0.6848635 0.8138261
vt 0.6947891 0.8138261
vt 0.6947891 0.8247775
vt 0.6848635 0.8247775
vt 0.6650124 0.8138261
vt 0.674938 0.8138261
vt 0.674938 0.8247775
vt 0.6650124 0.8247775
vt 0.6550869 0.8138261
vt 0.6550869 0.8247775
vt 0.6550869 0.8466803
vt 0.6650124 0.8466803
vt 0.6650124 0.8576317
vt 0.6550869 0.8576317
vt 0.6550869 0.8028747
vt 0.6650124 0.8028747
vt 0.674938 0.8028747
vt 0.6848635 0.8028747
vt 0.6550869 0.7919233
vt 0.6650124 0.7919233
vt 0.674938 0.7919233
vt 0.6848635 0.7919233
vt 0.6550869 0.7809719
vt 0.6650124 0.7809719
vt 0.674938 0.7809719
vt 0.6848635 0.7809719
vt 0.3672456 0.8466803
vt 0.3771712 0.8466803
vt 0.3771712 0.8576317
vt 0.3672456 0.8576317
vt 0.6650124 0.7700205
vt 0.674938 0.7700205
vt 0.6848635 0.7700205
vt 0.7047147 0.9780972
vt 0.7146402 0.9780972
vt 0.7146402 0.9890486
vt 0.7047147 0.9890486
vt 0.3870968 0.8466803
vt 0.3970223 0.8466803
vt 0.3970223 0.8576317
vt 0.3870968 0.8576317
vt 0.3970223 0.8028747
vt 0.4069479 0.8028747
vt 0.4069479 0.8138261
vt 0.3970223 0.8138261
vt 0.853598 0.430527
vt 0.8635236 0.430527
vt 0.8635236 0.4414784
vt 0.4764268 0.8576317
vt 0.4863524 0.8576317
vt 0.4863524 0.8685831
vt 0.4764268 0.8685831
vt 0.5756824 0.9123888
vt 0.5856079 0.9123888
vt 0.5856079 0.9233402
vt 0.5756824 0.9233402

# Normal
vn 0 0 -1

# Mesh description
g 001---Zone-1---Start-town_mesh_0013

# Faces
f 1/1/1 2/2/1 3/3/1 4/4/1
f 5/5/1 6/6/1 7/2/1 8/1/1
f 9/1/1 10/2/1 11/3/1 12/4/1
f 13/5/1 14/6/1 15/2/1 16/1/1
f 17/7/1 18/8/1 19/9/1 20/10/1
f 21/8/1 22/11/1 23/12/1 24/9/1
f 25/11/1 26/13/1 27/14/1 28/12/1
f 29/15/1 30/16/1 31/8/1 32/7/1
f 33/16/1 34/17/1 35/11/1 36/8/1
f 37/17/1 38/18/1 39/13/1 40/11/1
f 41/19/1 42/20/1 43/21/1 44/22/1
f 45/20/1 46/23/1 47/24/1 48/21/1
f 49/20/1 50/23/1 51/24/1 52/21/1
f 53/23/1 54/25/1 55/26/1 56/24/1
f 57/27/1 58/28/1 59/20/1 60/19/1
f 61/29/1 62/30/1 63/31/1 64/25/1
f 65/28/1 66/32/1 67/23/1 68/20/1
f 69/32/1 70/29/1 71/25/1 72/23/1
f 73/1/1 74/2/1 75/3/1 76/4/1
f 77/19/1 78/20/1 79/21/1 80/22/1
f 81/20/1 82/23/1 83/24/1 84/21/1
f 85/20/1 86/23/1 87/24/1 88/21/1
f 89/28/1 90/32/1 91/23/1 92/20/1
f 93/28/1 94/32/1 95/23/1 96/20/1
f 97/33/1 98/34/1 99/35/1 100/30/1
f 101/32/1 102/29/1 103/25/1 104/23/1
f 105/5/1 106/6/1 107/2/1 108/1/1
f 109/36/1 110/37/1 111/38/1 112/39/1
f 113/37/1 114/40/1 115/41/1 116/38/1
f 117/27/1 118/28/1 119/20/1 120/19/1
f 121/31/1 122/42/1 123/43/1 124/44/1
f 125/28/1 126/32/1 127/23/1 128/20/1
f 129/31/1 130/42/1 131/43/1 132/44/1
f 133/45/1 134/33/1 135/30/1 136/29/1
f 137/28/1 138/32/1 139/23/1 140/20/1
f 141/32/1 142/29/1 143/25/1 144/23/1
f 145/46/1 146/47/1 147/37/1 148/36/1
f 149/47/1 150/48/1 151/40/1 152/37/1
f 153/49/1 154/50/1 155/28/1 156/27/1
f 157/50/1 158/51/1 159/32/1 160/28/1
f 161/50/1 162/51/1 163/32/1 164/28/1
f 165/50/1 166/51/1 167/32/1 168/28/1
f 169/50/1 170/51/1 171/32/1 172/28/1
f 173/50/1 174/51/1 175/32/1 176/28/1
f 177/51/1 178/45/1 179/29/1 180/32/1
f 181/52/1 182/53/1 183/54/1 184/55/1
f 185/56/1 186/57/1 187/58/1 188/59/1
f 189/60/1 190/61/1 191/62/1 192/63/1
f 193/64/1 194/65/1 195/66/1 196/67/1
f 197/1/1 198/2/1 199/3/1 200/4/1
f 201/5/1 202/6/1 203/2/1 204/1/1
f 205/68/1 206/69/1 207/70/1 208/71/1
f 209/72/1 210/73/1 211/69/1 212/68/1
f 213/74/1 214/75/1 215/76/1 216/77/1
f 217/78/1 218/79/1 219/80/1 220/81/1
f 221/82/1 222/78/1 223/81/1 224/83/1
f 225/84/1 226/85/1 227/86/1 228/87/1
f 229/82/1 230/78/1 231/81/1 232/83/1
f 233/88/1 234/89/1 235/78/1 236/82/1
f 237/89/1 238/90/1 239/79/1 240/78/1
f 241/90/1 242/91/1 243/74/1 244/79/1
f 245/74/1 246/75/1 247/76/1 248/77/1
f 249/92/1 250/93/1 251/89/1 252/88/1
f 253/93/1 254/94/1 255/90/1 256/89/1
f 257/94/1 258/95/1 259/91/1 260/90/1
f 261/78/1 262/79/1 263/80/1 264/81/1
f 265/96/1 266/97/1 267/93/1 268/92/1
f 269/97/1 270/98/1 271/94/1 272/93/1
f 273/98/1 274/99/1 275/95/1 276/94/1
f 277/82/1 278/78/1 279/81/1 280/83/1
f 281/82/1 282/78/1 283/81/1 284/83/1
f 285/100/1 286/101/1 287/102/1 288/103/1
f 289/70/1 290/104/1 291/97/1 292/96/1
f 293/104/1 294/105/1 295/98/1 296/97/1
f 297/105/1 298/106/1 299/99/1 300/98/1
f 301/107/1 302/108/1 303/109/1 304/110/1
f 305/111/1 306/112/1 307/113/1 308/114/1
f 309/115/1 310/116/1 311/117/1 312/118/1
f 313/60/1 314/61/1 315/62/1 316/63/1
f 317/119/1 318/120/1 319/121/1 320/48/1
f 321/7/1 322/8/1 323/9/1 324/10/1
f 325/8/1 326/11/1 327/12/1 328/9/1
f 329/11/1 330/13/1 331/14/1 332/12/1
f 333/15/1 334/16/1 335/8/1 336/7/1
f 337/16/1 338/17/1 339/11/1 340/8/1
f 341/17/1 342/18/1 343/13/1 344/11/1
f 345/60/1 346/61/1 347/62/1 348/63/1
f 349/122/1 350/123/1 351/124/1 352/125/1
f 353/126/1 354/127/1 355/128/1 356/129/1
f 357/127/1 358/60/1 359/63/1 360/128/1
f 361/56/1 362/57/1 363/58/1 364/59/1

