# Tiled2Unity generated file. Do not modify by hand.
# Wavefront file for '001---Zone-1---Start-town_mesh_0027.obj'

# Vertices (Count = 40)
v -7.2 -0.16 0
v -7.36 -0.16 0
v -7.36 0 0
v -7.2 0 0
v -7.36 -0.16 0
v -7.52 -0.16 0
v -7.52 0 0
v -7.36 0 0
v -7.52 -0.16 0
v -7.68 -0.16 0
v -7.68 0 0
v -7.52 0 0
v -7.68 -0.16 0
v -7.84 -0.16 0
v -7.84 0 0
v -7.68 0 0
v -7.2 -0.32 0
v -7.36 -0.32 0
v -7.36 -0.16 0
v -7.2 -0.16 0
v -7.36 -0.32 0
v -7.52 -0.32 0
v -7.52 -0.16 0
v -7.36 -0.16 0
v -7.52 -0.32 0
v -7.68 -0.32 0
v -7.68 -0.16 0
v -7.52 -0.16 0
v -7.68 -0.32 0
v -7.84 -0.32 0
v -7.84 -0.16 0
v -7.68 -0.16 0
v -6.72 -1.6 0
v -6.88 -1.6 0
v -6.88 -1.44 0
v -6.72 -1.44 0
v -6.88 -1.6 0
v -7.04 -1.6 0
v -7.04 -1.44 0
v -6.88 -1.44 0

# Texture cooridinates (Count = 21)
vt 0.7272727 0.7684211
vt 0.7454545 0.7684211
vt 0.7454545 0.7789474
vt 0.7272727 0.7789474
vt 0.7636364 0.7684211
vt 0.7636364 0.7789474
vt 0.7818182 0.7684211
vt 0.7818182 0.7789474
vt 0.8 0.7684211
vt 0.8 0.7789474
vt 0.7272727 0.7578948
vt 0.7454545 0.7578948
vt 0.7636364 0.7578948
vt 0.7818182 0.7578948
vt 0.8 0.7578948
vt 0.1454545 0.968421
vt 0.1636364 0.968421
vt 0.1636364 0.9789473
vt 0.1454545 0.9789473
vt 0.1818182 0.968421
vt 0.1818182 0.9789473

# Normal
vn 0 0 -1

# Mesh description
g 001---Zone-1---Start-town_mesh_0027

# Faces
f 1/1/1 2/2/1 3/3/1 4/4/1
f 5/2/1 6/5/1 7/6/1 8/3/1
f 9/5/1 10/7/1 11/8/1 12/6/1
f 13/7/1 14/9/1 15/10/1 16/8/1
f 17/11/1 18/12/1 19/2/1 20/1/1
f 21/12/1 22/13/1 23/5/1 24/2/1
f 25/13/1 26/14/1 27/7/1 28/5/1
f 29/14/1 30/15/1 31/9/1 32/7/1
f 33/16/1 34/17/1 35/18/1 36/19/1
f 37/17/1 38/20/1 39/21/1 40/18/1

