# Tiled2Unity generated file. Do not modify by hand.
# Wavefront file for '001---Zone-1---Start-town_mesh_0019.obj'

# Vertices (Count = 100)
v -2.24 -2.88 0
v -2.4 -2.88 0
v -2.4 -2.72 0
v -2.24 -2.72 0
v -2.4 -3.04 0
v -2.56 -3.04 0
v -2.56 -2.88 0
v -2.4 -2.88 0
v -2.56 -3.36 0
v -2.72 -3.36 0
v -2.72 -3.2 0
v -2.56 -3.2 0
v -2.72 -3.36 0
v -2.88 -3.36 0
v -2.88 -3.2 0
v -2.72 -3.2 0
v -2.56 -3.52 0
v -2.72 -3.52 0
v -2.72 -3.36 0
v -2.56 -3.36 0
v -2.24 -4.8 0
v -2.4 -4.8 0
v -2.4 -4.64 0
v -2.24 -4.64 0
v -2.4 -4.8 0
v -2.56 -4.8 0
v -2.56 -4.64 0
v -2.4 -4.64 0
v -2.56 -4.8 0
v -2.72 -4.8 0
v -2.72 -4.64 0
v -2.56 -4.64 0
v -1.6 -4.96 0
v -1.76 -4.96 0
v -1.76 -4.8 0
v -1.6 -4.8 0
v -1.76 -4.96 0
v -1.92 -4.96 0
v -1.92 -4.8 0
v -1.76 -4.8 0
v -2.08 -4.96 0
v -2.24 -4.96 0
v -2.24 -4.8 0
v -2.08 -4.8 0
v -2.24 -4.96 0
v -2.4 -4.96 0
v -2.4 -4.8 0
v -2.24 -4.8 0
v -2.4 -4.96 0
v -2.56 -4.96 0
v -2.56 -4.8 0
v -2.4 -4.8 0
v -2.56 -4.96 0
v -2.72 -4.96 0
v -2.72 -4.8 0
v -2.56 -4.8 0
v -2.08 -5.12 0
v -2.24 -5.12 0
v -2.24 -4.96 0
v -2.08 -4.96 0
v -2.24 -5.12 0
v -2.4 -5.12 0
v -2.4 -4.96 0
v -2.24 -4.96 0
v -4.8 -6.56 0
v -4.96 -6.56 0
v -4.96 -6.4 0
v -4.8 -6.4 0
v -4 -6.72 0
v -4.16 -6.72 0
v -4.16 -6.56 0
v -4 -6.56 0
v -3.84 -7.04 0
v -4 -7.04 0
v -4 -6.88 0
v -3.84 -6.88 0
v -6.72 -7.04 0
v -6.88 -7.04 0
v -6.88 -6.88 0
v -6.72 -6.88 0
v -6.56 -7.36 0
v -6.72 -7.36 0
v -6.72 -7.2 0
v -6.56 -7.2 0
v -6.88 -7.52 0
v -7.04 -7.52 0
v -7.04 -7.36 0
v -6.88 -7.36 0
v -6.4 -7.84 0
v -6.56 -7.84 0
v -6.56 -7.68 0
v -6.4 -7.68 0
v -6.56 -7.84 0
v -6.72 -7.84 0
v -6.72 -7.68 0
v -6.56 -7.68 0
v -3.04 -8.16 0
v -3.2 -8.16 0
v -3.2 -8 0
v -3.04 -8 0

# Texture cooridinates (Count = 36)
vt 0.4466501 0.7809719
vt 0.4565757 0.7809719
vt 0.4565757 0.7919233
vt 0.4466501 0.7919233
vt 0.4367246 0.7809719
vt 0.4367246 0.7919233
vt 0.4168735 0.7809719
vt 0.426799 0.7809719
vt 0.426799 0.7919233
vt 0.4168735 0.7919233
vt 0.5260546 0.7590691
vt 0.5359802 0.7590691
vt 0.5359802 0.7700205
vt 0.5260546 0.7700205
vt 0.5459057 0.7590691
vt 0.5459057 0.7700205
vt 0.5459057 0.7152635
vt 0.5558313 0.7152635
vt 0.5558313 0.7262149
vt 0.5459057 0.7262149
vt 0.4565757 0.8795345
vt 0.4665012 0.8795345
vt 0.4665012 0.890486
vt 0.4565757 0.890486
vt 0.5359802 0.7481177
vt 0.5459057 0.7481177
vt 0.5459057 0.7043121
vt 0.5558313 0.7043121
vt 0.3970223 0.8028747
vt 0.4069479 0.8028747
vt 0.4069479 0.8138261
vt 0.3970223 0.8138261
vt 0.7047147 0.9780972
vt 0.7146402 0.9780972
vt 0.7146402 0.9890486
vt 0.7047147 0.9890486

# Normal
vn 0 0 -1

# Mesh description
g 001---Zone-1---Start-town_mesh_0019

# Faces
f 1/1/1 2/2/1 3/3/1 4/4/1
f 5/5/1 6/1/1 7/4/1 8/6/1
f 9/7/1 10/8/1 11/9/1 12/10/1
f 13/8/1 14/5/1 15/6/1 16/9/1
f 17/1/1 18/2/1 19/3/1 20/4/1
f 21/11/1 22/12/1 23/13/1 24/14/1
f 25/12/1 26/15/1 27/16/1 28/13/1
f 29/12/1 30/15/1 31/16/1 32/13/1
f 33/7/1 34/8/1 35/9/1 36/10/1
f 37/8/1 38/5/1 39/6/1 40/9/1
f 41/17/1 42/18/1 43/19/1 44/20/1
f 45/21/1 46/22/1 47/23/1 48/24/1
f 49/25/1 50/26/1 51/15/1 52/12/1
f 53/25/1 54/26/1 55/15/1 56/12/1
f 57/27/1 58/28/1 59/18/1 60/17/1
f 61/29/1 62/30/1 63/31/1 64/32/1
f 65/5/1 66/1/1 67/4/1 68/6/1
f 69/33/1 70/34/1 71/35/1 72/36/1
f 73/29/1 74/30/1 75/31/1 76/32/1
f 77/1/1 78/2/1 79/3/1 80/4/1
f 81/5/1 82/1/1 83/4/1 84/6/1
f 85/29/1 86/30/1 87/31/1 88/32/1
f 89/7/1 90/8/1 91/9/1 92/10/1
f 93/8/1 94/5/1 95/6/1 96/9/1
f 97/5/1 98/1/1 99/4/1 100/6/1

