# Tiled2Unity generated file. Do not modify by hand.
# Wavefront file for '001---Zone-1---Start-town_mesh_0023.obj'

# Vertices (Count = 100)
v -3.04 -3.2 0
v -3.2 -3.2 0
v -3.2 -3.04 0
v -3.04 -3.04 0
v -3.2 -3.2 0
v -3.36 -3.2 0
v -3.36 -3.04 0
v -3.2 -3.04 0
v -3.36 -3.2 0
v -3.52 -3.2 0
v -3.52 -3.04 0
v -3.36 -3.04 0
v -3.04 -3.36 0
v -3.2 -3.36 0
v -3.2 -3.2 0
v -3.04 -3.2 0
v -3.2 -3.36 0
v -3.36 -3.36 0
v -3.36 -3.2 0
v -3.2 -3.2 0
v -3.36 -3.36 0
v -3.52 -3.36 0
v -3.52 -3.2 0
v -3.36 -3.2 0
v -3.04 -3.52 0
v -3.2 -3.52 0
v -3.2 -3.36 0
v -3.04 -3.36 0
v -3.2 -3.52 0
v -3.36 -3.52 0
v -3.36 -3.36 0
v -3.2 -3.36 0
v -3.36 -3.52 0
v -3.52 -3.52 0
v -3.52 -3.36 0
v -3.36 -3.36 0
v -6.4 -4.8 0
v -6.56 -4.8 0
v -6.56 -4.64 0
v -6.4 -4.64 0
v -6.56 -4.8 0
v -6.72 -4.8 0
v -6.72 -4.64 0
v -6.56 -4.64 0
v -6.4 -4.96 0
v -6.56 -4.96 0
v -6.56 -4.8 0
v -6.4 -4.8 0
v -6.56 -4.96 0
v -6.72 -4.96 0
v -6.72 -4.8 0
v -6.56 -4.8 0
v -6.56 -5.12 0
v -6.72 -5.12 0
v -6.72 -4.96 0
v -6.56 -4.96 0
v -6.72 -5.12 0
v -6.88 -5.12 0
v -6.88 -4.96 0
v -6.72 -4.96 0
v -6.72 -5.28 0
v -6.88 -5.28 0
v -6.88 -5.12 0
v -6.72 -5.12 0
v -6.24 -5.92 0
v -6.4 -5.92 0
v -6.4 -5.76 0
v -6.24 -5.76 0
v -6.4 -5.92 0
v -6.56 -5.92 0
v -6.56 -5.76 0
v -6.4 -5.76 0
v -6.56 -5.92 0
v -6.72 -5.92 0
v -6.72 -5.76 0
v -6.56 -5.76 0
v -6.24 -6.08 0
v -6.4 -6.08 0
v -6.4 -5.92 0
v -6.24 -5.92 0
v -6.4 -6.08 0
v -6.56 -6.08 0
v -6.56 -5.92 0
v -6.4 -5.92 0
v -6.56 -6.08 0
v -6.72 -6.08 0
v -6.72 -5.92 0
v -6.56 -5.92 0
v -6.24 -6.24 0
v -6.4 -6.24 0
v -6.4 -6.08 0
v -6.24 -6.08 0
v -6.4 -6.24 0
v -6.56 -6.24 0
v -6.56 -6.08 0
v -6.4 -6.08 0
v -6.56 -6.24 0
v -6.72 -6.24 0
v -6.72 -6.08 0
v -6.56 -6.08 0

# Texture cooridinates (Count = 49)
vt 0.3970223 0.6495551
vt 0.4069479 0.6495551
vt 0.4069479 0.6605065
vt 0.3970223 0.6605065
vt 0.4168735 0.6495551
vt 0.4168735 0.6605065
vt 0.426799 0.6495551
vt 0.426799 0.6605065
vt 0.3970223 0.6386037
vt 0.4069479 0.6386037
vt 0.4168735 0.6386037
vt 0.426799 0.6386037
vt 0.3970223 0.6276523
vt 0.4069479 0.6276523
vt 0.4168735 0.6276523
vt 0.426799 0.6276523
vt 0.5756824 0.9561944
vt 0.5856079 0.9561944
vt 0.5856079 0.9671458
vt 0.5756824 0.9671458
vt 0.5955335 0.9561944
vt 0.5955335 0.9671458
vt 0.5756824 0.945243
vt 0.5856079 0.945243
vt 0.5955335 0.945243
vt 0.4565757 0.8576317
vt 0.4665012 0.8576317
vt 0.4665012 0.8685831
vt 0.4565757 0.8685831
vt 0.6550869 0.9123888
vt 0.6650124 0.9123888
vt 0.6650124 0.9233402
vt 0.6550869 0.9233402
vt 0.6253102 0.945243
vt 0.6352357 0.945243
vt 0.6352357 0.9561944
vt 0.6253102 0.9561944
vt 0.4367246 0.6495551
vt 0.4367246 0.6605065
vt 0.4466501 0.6495551
vt 0.4466501 0.6605065
vt 0.4565757 0.6495551
vt 0.4565757 0.6605065
vt 0.4367246 0.6386037
vt 0.4466501 0.6386037
vt 0.4565757 0.6386037
vt 0.4367246 0.6276523
vt 0.4466501 0.6276523
vt 0.4565757 0.6276523

# Normal
vn 0 0 -1

# Mesh description
g 001---Zone-1---Start-town_mesh_0023

# Faces
f 1/1/1 2/2/1 3/3/1 4/4/1
f 5/2/1 6/5/1 7/6/1 8/3/1
f 9/5/1 10/7/1 11/8/1 12/6/1
f 13/9/1 14/10/1 15/2/1 16/1/1
f 17/10/1 18/11/1 19/5/1 20/2/1
f 21/11/1 22/12/1 23/7/1 24/5/1
f 25/13/1 26/14/1 27/10/1 28/9/1
f 29/14/1 30/15/1 31/11/1 32/10/1
f 33/15/1 34/16/1 35/12/1 36/11/1
f 37/17/1 38/18/1 39/19/1 40/20/1
f 41/18/1 42/21/1 43/22/1 44/19/1
f 45/23/1 46/24/1 47/18/1 48/17/1
f 49/24/1 50/25/1 51/21/1 52/18/1
f 53/26/1 54/27/1 55/28/1 56/29/1
f 57/30/1 58/31/1 59/32/1 60/33/1
f 61/34/1 62/35/1 63/36/1 64/37/1
f 65/7/1 66/38/1 67/39/1 68/8/1
f 69/38/1 70/40/1 71/41/1 72/39/1
f 73/40/1 74/42/1 75/43/1 76/41/1
f 77/12/1 78/44/1 79/38/1 80/7/1
f 81/44/1 82/45/1 83/40/1 84/38/1
f 85/45/1 86/46/1 87/42/1 88/40/1
f 89/16/1 90/47/1 91/44/1 92/12/1
f 93/47/1 94/48/1 95/45/1 96/44/1
f 97/48/1 98/49/1 99/46/1 100/45/1

