# Tiled2Unity generated file. Do not modify by hand.
# Wavefront file for '001---Zone-1---Start-town_mesh_0005.obj'

# Vertices (Count = 116)
v -2.56 -1.76 0
v -2.72 -1.76 0
v -2.72 -1.6 0
v -2.56 -1.6 0
v -2.72 -1.76 0
v -2.88 -1.76 0
v -2.88 -1.6 0
v -2.72 -1.6 0
v -2.88 -1.76 0
v -3.04 -1.76 0
v -3.04 -1.6 0
v -2.88 -1.6 0
v -3.04 -1.76 0
v -3.2 -1.76 0
v -3.2 -1.6 0
v -3.04 -1.6 0
v -2.56 -1.92 0
v -2.72 -1.92 0
v -2.72 -1.76 0
v -2.56 -1.76 0
v -2.72 -1.92 0
v -2.88 -1.92 0
v -2.88 -1.76 0
v -2.72 -1.76 0
v -2.88 -1.92 0
v -3.04 -1.92 0
v -3.04 -1.76 0
v -2.88 -1.76 0
v -3.04 -1.92 0
v -3.2 -1.92 0
v -3.2 -1.76 0
v -3.04 -1.76 0
v -2.08 -2.08 0
v -2.24 -2.08 0
v -2.24 -1.92 0
v -2.08 -1.92 0
v -2.24 -2.08 0
v -2.4 -2.08 0
v -2.4 -1.92 0
v -2.24 -1.92 0
v -2.4 -2.08 0
v -2.56 -2.08 0
v -2.56 -1.92 0
v -2.4 -1.92 0
v -2.56 -2.08 0
v -2.72 -2.08 0
v -2.72 -1.92 0
v -2.56 -1.92 0
v -2.72 -2.08 0
v -2.88 -2.08 0
v -2.88 -1.92 0
v -2.72 -1.92 0
v -2.88 -2.08 0
v -3.04 -2.08 0
v -3.04 -1.92 0
v -2.88 -1.92 0
v -3.04 -2.08 0
v -3.2 -2.08 0
v -3.2 -1.92 0
v -3.04 -1.92 0
v -2.08 -2.24 0
v -2.24 -2.24 0
v -2.24 -2.08 0
v -2.08 -2.08 0
v -2.24 -2.24 0
v -2.4 -2.24 0
v -2.4 -2.08 0
v -2.24 -2.08 0
v -2.4 -2.24 0
v -2.56 -2.24 0
v -2.56 -2.08 0
v -2.4 -2.08 0
v -2.56 -2.24 0
v -2.72 -2.24 0
v -2.72 -2.08 0
v -2.56 -2.08 0
v -2.72 -2.24 0
v -2.88 -2.24 0
v -2.88 -2.08 0
v -2.72 -2.08 0
v -2.88 -2.24 0
v -3.04 -2.24 0
v -3.04 -2.08 0
v -2.88 -2.08 0
v -3.04 -2.24 0
v -3.2 -2.24 0
v -3.2 -2.08 0
v -3.04 -2.08 0
v -2.08 -2.4 0
v -2.24 -2.4 0
v -2.24 -2.24 0
v -2.08 -2.24 0
v -2.24 -2.4 0
v -2.4 -2.4 0
v -2.4 -2.24 0
v -2.24 -2.24 0
v -2.4 -2.4 0
v -2.56 -2.4 0
v -2.56 -2.24 0
v -2.4 -2.24 0
v -2.56 -2.4 0
v -2.72 -2.4 0
v -2.72 -2.24 0
v -2.56 -2.24 0
v -2.72 -2.4 0
v -2.88 -2.4 0
v -2.88 -2.24 0
v -2.72 -2.24 0
v -2.88 -2.4 0
v -3.04 -2.4 0
v -3.04 -2.24 0
v -2.88 -2.24 0
v -3.04 -2.4 0
v -3.2 -2.4 0
v -3.2 -2.24 0
v -3.04 -2.24 0

# Texture cooridinates (Count = 20)
vt 0.3621837 0.8973761
vt 0.3834887 0.8973761
vt 0.3834887 0.9067056
vt 0.3621837 0.9067056
vt 0.4047936 0.8973761
vt 0.4047936 0.9067056
vt 0.4260985 0.8973761
vt 0.4260985 0.9067056
vt 0.3621837 0.8880466
vt 0.3834887 0.8880466
vt 0.4047936 0.8880466
vt 0.4260985 0.8880466
vt 0.3195739 0.8973761
vt 0.3408788 0.8973761
vt 0.3408788 0.9067056
vt 0.3195739 0.9067056
vt 0.3621837 0.8787172
vt 0.3834887 0.8787172
vt 0.4047936 0.8787172
vt 0.4260985 0.8787172

# Normal
vn 0 0 -1

# Mesh description
g 001---Zone-1---Start-town_mesh_0005

# Faces
f 1/1/1 2/2/1 3/3/1 4/4/1
f 5/2/1 6/5/1 7/6/1 8/3/1
f 9/2/1 10/5/1 11/6/1 12/3/1
f 13/5/1 14/7/1 15/8/1 16/6/1
f 17/9/1 18/10/1 19/2/1 20/1/1
f 21/10/1 22/11/1 23/5/1 24/2/1
f 25/10/1 26/11/1 27/5/1 28/2/1
f 29/11/1 30/12/1 31/7/1 32/5/1
f 33/1/1 34/2/1 35/3/1 36/4/1
f 37/2/1 38/5/1 39/6/1 40/3/1
f 41/2/1 42/5/1 43/6/1 44/3/1
f 45/13/1 46/14/1 47/15/1 48/16/1
f 49/10/1 50/11/1 51/5/1 52/2/1
f 53/10/1 54/11/1 55/5/1 56/2/1
f 57/11/1 58/12/1 59/7/1 60/5/1
f 61/9/1 62/10/1 63/2/1 64/1/1
f 65/10/1 66/11/1 67/5/1 68/2/1
f 69/10/1 70/11/1 71/5/1 72/2/1
f 73/10/1 74/11/1 75/5/1 76/2/1
f 77/10/1 78/11/1 79/5/1 80/2/1
f 81/10/1 82/11/1 83/5/1 84/2/1
f 85/11/1 86/12/1 87/7/1 88/5/1
f 89/17/1 90/18/1 91/10/1 92/9/1
f 93/18/1 94/19/1 95/11/1 96/10/1
f 97/18/1 98/19/1 99/11/1 100/10/1
f 101/18/1 102/19/1 103/11/1 104/10/1
f 105/18/1 106/19/1 107/11/1 108/10/1
f 109/18/1 110/19/1 111/11/1 112/10/1
f 113/19/1 114/20/1 115/12/1 116/11/1

