# Tiled2Unity generated file. Do not modify by hand.
# Wavefront file for '001---Zone-1---Start-town_mesh_0024.obj'

# Vertices (Count = 96)
v -3.68 -1.28 0
v -3.84 -1.28 0
v -3.84 -1.12 0
v -3.68 -1.12 0
v -3.84 -1.28 0
v -4 -1.28 0
v -4 -1.12 0
v -3.84 -1.12 0
v -4 -1.28 0
v -4.16 -1.28 0
v -4.16 -1.12 0
v -4 -1.12 0
v -4.16 -1.28 0
v -4.32 -1.28 0
v -4.32 -1.12 0
v -4.16 -1.12 0
v -4.32 -1.28 0
v -4.48 -1.28 0
v -4.48 -1.12 0
v -4.32 -1.12 0
v -4.48 -1.28 0
v -4.64 -1.28 0
v -4.64 -1.12 0
v -4.48 -1.12 0
v -4.64 -1.28 0
v -4.8 -1.28 0
v -4.8 -1.12 0
v -4.64 -1.12 0
v -4.8 -1.28 0
v -4.96 -1.28 0
v -4.96 -1.12 0
v -4.8 -1.12 0
v -3.68 -1.44 0
v -3.84 -1.44 0
v -3.84 -1.28 0
v -3.68 -1.28 0
v -3.84 -1.44 0
v -4 -1.44 0
v -4 -1.28 0
v -3.84 -1.28 0
v -4 -1.44 0
v -4.16 -1.44 0
v -4.16 -1.28 0
v -4 -1.28 0
v -4.16 -1.44 0
v -4.32 -1.44 0
v -4.32 -1.28 0
v -4.16 -1.28 0
v -4.32 -1.44 0
v -4.48 -1.44 0
v -4.48 -1.28 0
v -4.32 -1.28 0
v -4.48 -1.44 0
v -4.64 -1.44 0
v -4.64 -1.28 0
v -4.48 -1.28 0
v -4.64 -1.44 0
v -4.8 -1.44 0
v -4.8 -1.28 0
v -4.64 -1.28 0
v -4.8 -1.44 0
v -4.96 -1.44 0
v -4.96 -1.28 0
v -4.8 -1.28 0
v -3.68 -1.6 0
v -3.84 -1.6 0
v -3.84 -1.44 0
v -3.68 -1.44 0
v -3.84 -1.6 0
v -4 -1.6 0
v -4 -1.44 0
v -3.84 -1.44 0
v -4 -1.6 0
v -4.16 -1.6 0
v -4.16 -1.44 0
v -4 -1.44 0
v -4.16 -1.6 0
v -4.32 -1.6 0
v -4.32 -1.44 0
v -4.16 -1.44 0
v -4.32 -1.6 0
v -4.48 -1.6 0
v -4.48 -1.44 0
v -4.32 -1.44 0
v -4.48 -1.6 0
v -4.64 -1.6 0
v -4.64 -1.44 0
v -4.48 -1.44 0
v -4.64 -1.6 0
v -4.8 -1.6 0
v -4.8 -1.44 0
v -4.64 -1.44 0
v -4.8 -1.6 0
v -4.96 -1.6 0
v -4.96 -1.44 0
v -4.8 -1.44 0

# Texture cooridinates (Count = 36)
vt 0.08045977 0.915493
vt 0.09195402 0.915493
vt 0.09195402 0.9295775
vt 0.08045977 0.9295775
vt 0.1034483 0.915493
vt 0.1034483 0.9295775
vt 0.1149425 0.915493
vt 0.1149425 0.9295775
vt 0.1264368 0.915493
vt 0.1264368 0.9295775
vt 0.137931 0.915493
vt 0.137931 0.9295775
vt 0.1494253 0.915493
vt 0.1494253 0.9295775
vt 0.1609195 0.915493
vt 0.1609195 0.9295775
vt 0.1724138 0.915493
vt 0.1724138 0.9295775
vt 0.08045977 0.9014084
vt 0.09195402 0.9014084
vt 0.1034483 0.9014084
vt 0.1149425 0.9014084
vt 0.1264368 0.9014084
vt 0.137931 0.9014084
vt 0.1494253 0.9014084
vt 0.1609195 0.9014084
vt 0.1724138 0.9014084
vt 0.08045977 0.887324
vt 0.09195402 0.887324
vt 0.1034483 0.887324
vt 0.1149425 0.887324
vt 0.1264368 0.887324
vt 0.137931 0.887324
vt 0.1494253 0.887324
vt 0.1609195 0.887324
vt 0.1724138 0.887324

# Normal
vn 0 0 -1

# Mesh description
g 001---Zone-1---Start-town_mesh_0024

# Faces
f 1/1/1 2/2/1 3/3/1 4/4/1
f 5/2/1 6/5/1 7/6/1 8/3/1
f 9/5/1 10/7/1 11/8/1 12/6/1
f 13/7/1 14/9/1 15/10/1 16/8/1
f 17/9/1 18/11/1 19/12/1 20/10/1
f 21/11/1 22/13/1 23/14/1 24/12/1
f 25/13/1 26/15/1 27/16/1 28/14/1
f 29/15/1 30/17/1 31/18/1 32/16/1
f 33/19/1 34/20/1 35/2/1 36/1/1
f 37/20/1 38/21/1 39/5/1 40/2/1
f 41/21/1 42/22/1 43/7/1 44/5/1
f 45/22/1 46/23/1 47/9/1 48/7/1
f 49/23/1 50/24/1 51/11/1 52/9/1
f 53/24/1 54/25/1 55/13/1 56/11/1
f 57/25/1 58/26/1 59/15/1 60/13/1
f 61/26/1 62/27/1 63/17/1 64/15/1
f 65/28/1 66/29/1 67/20/1 68/19/1
f 69/29/1 70/30/1 71/21/1 72/20/1
f 73/30/1 74/31/1 75/22/1 76/21/1
f 77/31/1 78/32/1 79/23/1 80/22/1
f 81/32/1 82/33/1 83/24/1 84/23/1
f 85/33/1 86/34/1 87/25/1 88/24/1
f 89/34/1 90/35/1 91/26/1 92/25/1
f 93/35/1 94/36/1 95/27/1 96/26/1

