# Tiled2Unity generated file. Do not modify by hand.
# Wavefront file for '001---Zone-1---Start-town_mesh_0026.obj'

# Vertices (Count = 140)
v -7.68 -2.24 0
v -7.84 -2.24 0
v -7.84 -2.08 0
v -7.68 -2.08 0
v -7.84 -2.24 0
v -8 -2.24 0
v -8 -2.08 0
v -7.84 -2.08 0
v -8 -2.24 0
v -8.16 -2.24 0
v -8.16 -2.08 0
v -8 -2.08 0
v -8.16 -2.24 0
v -8.32 -2.24 0
v -8.32 -2.08 0
v -8.16 -2.08 0
v -7.68 -2.4 0
v -7.84 -2.4 0
v -7.84 -2.24 0
v -7.68 -2.24 0
v -7.84 -2.4 0
v -8 -2.4 0
v -8 -2.24 0
v -7.84 -2.24 0
v -8 -2.4 0
v -8.16 -2.4 0
v -8.16 -2.24 0
v -8 -2.24 0
v -8.16 -2.4 0
v -8.32 -2.4 0
v -8.32 -2.24 0
v -8.16 -2.24 0
v -2.88 -4.32 0
v -3.04 -4.32 0
v -3.04 -4.16 0
v -2.88 -4.16 0
v -3.04 -4.32 0
v -3.2 -4.32 0
v -3.2 -4.16 0
v -3.04 -4.16 0
v -3.2 -4.32 0
v -3.36 -4.32 0
v -3.36 -4.16 0
v -3.2 -4.16 0
v -3.36 -4.32 0
v -3.52 -4.32 0
v -3.52 -4.16 0
v -3.36 -4.16 0
v -3.52 -4.32 0
v -3.68 -4.32 0
v -3.68 -4.16 0
v -3.52 -4.16 0
v -2.88 -4.48 0
v -3.04 -4.48 0
v -3.04 -4.32 0
v -2.88 -4.32 0
v -3.04 -4.48 0
v -3.2 -4.48 0
v -3.2 -4.32 0
v -3.04 -4.32 0
v -3.2 -4.48 0
v -3.36 -4.48 0
v -3.36 -4.32 0
v -3.2 -4.32 0
v -3.36 -4.48 0
v -3.52 -4.48 0
v -3.52 -4.32 0
v -3.36 -4.32 0
v -3.52 -4.48 0
v -3.68 -4.48 0
v -3.68 -4.32 0
v -3.52 -4.32 0
v -4.48 -4.48 0
v -4.64 -4.48 0
v -4.64 -4.32 0
v -4.48 -4.32 0
v -4.64 -4.48 0
v -4.8 -4.48 0
v -4.8 -4.32 0
v -4.64 -4.32 0
v -4.8 -4.48 0
v -4.96 -4.48 0
v -4.96 -4.32 0
v -4.8 -4.32 0
v -4.96 -4.48 0
v -5.12 -4.48 0
v -5.12 -4.32 0
v -4.96 -4.32 0
v -2.88 -4.64 0
v -3.04 -4.64 0
v -3.04 -4.48 0
v -2.88 -4.48 0
v -3.04 -4.64 0
v -3.2 -4.64 0
v -3.2 -4.48 0
v -3.04 -4.48 0
v -3.2 -4.64 0
v -3.36 -4.64 0
v -3.36 -4.48 0
v -3.2 -4.48 0
v -3.36 -4.64 0
v -3.52 -4.64 0
v -3.52 -4.48 0
v -3.36 -4.48 0
v -3.52 -4.64 0
v -3.68 -4.64 0
v -3.68 -4.48 0
v -3.52 -4.48 0
v -4.48 -4.64 0
v -4.64 -4.64 0
v -4.64 -4.48 0
v -4.48 -4.48 0
v -4.64 -4.64 0
v -4.8 -4.64 0
v -4.8 -4.48 0
v -4.64 -4.48 0
v -4.8 -4.64 0
v -4.96 -4.64 0
v -4.96 -4.48 0
v -4.8 -4.48 0
v -4.96 -4.64 0
v -5.12 -4.64 0
v -5.12 -4.48 0
v -4.96 -4.48 0
v -4.48 -4.8 0
v -4.64 -4.8 0
v -4.64 -4.64 0
v -4.48 -4.64 0
v -4.64 -4.8 0
v -4.8 -4.8 0
v -4.8 -4.64 0
v -4.64 -4.64 0
v -4.8 -4.8 0
v -4.96 -4.8 0
v -4.96 -4.64 0
v -4.8 -4.64 0
v -4.96 -4.8 0
v -5.12 -4.8 0
v -5.12 -4.64 0
v -4.96 -4.64 0

# Texture cooridinates (Count = 59)
vt 0.5185185 0.9651163
vt 0.5308642 0.9651163
vt 0.5308642 0.9767442
vt 0.5185185 0.9767442
vt 0.5432099 0.9651163
vt 0.5432099 0.9767442
vt 0.5555556 0.9651163
vt 0.5555556 0.9767442
vt 0.5679013 0.9651163
vt 0.5679013 0.9767442
vt 0.5185185 0.9534883
vt 0.5308642 0.9534883
vt 0.5432099 0.9534883
vt 0.5555556 0.9534883
vt 0.5679013 0.9534883
vt 0.3209876 0.9883721
vt 0.3333333 0.9883721
vt 0.3333333 1
vt 0.3209876 1
vt 0.345679 0.9883721
vt 0.345679 1
vt 0.3580247 0.9883721
vt 0.3580247 1
vt 0.3703704 0.9883721
vt 0.3703704 1
vt 0.3827161 0.9883721
vt 0.3827161 1
vt 0.3209876 0.9767442
vt 0.3333333 0.9767442
vt 0.345679 0.9767442
vt 0.3580247 0.9767442
vt 0.3703704 0.9767442
vt 0.3827161 0.9767442
vt 0.3950617 0.9767442
vt 0.4074074 0.9767442
vt 0.4074074 0.9883721
vt 0.3950617 0.9883721
vt 0.4197531 0.9767442
vt 0.4197531 0.9883721
vt 0.4320988 0.9767442
vt 0.4320988 0.9883721
vt 0.4444444 0.9767442
vt 0.4444444 0.9883721
vt 0.3209876 0.9651163
vt 0.3333333 0.9651163
vt 0.345679 0.9651163
vt 0.3580247 0.9651163
vt 0.3703704 0.9651163
vt 0.3827161 0.9651163
vt 0.3950617 0.9651163
vt 0.4074074 0.9651163
vt 0.4197531 0.9651163
vt 0.4320988 0.9651163
vt 0.4444444 0.9651163
vt 0.3950617 0.9534883
vt 0.4074074 0.9534883
vt 0.4197531 0.9534883
vt 0.4320988 0.9534883
vt 0.4444444 0.9534883

# Normal
vn 0 0 -1

# Mesh description
g 001---Zone-1---Start-town_mesh_0026

# Faces
f 1/1/1 2/2/1 3/3/1 4/4/1
f 5/2/1 6/5/1 7/6/1 8/3/1
f 9/5/1 10/7/1 11/8/1 12/6/1
f 13/7/1 14/9/1 15/10/1 16/8/1
f 17/11/1 18/12/1 19/2/1 20/1/1
f 21/12/1 22/13/1 23/5/1 24/2/1
f 25/13/1 26/14/1 27/7/1 28/5/1
f 29/14/1 30/15/1 31/9/1 32/7/1
f 33/16/1 34/17/1 35/18/1 36/19/1
f 37/17/1 38/20/1 39/21/1 40/18/1
f 41/20/1 42/22/1 43/23/1 44/21/1
f 45/22/1 46/24/1 47/25/1 48/23/1
f 49/24/1 50/26/1 51/27/1 52/25/1
f 53/28/1 54/29/1 55/17/1 56/16/1
f 57/29/1 58/30/1 59/20/1 60/17/1
f 61/30/1 62/31/1 63/22/1 64/20/1
f 65/31/1 66/32/1 67/24/1 68/22/1
f 69/32/1 70/33/1 71/26/1 72/24/1
f 73/34/1 74/35/1 75/36/1 76/37/1
f 77/35/1 78/38/1 79/39/1 80/36/1
f 81/38/1 82/40/1 83/41/1 84/39/1
f 85/40/1 86/42/1 87/43/1 88/41/1
f 89/44/1 90/45/1 91/29/1 92/28/1
f 93/45/1 94/46/1 95/30/1 96/29/1
f 97/46/1 98/47/1 99/31/1 100/30/1
f 101/47/1 102/48/1 103/32/1 104/31/1
f 105/48/1 106/49/1 107/33/1 108/32/1
f 109/50/1 110/51/1 111/35/1 112/34/1
f 113/51/1 114/52/1 115/38/1 116/35/1
f 117/52/1 118/53/1 119/40/1 120/38/1
f 121/53/1 122/54/1 123/42/1 124/40/1
f 125/55/1 126/56/1 127/51/1 128/50/1
f 129/56/1 130/57/1 131/52/1 132/51/1
f 133/57/1 134/58/1 135/53/1 136/52/1
f 137/58/1 138/59/1 139/54/1 140/53/1

