# Tiled2Unity generated file. Do not modify by hand.
# Wavefront file for '002---Zone-1---Path-1_mesh_0012.obj'

# Vertices (Count = 136)
v -752 -112 0
v -768 -112 0
v -768 -96 0
v -752 -96 0
v -288 -128 0
v -304 -128 0
v -304 -112 0
v -288 -112 0
v -464 -128 0
v -480 -128 0
v -480 -112 0
v -464 -112 0
v -752 -128 0
v -768 -128 0
v -768 -112 0
v -752 -112 0
v -288 -144 0
v -304 -144 0
v -304 -128 0
v -288 -128 0
v -464 -144 0
v -480 -144 0
v -480 -128 0
v -464 -128 0
v -752 -144 0
v -768 -144 0
v -768 -128 0
v -752 -128 0
v -128 -240 0
v -144 -240 0
v -144 -224 0
v -128 -224 0
v -128 -256 0
v -144 -256 0
v -144 -240 0
v -128 -240 0
v -128 -272 0
v -144 -272 0
v -144 -256 0
v -128 -256 0
v -656 -336 0
v -672 -336 0
v -672 -320 0
v -656 -320 0
v -800 -336 0
v -816 -336 0
v -816 -320 0
v -800 -320 0
v -816 -336 0
v -832 -336 0
v -832 -320 0
v -816 -320 0
v -656 -352 0
v -672 -352 0
v -672 -336 0
v -656 -336 0
v -800 -352 0
v -816 -352 0
v -816 -336 0
v -800 -336 0
v -816 -352 0
v -832 -352 0
v -832 -336 0
v -816 -336 0
v -656 -368 0
v -672 -368 0
v -672 -352 0
v -656 -352 0
v -800 -368 0
v -816 -368 0
v -816 -352 0
v -800 -352 0
v -816 -368 0
v -832 -368 0
v -832 -352 0
v -816 -352 0
v -592 -544 0
v -608 -544 0
v -608 -528 0
v -592 -528 0
v -256 -560 0
v -272 -560 0
v -272 -544 0
v -256 -544 0
v -592 -560 0
v -608 -560 0
v -608 -544 0
v -592 -544 0
v -256 -576 0
v -272 -576 0
v -272 -560 0
v -256 -560 0
v -528 -576 0
v -544 -576 0
v -544 -560 0
v -528 -560 0
v -592 -576 0
v -608 -576 0
v -608 -560 0
v -592 -560 0
v -256 -592 0
v -272 -592 0
v -272 -576 0
v -256 -576 0
v -528 -592 0
v -544 -592 0
v -544 -576 0
v -528 -576 0
v -528 -608 0
v -544 -608 0
v -544 -592 0
v -528 -592 0
v -144 -656 0
v -160 -656 0
v -160 -640 0
v -144 -640 0
v -144 -672 0
v -160 -672 0
v -160 -656 0
v -144 -656 0
v -336 -736 0
v -352 -736 0
v -352 -720 0
v -336 -720 0
v -352 -736 0
v -368 -736 0
v -368 -720 0
v -352 -720 0
v -336 -752 0
v -352 -752 0
v -352 -736 0
v -336 -736 0
v -352 -752 0
v -368 -752 0
v -368 -736 0
v -352 -736 0

# Texture cooridinates (Count = 21)
vt 0.4831461 0.972973
vt 0.494382 0.972973
vt 0.494382 1
vt 0.4831461 1
vt 0.4831461 0.8918919
vt 0.494382 0.8918919
vt 0.494382 0.9189189
vt 0.4831461 0.9189189
vt 0.4831461 0.9459459
vt 0.494382 0.9459459
vt 0.4831461 0.8648649
vt 0.494382 0.8648649
vt 0.5393258 0.8918919
vt 0.5505618 0.8918919
vt 0.5505618 0.9189189
vt 0.5393258 0.9189189
vt 0.5393258 0.8648649
vt 0.5505618 0.8648649
vt 0.505618 0.9459459
vt 0.505618 0.972973
vt 0.505618 0.9189189

# Normal
vn 0 0 -1

# Mesh description
g 002---Zone-1---Path-1_mesh_0012

# Faces
f 1/1/1 2/2/1 3/3/1 4/4/1
f 5/5/1 6/6/1 7/7/1 8/8/1
f 9/5/1 10/6/1 11/7/1 12/8/1
f 13/9/1 14/10/1 15/2/1 16/1/1
f 17/11/1 18/12/1 19/6/1 20/5/1
f 21/11/1 22/12/1 23/6/1 24/5/1
f 25/8/1 26/7/1 27/10/1 28/9/1
f 29/1/1 30/2/1 31/3/1 32/4/1
f 33/9/1 34/10/1 35/2/1 36/1/1
f 37/8/1 38/7/1 39/10/1 40/9/1
f 41/1/1 42/2/1 43/3/1 44/4/1
f 45/1/1 46/2/1 47/3/1 48/4/1
f 49/1/1 50/2/1 51/3/1 52/4/1
f 53/9/1 54/10/1 55/2/1 56/1/1
f 57/9/1 58/10/1 59/2/1 60/1/1
f 61/9/1 62/10/1 63/2/1 64/1/1
f 65/8/1 66/7/1 67/10/1 68/9/1
f 69/8/1 70/7/1 71/10/1 72/9/1
f 73/8/1 74/7/1 75/10/1 76/9/1
f 77/1/1 78/2/1 79/3/1 80/4/1
f 81/1/1 82/2/1 83/3/1 84/4/1
f 85/9/1 86/10/1 87/2/1 88/1/1
f 89/9/1 90/10/1 91/2/1 92/1/1
f 93/1/1 94/2/1 95/3/1 96/4/1
f 97/8/1 98/7/1 99/10/1 100/9/1
f 101/8/1 102/7/1 103/10/1 104/9/1
f 105/9/1 106/10/1 107/2/1 108/1/1
f 109/8/1 110/7/1 111/10/1 112/9/1
f 113/13/1 114/14/1 115/15/1 116/16/1
f 117/17/1 118/18/1 119/14/1 120/13/1
f 121/10/1 122/19/1 123/20/1 124/2/1
f 125/10/1 126/19/1 127/20/1 128/2/1
f 129/7/1 130/21/1 131/19/1 132/10/1
f 133/7/1 134/21/1 135/19/1 136/10/1

