# Tiled2Unity generated file. Do not modify by hand.
# Wavefront file for '002---Zone-1---Path-1_mesh_0009.obj'

# Vertices (Count = 308)
v -688 -16 0
v -704 -16 0
v -704 0 0
v -688 0 0
v -608 -32 0
v -624 -32 0
v -624 -16 0
v -608 -16 0
v -608 -48 0
v -624 -48 0
v -624 -32 0
v -608 -32 0
v -688 -48 0
v -704 -48 0
v -704 -32 0
v -688 -32 0
v -688 -80 0
v -704 -80 0
v -704 -64 0
v -688 -64 0
v -304 -144 0
v -320 -144 0
v -320 -128 0
v -304 -128 0
v -368 -144 0
v -384 -144 0
v -384 -128 0
v -368 -128 0
v -384 -144 0
v -400 -144 0
v -400 -128 0
v -384 -128 0
v -448 -144 0
v -464 -144 0
v -464 -128 0
v -448 -128 0
v -576 -144 0
v -592 -144 0
v -592 -128 0
v -576 -128 0
v -704 -144 0
v -720 -144 0
v -720 -128 0
v -704 -128 0
v -400 -160 0
v -416 -160 0
v -416 -144 0
v -400 -144 0
v -416 -160 0
v -432 -160 0
v -432 -144 0
v -416 -144 0
v -592 -160 0
v -608 -160 0
v -608 -144 0
v -592 -144 0
v -256 -176 0
v -272 -176 0
v -272 -160 0
v -256 -160 0
v -352 -176 0
v -368 -176 0
v -368 -160 0
v -352 -160 0
v -432 -176 0
v -448 -176 0
v -448 -160 0
v -432 -160 0
v -448 -176 0
v -464 -176 0
v -464 -160 0
v -448 -160 0
v -496 -176 0
v -512 -176 0
v -512 -160 0
v -496 -160 0
v -496 -192 0
v -512 -192 0
v -512 -176 0
v -496 -176 0
v -752 -192 0
v -768 -192 0
v -768 -176 0
v -752 -176 0
v -416 -224 0
v -432 -224 0
v -432 -208 0
v -416 -208 0
v -240 -240 0
v -256 -240 0
v -256 -224 0
v -240 -224 0
v -368 -240 0
v -384 -240 0
v -384 -224 0
v -368 -224 0
v -752 -240 0
v -768 -240 0
v -768 -224 0
v -752 -224 0
v -352 -256 0
v -368 -256 0
v -368 -240 0
v -352 -240 0
v -208 -272 0
v -224 -272 0
v -224 -256 0
v -208 -256 0
v -784 -272 0
v -800 -272 0
v -800 -256 0
v -784 -256 0
v -800 -272 0
v -816 -272 0
v -816 -256 0
v -800 -256 0
v -816 -272 0
v -832 -272 0
v -832 -256 0
v -816 -256 0
v -480 -304 0
v -496 -304 0
v -496 -288 0
v -480 -288 0
v -240 -320 0
v -256 -320 0
v -256 -304 0
v -240 -304 0
v -480 -320 0
v -496 -320 0
v -496 -304 0
v -480 -304 0
v -544 -320 0
v -560 -320 0
v -560 -304 0
v -544 -304 0
v -144 -352 0
v -160 -352 0
v -160 -336 0
v -144 -336 0
v -560 -352 0
v -576 -352 0
v -576 -336 0
v -560 -336 0
v -208 -368 0
v -224 -368 0
v -224 -352 0
v -208 -352 0
v -528 -384 0
v -544 -384 0
v -544 -368 0
v -528 -368 0
v -128 -400 0
v -144 -400 0
v -144 -384 0
v -128 -384 0
v -144 -400 0
v -160 -400 0
v -160 -384 0
v -144 -384 0
v -416 -400 0
v -432 -400 0
v -432 -384 0
v -416 -384 0
v -672 -400 0
v -688 -400 0
v -688 -384 0
v -672 -384 0
v -688 -400 0
v -704 -400 0
v -704 -384 0
v -688 -384 0
v -480 -432 0
v -496 -432 0
v -496 -416 0
v -480 -416 0
v -400 -448 0
v -416 -448 0
v -416 -432 0
v -400 -432 0
v -384 -464 0
v -400 -464 0
v -400 -448 0
v -384 -448 0
v -736 -464 0
v -752 -464 0
v -752 -448 0
v -736 -448 0
v -656 -496 0
v -672 -496 0
v -672 -480 0
v -656 -480 0
v -736 -496 0
v -752 -496 0
v -752 -480 0
v -736 -480 0
v -416 -512 0
v -432 -512 0
v -432 -496 0
v -416 -496 0
v -512 -544 0
v -528 -544 0
v -528 -528 0
v -512 -528 0
v -592 -544 0
v -608 -544 0
v -608 -528 0
v -592 -528 0
v -352 -592 0
v -368 -592 0
v -368 -576 0
v -352 -576 0
v -512 -592 0
v -528 -592 0
v -528 -576 0
v -512 -576 0
v -256 -608 0
v -272 -608 0
v -272 -592 0
v -256 -592 0
v -704 -608 0
v -720 -608 0
v -720 -592 0
v -704 -592 0
v -640 -624 0
v -656 -624 0
v -656 -608 0
v -640 -608 0
v -736 -624 0
v -752 -624 0
v -752 -608 0
v -736 -608 0
v -784 -624 0
v -800 -624 0
v -800 -608 0
v -784 -608 0
v -816 -624 0
v -832 -624 0
v -832 -608 0
v -816 -608 0
v -672 -640 0
v -688 -640 0
v -688 -624 0
v -672 -624 0
v -176 -656 0
v -192 -656 0
v -192 -640 0
v -176 -640 0
v -784 -672 0
v -800 -672 0
v -800 -656 0
v -784 -656 0
v -384 -720 0
v -400 -720 0
v -400 -704 0
v -384 -704 0
v -544 -736 0
v -560 -736 0
v -560 -720 0
v -544 -720 0
v -688 -736 0
v -704 -736 0
v -704 -720 0
v -688 -720 0
v -416 -752 0
v -432 -752 0
v -432 -736 0
v -416 -736 0
v -288 -768 0
v -304 -768 0
v -304 -752 0
v -288 -752 0
v -560 -784 0
v -576 -784 0
v -576 -768 0
v -560 -768 0
v -560 -800 0
v -576 -800 0
v -576 -784 0
v -560 -784 0
v -176 -816 0
v -192 -816 0
v -192 -800 0
v -176 -800 0
v -544 -816 0
v -560 -816 0
v -560 -800 0
v -544 -800 0
v -560 -816 0
v -576 -816 0
v -576 -800 0
v -560 -800 0
v -368 -864 0
v -384 -864 0
v -384 -848 0
v -368 -848 0
v -288 -896 0
v -304 -896 0
v -304 -880 0
v -288 -880 0
v -288 -912 0
v -304 -912 0
v -304 -896 0
v -288 -896 0
v -368 -944 0
v -384 -944 0
v -384 -928 0
v -368 -928 0

# Texture cooridinates (Count = 15)
vt 0.1704394 0.9813411
vt 0.1917443 0.9813411
vt 0.1917443 0.9906706
vt 0.1704394 0.9906706
vt 0.06391478 0.9533527
vt 0.0852197 0.9533527
vt 0.0852197 0.9626822
vt 0.06391478 0.9626822
vt 0.1065246 0.9626822
vt 0.1065246 0.9720117
vt 0.0852197 0.9720117
vt 0.02130493 0.9533527
vt 0.04260985 0.9533527
vt 0.04260985 0.9626822
vt 0.02130493 0.9626822

# Normal
vn 0 0 -1

# Mesh description
g 002---Zone-1---Path-1_mesh_0009

# Faces
f 1/1/1 2/2/1 3/3/1 4/4/1
f 5/5/1 6/6/1 7/7/1 8/8/1
f 9/1/1 10/2/1 11/3/1 12/4/1
f 13/7/1 14/9/1 15/10/1 16/11/1
f 17/7/1 18/9/1 19/10/1 20/11/1
f 21/5/1 22/6/1 23/7/1 24/8/1
f 25/7/1 26/9/1 27/10/1 28/11/1
f 29/5/1 30/6/1 31/7/1 32/8/1
f 33/7/1 34/9/1 35/10/1 36/11/1
f 37/5/1 38/6/1 39/7/1 40/8/1
f 41/5/1 42/6/1 43/7/1 44/8/1
f 45/5/1 46/6/1 47/7/1 48/8/1
f 49/7/1 50/9/1 51/10/1 52/11/1
f 53/1/1 54/2/1 55/3/1 56/4/1
f 57/7/1 58/9/1 59/10/1 60/11/1
f 61/5/1 62/6/1 63/7/1 64/8/1
f 65/7/1 66/9/1 67/10/1 68/11/1
f 69/5/1 70/6/1 71/7/1 72/8/1
f 73/7/1 74/9/1 75/10/1 76/11/1
f 77/1/1 78/2/1 79/3/1 80/4/1
f 81/5/1 82/6/1 83/7/1 84/8/1
f 85/7/1 86/9/1 87/10/1 88/11/1
f 89/1/1 90/2/1 91/3/1 92/4/1
f 93/5/1 94/6/1 95/7/1 96/8/1
f 97/1/1 98/2/1 99/3/1 100/4/1
f 101/7/1 102/9/1 103/10/1 104/11/1
f 105/7/1 106/9/1 107/10/1 108/11/1
f 109/1/1 110/2/1 111/3/1 112/4/1
f 113/7/1 114/9/1 115/10/1 116/11/1
f 117/7/1 118/9/1 119/10/1 120/11/1
f 121/7/1 122/9/1 123/10/1 124/11/1
f 125/7/1 126/9/1 127/10/1 128/11/1
f 129/1/1 130/2/1 131/3/1 132/4/1
f 133/1/1 134/2/1 135/3/1 136/4/1
f 137/5/1 138/6/1 139/7/1 140/8/1
f 141/5/1 142/6/1 143/7/1 144/8/1
f 145/1/1 146/2/1 147/3/1 148/4/1
f 149/7/1 150/9/1 151/10/1 152/11/1
f 153/5/1 154/6/1 155/7/1 156/8/1
f 157/1/1 158/2/1 159/3/1 160/4/1
f 161/1/1 162/2/1 163/3/1 164/4/1
f 165/5/1 166/6/1 167/7/1 168/8/1
f 169/7/1 170/9/1 171/10/1 172/11/1
f 173/5/1 174/6/1 175/7/1 176/8/1
f 177/7/1 178/9/1 179/10/1 180/11/1
f 181/7/1 182/9/1 183/10/1 184/11/1
f 185/5/1 186/6/1 187/7/1 188/8/1
f 189/7/1 190/9/1 191/10/1 192/11/1
f 193/5/1 194/6/1 195/7/1 196/8/1
f 197/1/1 198/2/1 199/3/1 200/4/1
f 201/5/1 202/6/1 203/7/1 204/8/1
f 205/1/1 206/2/1 207/3/1 208/4/1
f 209/5/1 210/6/1 211/7/1 212/8/1
f 213/1/1 214/2/1 215/3/1 216/4/1
f 217/1/1 218/2/1 219/3/1 220/4/1
f 221/7/1 222/9/1 223/10/1 224/11/1
f 225/5/1 226/6/1 227/7/1 228/8/1
f 229/7/1 230/9/1 231/10/1 232/11/1
f 233/12/1 234/13/1 235/14/1 236/15/1
f 237/1/1 238/2/1 239/3/1 240/4/1
f 241/5/1 242/6/1 243/7/1 244/8/1
f 245/5/1 246/6/1 247/7/1 248/8/1
f 249/1/1 250/2/1 251/3/1 252/4/1
f 253/5/1 254/6/1 255/7/1 256/8/1
f 257/5/1 258/6/1 259/7/1 260/8/1
f 261/1/1 262/2/1 263/3/1 264/4/1
f 265/7/1 266/9/1 267/10/1 268/11/1
f 269/1/1 270/2/1 271/3/1 272/4/1
f 273/12/1 274/13/1 275/14/1 276/15/1
f 277/7/1 278/9/1 279/10/1 280/11/1
f 281/5/1 282/6/1 283/7/1 284/8/1
f 285/7/1 286/9/1 287/10/1 288/11/1
f 289/1/1 290/2/1 291/3/1 292/4/1
f 293/1/1 294/2/1 295/3/1 296/4/1
f 297/7/1 298/9/1 299/10/1 300/11/1
f 301/7/1 302/9/1 303/10/1 304/11/1
f 305/5/1 306/6/1 307/7/1 308/8/1

