# Tiled2Unity generated file. Do not modify by hand.
# Wavefront file for '002---Zone-1---Path-1_mesh_0004.obj'

# Vertices (Count = 788)
v -624 -16 0
v -640 -16 0
v -640 0 0
v -624 0 0
v -640 -16 0
v -656 -16 0
v -656 0 0
v -640 0 0
v -656 -16 0
v -672 -16 0
v -672 0 0
v -656 0 0
v -672 -16 0
v -688 -16 0
v -688 0 0
v -672 0 0
v -624 -32 0
v -640 -32 0
v -640 -16 0
v -624 -16 0
v -640 -32 0
v -656 -32 0
v -656 -16 0
v -640 -16 0
v -656 -32 0
v -672 -32 0
v -672 -16 0
v -656 -16 0
v -672 -32 0
v -688 -32 0
v -688 -16 0
v -672 -16 0
v -624 -48 0
v -640 -48 0
v -640 -32 0
v -624 -32 0
v -640 -48 0
v -656 -48 0
v -656 -32 0
v -640 -32 0
v -656 -48 0
v -672 -48 0
v -672 -32 0
v -656 -32 0
v -672 -48 0
v -688 -48 0
v -688 -32 0
v -672 -32 0
v -624 -64 0
v -640 -64 0
v -640 -48 0
v -624 -48 0
v -640 -64 0
v -656 -64 0
v -656 -48 0
v -640 -48 0
v -656 -64 0
v -672 -64 0
v -672 -48 0
v -656 -48 0
v -672 -64 0
v -688 -64 0
v -688 -48 0
v -672 -48 0
v -624 -80 0
v -640 -80 0
v -640 -64 0
v -624 -64 0
v -640 -80 0
v -656 -80 0
v -656 -64 0
v -640 -64 0
v -656 -80 0
v -672 -80 0
v -672 -64 0
v -656 -64 0
v -672 -80 0
v -688 -80 0
v -688 -64 0
v -672 -64 0
v -624 -96 0
v -640 -96 0
v -640 -80 0
v -624 -80 0
v -640 -96 0
v -656 -96 0
v -656 -80 0
v -640 -80 0
v -656 -96 0
v -672 -96 0
v -672 -80 0
v -656 -80 0
v -672 -96 0
v -688 -96 0
v -688 -80 0
v -672 -80 0
v -624 -112 0
v -640 -112 0
v -640 -96 0
v -624 -96 0
v -640 -112 0
v -656 -112 0
v -656 -96 0
v -640 -96 0
v -656 -112 0
v -672 -112 0
v -672 -96 0
v -656 -96 0
v -672 -112 0
v -688 -112 0
v -688 -96 0
v -672 -96 0
v -624 -128 0
v -640 -128 0
v -640 -112 0
v -624 -112 0
v -640 -128 0
v -656 -128 0
v -656 -112 0
v -640 -112 0
v -656 -128 0
v -672 -128 0
v -672 -112 0
v -656 -112 0
v -672 -128 0
v -688 -128 0
v -688 -112 0
v -672 -112 0
v -608 -144 0
v -624 -144 0
v -624 -128 0
v -608 -128 0
v -624 -144 0
v -640 -144 0
v -640 -128 0
v -624 -128 0
v -640 -144 0
v -656 -144 0
v -656 -128 0
v -640 -128 0
v -656 -144 0
v -672 -144 0
v -672 -128 0
v -656 -128 0
v -672 -144 0
v -688 -144 0
v -688 -128 0
v -672 -128 0
v -608 -160 0
v -624 -160 0
v -624 -144 0
v -608 -144 0
v -624 -160 0
v -640 -160 0
v -640 -144 0
v -624 -144 0
v -640 -160 0
v -656 -160 0
v -656 -144 0
v -640 -144 0
v -656 -160 0
v -672 -160 0
v -672 -144 0
v -656 -144 0
v -672 -160 0
v -688 -160 0
v -688 -144 0
v -672 -144 0
v -592 -176 0
v -608 -176 0
v -608 -160 0
v -592 -160 0
v -608 -176 0
v -624 -176 0
v -624 -160 0
v -608 -160 0
v -624 -176 0
v -640 -176 0
v -640 -160 0
v -624 -160 0
v -640 -176 0
v -656 -176 0
v -656 -160 0
v -640 -160 0
v -656 -176 0
v -672 -176 0
v -672 -160 0
v -656 -160 0
v -672 -176 0
v -688 -176 0
v -688 -160 0
v -672 -160 0
v -592 -192 0
v -608 -192 0
v -608 -176 0
v -592 -176 0
v -608 -192 0
v -624 -192 0
v -624 -176 0
v -608 -176 0
v -624 -192 0
v -640 -192 0
v -640 -176 0
v -624 -176 0
v -640 -192 0
v -656 -192 0
v -656 -176 0
v -640 -176 0
v -656 -192 0
v -672 -192 0
v -672 -176 0
v -656 -176 0
v -592 -208 0
v -608 -208 0
v -608 -192 0
v -592 -192 0
v -608 -208 0
v -624 -208 0
v -624 -192 0
v -608 -192 0
v -624 -208 0
v -640 -208 0
v -640 -192 0
v -624 -192 0
v -640 -208 0
v -656 -208 0
v -656 -192 0
v -640 -192 0
v -656 -208 0
v -672 -208 0
v -672 -192 0
v -656 -192 0
v -592 -224 0
v -608 -224 0
v -608 -208 0
v -592 -208 0
v -608 -224 0
v -624 -224 0
v -624 -208 0
v -608 -208 0
v -624 -224 0
v -640 -224 0
v -640 -208 0
v -624 -208 0
v -640 -224 0
v -656 -224 0
v -656 -208 0
v -640 -208 0
v -592 -400 0
v -608 -400 0
v -608 -384 0
v -592 -384 0
v -608 -400 0
v -624 -400 0
v -624 -384 0
v -608 -384 0
v -624 -400 0
v -640 -400 0
v -640 -384 0
v -624 -384 0
v -544 -416 0
v -560 -416 0
v -560 -400 0
v -544 -400 0
v -560 -416 0
v -576 -416 0
v -576 -400 0
v -560 -400 0
v -576 -416 0
v -592 -416 0
v -592 -400 0
v -576 -400 0
v -592 -416 0
v -608 -416 0
v -608 -400 0
v -592 -400 0
v -608 -416 0
v -624 -416 0
v -624 -400 0
v -608 -400 0
v -624 -416 0
v -640 -416 0
v -640 -400 0
v -624 -400 0
v -640 -416 0
v -656 -416 0
v -656 -400 0
v -640 -400 0
v -544 -432 0
v -560 -432 0
v -560 -416 0
v -544 -416 0
v -560 -432 0
v -576 -432 0
v -576 -416 0
v -560 -416 0
v -576 -432 0
v -592 -432 0
v -592 -416 0
v -576 -416 0
v -592 -432 0
v -608 -432 0
v -608 -416 0
v -592 -416 0
v -608 -432 0
v -624 -432 0
v -624 -416 0
v -608 -416 0
v -624 -432 0
v -640 -432 0
v -640 -416 0
v -624 -416 0
v -640 -432 0
v -656 -432 0
v -656 -416 0
v -640 -416 0
v -480 -448 0
v -496 -448 0
v -496 -432 0
v -480 -432 0
v -496 -448 0
v -512 -448 0
v -512 -432 0
v -496 -432 0
v -512 -448 0
v -528 -448 0
v -528 -432 0
v -512 -432 0
v -528 -448 0
v -544 -448 0
v -544 -432 0
v -528 -432 0
v -544 -448 0
v -560 -448 0
v -560 -432 0
v -544 -432 0
v -560 -448 0
v -576 -448 0
v -576 -432 0
v -560 -432 0
v -576 -448 0
v -592 -448 0
v -592 -432 0
v -576 -432 0
v -592 -448 0
v -608 -448 0
v -608 -432 0
v -592 -432 0
v -608 -448 0
v -624 -448 0
v -624 -432 0
v -608 -432 0
v -624 -448 0
v -640 -448 0
v -640 -432 0
v -624 -432 0
v -640 -448 0
v -656 -448 0
v -656 -432 0
v -640 -432 0
v -480 -464 0
v -496 -464 0
v -496 -448 0
v -480 -448 0
v -496 -464 0
v -512 -464 0
v -512 -448 0
v -496 -448 0
v -512 -464 0
v -528 -464 0
v -528 -448 0
v -512 -448 0
v -528 -464 0
v -544 -464 0
v -544 -448 0
v -528 -448 0
v -544 -464 0
v -560 -464 0
v -560 -448 0
v -544 -448 0
v -560 -464 0
v -576 -464 0
v -576 -448 0
v -560 -448 0
v -576 -464 0
v -592 -464 0
v -592 -448 0
v -576 -448 0
v -592 -464 0
v -608 -464 0
v -608 -448 0
v -592 -448 0
v -464 -480 0
v -480 -480 0
v -480 -464 0
v -464 -464 0
v -480 -480 0
v -496 -480 0
v -496 -464 0
v -480 -464 0
v -496 -480 0
v -512 -480 0
v -512 -464 0
v -496 -464 0
v -512 -480 0
v -528 -480 0
v -528 -464 0
v -512 -464 0
v -528 -480 0
v -544 -480 0
v -544 -464 0
v -528 -464 0
v -544 -480 0
v -560 -480 0
v -560 -464 0
v -544 -464 0
v -560 -480 0
v -576 -480 0
v -576 -464 0
v -560 -464 0
v -576 -480 0
v -592 -480 0
v -592 -464 0
v -576 -464 0
v -592 -480 0
v -608 -480 0
v -608 -464 0
v -592 -464 0
v -464 -496 0
v -480 -496 0
v -480 -480 0
v -464 -480 0
v -480 -496 0
v -496 -496 0
v -496 -480 0
v -480 -480 0
v -496 -496 0
v -512 -496 0
v -512 -480 0
v -496 -480 0
v -512 -496 0
v -528 -496 0
v -528 -480 0
v -512 -480 0
v -528 -496 0
v -544 -496 0
v -544 -480 0
v -528 -480 0
v -544 -496 0
v -560 -496 0
v -560 -480 0
v -544 -480 0
v -464 -512 0
v -480 -512 0
v -480 -496 0
v -464 -496 0
v -480 -512 0
v -496 -512 0
v -496 -496 0
v -480 -496 0
v -496 -512 0
v -512 -512 0
v -512 -496 0
v -496 -496 0
v -512 -512 0
v -528 -512 0
v -528 -496 0
v -512 -496 0
v -528 -512 0
v -544 -512 0
v -544 -496 0
v -528 -496 0
v -544 -512 0
v -560 -512 0
v -560 -496 0
v -544 -496 0
v -464 -528 0
v -480 -528 0
v -480 -512 0
v -464 -512 0
v -480 -528 0
v -496 -528 0
v -496 -512 0
v -480 -512 0
v -496 -528 0
v -512 -528 0
v -512 -512 0
v -496 -512 0
v -512 -528 0
v -528 -528 0
v -528 -512 0
v -512 -512 0
v -528 -528 0
v -544 -528 0
v -544 -512 0
v -528 -512 0
v -544 -528 0
v -560 -528 0
v -560 -512 0
v -544 -512 0
v -128 -656 0
v -144 -656 0
v -144 -640 0
v -128 -640 0
v -144 -656 0
v -160 -656 0
v -160 -640 0
v -144 -640 0
v -160 -656 0
v -176 -656 0
v -176 -640 0
v -160 -640 0
v -128 -672 0
v -144 -672 0
v -144 -656 0
v -128 -656 0
v -144 -672 0
v -160 -672 0
v -160 -656 0
v -144 -656 0
v -160 -672 0
v -176 -672 0
v -176 -656 0
v -160 -656 0
v -128 -688 0
v -144 -688 0
v -144 -672 0
v -128 -672 0
v -144 -688 0
v -160 -688 0
v -160 -672 0
v -144 -672 0
v -160 -688 0
v -176 -688 0
v -176 -672 0
v -160 -672 0
v -128 -704 0
v -144 -704 0
v -144 -688 0
v -128 -688 0
v -144 -704 0
v -160 -704 0
v -160 -688 0
v -144 -688 0
v -160 -704 0
v -176 -704 0
v -176 -688 0
v -160 -688 0
v -128 -720 0
v -144 -720 0
v -144 -704 0
v -128 -704 0
v -144 -720 0
v -160 -720 0
v -160 -704 0
v -144 -704 0
v -160 -720 0
v -176 -720 0
v -176 -704 0
v -160 -704 0
v -144 -736 0
v -160 -736 0
v -160 -720 0
v -144 -720 0
v -160 -736 0
v -176 -736 0
v -176 -720 0
v -160 -720 0
v -128 -752 0
v -144 -752 0
v -144 -736 0
v -128 -736 0
v -144 -752 0
v -160 -752 0
v -160 -736 0
v -144 -736 0
v -160 -752 0
v -176 -752 0
v -176 -736 0
v -160 -736 0
v -128 -768 0
v -144 -768 0
v -144 -752 0
v -128 -752 0
v -144 -768 0
v -160 -768 0
v -160 -752 0
v -144 -752 0
v -160 -768 0
v -176 -768 0
v -176 -752 0
v -160 -752 0
v -128 -784 0
v -144 -784 0
v -144 -768 0
v -128 -768 0
v -144 -784 0
v -160 -784 0
v -160 -768 0
v -144 -768 0
v -160 -784 0
v -176 -784 0
v -176 -768 0
v -160 -768 0
v -128 -800 0
v -144 -800 0
v -144 -784 0
v -128 -784 0
v -144 -800 0
v -160 -800 0
v -160 -784 0
v -144 -784 0
v -160 -800 0
v -176 -800 0
v -176 -784 0
v -160 -784 0
v -128 -816 0
v -144 -816 0
v -144 -800 0
v -128 -800 0
v -144 -816 0
v -160 -816 0
v -160 -800 0
v -144 -800 0
v -160 -816 0
v -176 -816 0
v -176 -800 0
v -160 -800 0
v -304 -816 0
v -320 -816 0
v -320 -800 0
v -304 -800 0
v -320 -816 0
v -336 -816 0
v -336 -800 0
v -320 -800 0
v -336 -816 0
v -352 -816 0
v -352 -800 0
v -336 -800 0
v -352 -816 0
v -368 -816 0
v -368 -800 0
v -352 -800 0
v -304 -832 0
v -320 -832 0
v -320 -816 0
v -304 -816 0
v -320 -832 0
v -336 -832 0
v -336 -816 0
v -320 -816 0
v -336 -832 0
v -352 -832 0
v -352 -816 0
v -336 -816 0
v -352 -832 0
v -368 -832 0
v -368 -816 0
v -352 -816 0
v -304 -848 0
v -320 -848 0
v -320 -832 0
v -304 -832 0
v -320 -848 0
v -336 -848 0
v -336 -832 0
v -320 -832 0
v -336 -848 0
v -352 -848 0
v -352 -832 0
v -336 -832 0
v -352 -848 0
v -368 -848 0
v -368 -832 0
v -352 -832 0
v -304 -864 0
v -320 -864 0
v -320 -848 0
v -304 -848 0
v -320 -864 0
v -336 -864 0
v -336 -848 0
v -320 -848 0
v -336 -864 0
v -352 -864 0
v -352 -848 0
v -336 -848 0
v -352 -864 0
v -368 -864 0
v -368 -848 0
v -352 -848 0
v -304 -880 0
v -320 -880 0
v -320 -864 0
v -304 -864 0
v -320 -880 0
v -336 -880 0
v -336 -864 0
v -320 -864 0
v -336 -880 0
v -352 -880 0
v -352 -864 0
v -336 -864 0
v -352 -880 0
v -368 -880 0
v -368 -864 0
v -352 -864 0
v -304 -896 0
v -320 -896 0
v -320 -880 0
v -304 -880 0
v -320 -896 0
v -336 -896 0
v -336 -880 0
v -320 -880 0
v -336 -896 0
v -352 -896 0
v -352 -880 0
v -336 -880 0
v -352 -896 0
v -368 -896 0
v -368 -880 0
v -352 -880 0
v -304 -912 0
v -320 -912 0
v -320 -896 0
v -304 -896 0
v -320 -912 0
v -336 -912 0
v -336 -896 0
v -320 -896 0
v -336 -912 0
v -352 -912 0
v -352 -896 0
v -336 -896 0
v -352 -912 0
v -368 -912 0
v -368 -896 0
v -352 -896 0
v -304 -928 0
v -320 -928 0
v -320 -912 0
v -304 -912 0
v -320 -928 0
v -336 -928 0
v -336 -912 0
v -320 -912 0
v -336 -928 0
v -352 -928 0
v -352 -912 0
v -336 -912 0
v -352 -928 0
v -368 -928 0
v -368 -912 0
v -352 -912 0
v -304 -944 0
v -320 -944 0
v -320 -928 0
v -304 -928 0
v -320 -944 0
v -336 -944 0
v -336 -928 0
v -320 -928 0
v -336 -944 0
v -352 -944 0
v -352 -928 0
v -336 -928 0
v -352 -944 0
v -368 -944 0
v -368 -928 0
v -352 -928 0
v -304 -960 0
v -320 -960 0
v -320 -944 0
v -304 -944 0
v -320 -960 0
v -336 -960 0
v -336 -944 0
v -320 -944 0
v -336 -960 0
v -352 -960 0
v -352 -944 0
v -336 -944 0
v -352 -960 0
v -368 -960 0
v -368 -944 0
v -352 -944 0

# Texture cooridinates (Count = 40)
vt 0.873502 0.9440233
vt 0.8948069 0.9440233
vt 0.8948069 0.9533527
vt 0.873502 0.9533527
vt 0.9161118 0.9440233
vt 0.9161118 0.9533527
vt 0.9374168 0.9440233
vt 0.9374168 0.9533527
vt 0.8948069 0.9626822
vt 0.873502 0.9626822
vt 0.873502 0.916035
vt 0.8948069 0.916035
vt 0.8948069 0.9253644
vt 0.873502 0.9253644
vt 0.8948069 0.9067056
vt 0.9161118 0.9067056
vt 0.9161118 0.916035
vt 0.9161118 0.9346939
vt 0.9374168 0.9346939
vt 0.873502 0.9346939
vt 0.8948069 0.9346939
vt 0.9161118 0.9626822
vt 0.9374168 0.9626822
vt 0.9161118 0.9253644
vt 0.3621837 0.8973761
vt 0.3834887 0.8973761
vt 0.3834887 0.9067056
vt 0.3621837 0.9067056
vt 0.4047936 0.8973761
vt 0.4047936 0.9067056
vt 0.4260985 0.8973761
vt 0.4260985 0.9067056
vt 0.3621837 0.8880466
vt 0.3834887 0.8880466
vt 0.4047936 0.8880466
vt 0.4260985 0.8880466
vt 0.3621837 0.8787172
vt 0.3834887 0.8787172
vt 0.4047936 0.8787172
vt 0.4260985 0.8787172

# Normal
vn 0 0 -1

# Mesh description
g 002---Zone-1---Path-1_mesh_0004

# Faces
f 1/1/1 2/2/1 3/3/1 4/4/1
f 5/2/1 6/5/1 7/6/1 8/3/1
f 9/2/1 10/5/1 11/6/1 12/3/1
f 13/5/1 14/7/1 15/8/1 16/6/1
f 17/1/1 18/2/1 19/3/1 20/4/1
f 21/2/1 22/5/1 23/6/1 24/3/1
f 25/2/1 26/5/1 27/6/1 28/3/1
f 29/5/1 30/7/1 31/8/1 32/6/1
f 33/1/1 34/2/1 35/3/1 36/4/1
f 37/2/1 38/5/1 39/6/1 40/3/1
f 41/2/1 42/5/1 43/6/1 44/3/1
f 45/5/1 46/7/1 47/8/1 48/6/1
f 49/1/1 50/2/1 51/3/1 52/4/1
f 53/2/1 54/5/1 55/6/1 56/3/1
f 57/2/1 58/5/1 59/6/1 60/3/1
f 61/5/1 62/7/1 63/8/1 64/6/1
f 65/1/1 66/2/1 67/3/1 68/4/1
f 69/2/1 70/5/1 71/6/1 72/3/1
f 73/2/1 74/5/1 75/6/1 76/3/1
f 77/5/1 78/7/1 79/8/1 80/6/1
f 81/1/1 82/2/1 83/3/1 84/4/1
f 85/2/1 86/5/1 87/6/1 88/3/1
f 89/2/1 90/5/1 91/6/1 92/3/1
f 93/5/1 94/7/1 95/8/1 96/6/1
f 97/1/1 98/2/1 99/3/1 100/4/1
f 101/2/1 102/5/1 103/6/1 104/3/1
f 105/2/1 106/5/1 107/6/1 108/3/1
f 109/5/1 110/7/1 111/8/1 112/6/1
f 113/1/1 114/2/1 115/3/1 116/4/1
f 117/2/1 118/5/1 119/6/1 120/3/1
f 121/2/1 122/5/1 123/6/1 124/3/1
f 125/5/1 126/7/1 127/8/1 128/6/1
f 129/4/1 130/3/1 131/9/1 132/10/1
f 133/11/1 134/12/1 135/13/1 136/14/1
f 137/2/1 138/5/1 139/6/1 140/3/1
f 141/2/1 142/5/1 143/6/1 144/3/1
f 145/5/1 146/7/1 147/8/1 148/6/1
f 149/1/1 150/2/1 151/3/1 152/4/1
f 153/2/1 154/5/1 155/6/1 156/3/1
f 157/2/1 158/5/1 159/6/1 160/3/1
f 161/2/1 162/5/1 163/6/1 164/3/1
f 165/5/1 166/7/1 167/8/1 168/6/1
f 169/4/1 170/3/1 171/9/1 172/10/1
f 173/11/1 174/12/1 175/13/1 176/14/1
f 177/2/1 178/5/1 179/6/1 180/3/1
f 181/2/1 182/5/1 183/6/1 184/3/1
f 185/15/1 186/16/1 187/17/1 188/12/1
f 189/18/1 190/19/1 191/7/1 192/5/1
f 193/1/1 194/2/1 195/3/1 196/4/1
f 197/2/1 198/5/1 199/6/1 200/3/1
f 201/2/1 202/5/1 203/6/1 204/3/1
f 205/2/1 206/5/1 207/6/1 208/3/1
f 209/5/1 210/7/1 211/8/1 212/6/1
f 213/1/1 214/2/1 215/3/1 216/4/1
f 217/2/1 218/5/1 219/6/1 220/3/1
f 221/2/1 222/5/1 223/6/1 224/3/1
f 225/15/1 226/16/1 227/17/1 228/12/1
f 229/18/1 230/19/1 231/7/1 232/5/1
f 233/20/1 234/21/1 235/2/1 236/1/1
f 237/21/1 238/18/1 239/5/1 240/2/1
f 241/21/1 242/18/1 243/5/1 244/2/1
f 245/18/1 246/19/1 247/7/1 248/5/1
f 249/4/1 250/3/1 251/9/1 252/10/1
f 253/3/1 254/6/1 255/22/1 256/9/1
f 257/6/1 258/8/1 259/23/1 260/22/1
f 261/4/1 262/3/1 263/9/1 264/10/1
f 265/3/1 266/6/1 267/22/1 268/9/1
f 269/3/1 270/6/1 271/22/1 272/9/1
f 273/11/1 274/12/1 275/13/1 276/14/1
f 277/2/1 278/5/1 279/6/1 280/3/1
f 281/12/1 282/17/1 283/24/1 284/13/1
f 285/6/1 286/8/1 287/23/1 288/22/1
f 289/1/1 290/2/1 291/3/1 292/4/1
f 293/2/1 294/5/1 295/6/1 296/3/1
f 297/2/1 298/5/1 299/6/1 300/3/1
f 301/2/1 302/5/1 303/6/1 304/3/1
f 305/2/1 306/5/1 307/6/1 308/3/1
f 309/2/1 310/5/1 311/6/1 312/3/1
f 313/5/1 314/7/1 315/8/1 316/6/1
f 317/4/1 318/3/1 319/9/1 320/10/1
f 321/3/1 322/6/1 323/22/1 324/9/1
f 325/3/1 326/6/1 327/22/1 328/9/1
f 329/3/1 330/6/1 331/22/1 332/9/1
f 333/11/1 334/12/1 335/13/1 336/14/1
f 337/2/1 338/5/1 339/6/1 340/3/1
f 341/2/1 342/5/1 343/6/1 344/3/1
f 345/15/1 346/16/1 347/17/1 348/12/1
f 349/21/1 350/18/1 351/5/1 352/2/1
f 353/21/1 354/18/1 355/5/1 356/2/1
f 357/18/1 358/19/1 359/7/1 360/5/1
f 361/1/1 362/2/1 363/3/1 364/4/1
f 365/2/1 366/5/1 367/6/1 368/3/1
f 369/2/1 370/5/1 371/6/1 372/3/1
f 373/2/1 374/5/1 375/6/1 376/3/1
f 377/2/1 378/5/1 379/6/1 380/3/1
f 381/2/1 382/5/1 383/6/1 384/3/1
f 385/2/1 386/5/1 387/6/1 388/3/1
f 389/5/1 390/7/1 391/8/1 392/6/1
f 393/4/1 394/3/1 395/9/1 396/10/1
f 397/11/1 398/12/1 399/13/1 400/14/1
f 401/2/1 402/5/1 403/6/1 404/3/1
f 405/2/1 406/5/1 407/6/1 408/3/1
f 409/2/1 410/5/1 411/6/1 412/3/1
f 413/15/1 414/16/1 415/17/1 416/12/1
f 417/21/1 418/18/1 419/5/1 420/2/1
f 421/21/1 422/18/1 423/5/1 424/2/1
f 425/18/1 426/19/1 427/7/1 428/5/1
f 429/1/1 430/2/1 431/3/1 432/4/1
f 433/2/1 434/5/1 435/6/1 436/3/1
f 437/2/1 438/5/1 439/6/1 440/3/1
f 441/2/1 442/5/1 443/6/1 444/3/1
f 445/2/1 446/5/1 447/6/1 448/3/1
f 449/5/1 450/7/1 451/8/1 452/6/1
f 453/1/1 454/2/1 455/3/1 456/4/1
f 457/2/1 458/5/1 459/6/1 460/3/1
f 461/2/1 462/5/1 463/6/1 464/3/1
f 465/2/1 466/5/1 467/6/1 468/3/1
f 469/2/1 470/5/1 471/6/1 472/3/1
f 473/5/1 474/7/1 475/8/1 476/6/1
f 477/20/1 478/21/1 479/2/1 480/1/1
f 481/21/1 482/18/1 483/5/1 484/2/1
f 485/21/1 486/18/1 487/5/1 488/2/1
f 489/21/1 490/18/1 491/5/1 492/2/1
f 493/21/1 494/18/1 495/5/1 496/2/1
f 497/18/1 498/19/1 499/7/1 500/5/1
f 501/25/1 502/26/1 503/27/1 504/28/1
f 505/26/1 506/29/1 507/30/1 508/27/1
f 509/29/1 510/31/1 511/32/1 512/30/1
f 513/33/1 514/34/1 515/26/1 516/25/1
f 517/34/1 518/35/1 519/29/1 520/26/1
f 521/35/1 522/36/1 523/31/1 524/29/1
f 525/33/1 526/34/1 527/26/1 528/25/1
f 529/34/1 530/35/1 531/29/1 532/26/1
f 533/35/1 534/36/1 535/31/1 536/29/1
f 537/33/1 538/34/1 539/26/1 540/25/1
f 541/34/1 542/35/1 543/29/1 544/26/1
f 545/35/1 546/36/1 547/31/1 548/29/1
f 549/37/1 550/38/1 551/34/1 552/33/1
f 553/38/1 554/39/1 555/35/1 556/34/1
f 557/39/1 558/40/1 559/36/1 560/35/1
f 561/4/1 562/3/1 563/9/1 564/10/1
f 565/6/1 566/8/1 567/23/1 568/22/1
f 569/4/1 570/3/1 571/9/1 572/10/1
f 573/11/1 574/12/1 575/13/1 576/14/1
f 577/5/1 578/7/1 579/8/1 580/6/1
f 581/1/1 582/2/1 583/3/1 584/4/1
f 585/2/1 586/5/1 587/6/1 588/3/1
f 589/5/1 590/7/1 591/8/1 592/6/1
f 593/20/1 594/21/1 595/2/1 596/1/1
f 597/21/1 598/18/1 599/5/1 600/2/1
f 601/18/1 602/19/1 603/7/1 604/5/1
f 605/25/1 606/26/1 607/27/1 608/28/1
f 609/26/1 610/29/1 611/30/1 612/27/1
f 613/29/1 614/31/1 615/32/1 616/30/1
f 617/37/1 618/38/1 619/34/1 620/33/1
f 621/38/1 622/39/1 623/35/1 624/34/1
f 625/39/1 626/40/1 627/36/1 628/35/1
f 629/4/1 630/3/1 631/9/1 632/10/1
f 633/3/1 634/6/1 635/22/1 636/9/1
f 637/3/1 638/6/1 639/22/1 640/9/1
f 641/6/1 642/8/1 643/23/1 644/22/1
f 645/1/1 646/2/1 647/3/1 648/4/1
f 649/2/1 650/5/1 651/6/1 652/3/1
f 653/2/1 654/5/1 655/6/1 656/3/1
f 657/5/1 658/7/1 659/8/1 660/6/1
f 661/1/1 662/2/1 663/3/1 664/4/1
f 665/2/1 666/5/1 667/6/1 668/3/1
f 669/2/1 670/5/1 671/6/1 672/3/1
f 673/5/1 674/7/1 675/8/1 676/6/1
f 677/1/1 678/2/1 679/3/1 680/4/1
f 681/2/1 682/5/1 683/6/1 684/3/1
f 685/2/1 686/5/1 687/6/1 688/3/1
f 689/5/1 690/7/1 691/8/1 692/6/1
f 693/1/1 694/2/1 695/3/1 696/4/1
f 697/2/1 698/5/1 699/6/1 700/3/1
f 701/2/1 702/5/1 703/6/1 704/3/1
f 705/5/1 706/7/1 707/8/1 708/6/1
f 709/1/1 710/2/1 711/3/1 712/4/1
f 713/2/1 714/5/1 715/6/1 716/3/1
f 717/2/1 718/5/1 719/6/1 720/3/1
f 721/5/1 722/7/1 723/8/1 724/6/1
f 725/1/1 726/2/1 727/3/1 728/4/1
f 729/2/1 730/5/1 731/6/1 732/3/1
f 733/2/1 734/5/1 735/6/1 736/3/1
f 737/5/1 738/7/1 739/8/1 740/6/1
f 741/1/1 742/2/1 743/3/1 744/4/1
f 745/2/1 746/5/1 747/6/1 748/3/1
f 749/2/1 750/5/1 751/6/1 752/3/1
f 753/5/1 754/7/1 755/8/1 756/6/1
f 757/1/1 758/2/1 759/3/1 760/4/1
f 761/2/1 762/5/1 763/6/1 764/3/1
f 765/2/1 766/5/1 767/6/1 768/3/1
f 769/5/1 770/7/1 771/8/1 772/6/1
f 773/1/1 774/2/1 775/3/1 776/4/1
f 777/2/1 778/5/1 779/6/1 780/3/1
f 781/2/1 782/5/1 783/6/1 784/3/1
f 785/5/1 786/7/1 787/8/1 788/6/1

