# Tiled2Unity generated file. Do not modify by hand.
# Wavefront file for '002---Zone-1---Path-1_mesh_0013.obj'

# Vertices (Count = 504)
v -304 -144 0
v -320 -144 0
v -320 -128 0
v -304 -128 0
v -352 -144 0
v -368 -144 0
v -368 -128 0
v -352 -128 0
v -368 -144 0
v -384 -144 0
v -384 -128 0
v -368 -128 0
v -384 -144 0
v -400 -144 0
v -400 -128 0
v -384 -128 0
v -432 -144 0
v -448 -144 0
v -448 -128 0
v -432 -128 0
v -448 -144 0
v -464 -144 0
v -464 -128 0
v -448 -128 0
v -512 -144 0
v -528 -144 0
v -528 -128 0
v -512 -128 0
v -528 -144 0
v -544 -144 0
v -544 -128 0
v -528 -128 0
v -544 -144 0
v -560 -144 0
v -560 -128 0
v -544 -128 0
v -736 -144 0
v -752 -144 0
v -752 -128 0
v -736 -128 0
v -272 -160 0
v -288 -160 0
v -288 -144 0
v -272 -144 0
v -288 -160 0
v -304 -160 0
v -304 -144 0
v -288 -144 0
v -304 -160 0
v -320 -160 0
v -320 -144 0
v -304 -144 0
v -320 -160 0
v -336 -160 0
v -336 -144 0
v -320 -144 0
v -336 -160 0
v -352 -160 0
v -352 -144 0
v -336 -144 0
v -352 -160 0
v -368 -160 0
v -368 -144 0
v -352 -144 0
v -368 -160 0
v -384 -160 0
v -384 -144 0
v -368 -144 0
v -384 -160 0
v -400 -160 0
v -400 -144 0
v -384 -144 0
v -400 -160 0
v -416 -160 0
v -416 -144 0
v -400 -144 0
v -416 -160 0
v -432 -160 0
v -432 -144 0
v -416 -144 0
v -432 -160 0
v -448 -160 0
v -448 -144 0
v -432 -144 0
v -448 -160 0
v -464 -160 0
v -464 -144 0
v -448 -144 0
v -464 -160 0
v -480 -160 0
v -480 -144 0
v -464 -144 0
v -512 -160 0
v -528 -160 0
v -528 -144 0
v -512 -144 0
v -528 -160 0
v -544 -160 0
v -544 -144 0
v -528 -144 0
v -544 -160 0
v -560 -160 0
v -560 -144 0
v -544 -144 0
v -272 -176 0
v -288 -176 0
v -288 -160 0
v -272 -160 0
v -288 -176 0
v -304 -176 0
v -304 -160 0
v -288 -160 0
v -336 -176 0
v -352 -176 0
v -352 -160 0
v -336 -160 0
v -368 -176 0
v -384 -176 0
v -384 -160 0
v -368 -160 0
v -400 -176 0
v -416 -176 0
v -416 -160 0
v -400 -160 0
v -416 -176 0
v -432 -176 0
v -432 -160 0
v -416 -160 0
v -464 -176 0
v -480 -176 0
v -480 -160 0
v -464 -160 0
v -512 -176 0
v -528 -176 0
v -528 -160 0
v -512 -160 0
v -528 -176 0
v -544 -176 0
v -544 -160 0
v -528 -160 0
v -544 -176 0
v -560 -176 0
v -560 -160 0
v -544 -160 0
v -784 -176 0
v -800 -176 0
v -800 -160 0
v -784 -160 0
v -800 -176 0
v -816 -176 0
v -816 -160 0
v -800 -160 0
v -816 -176 0
v -832 -176 0
v -832 -160 0
v -816 -160 0
v -512 -192 0
v -528 -192 0
v -528 -176 0
v -512 -176 0
v -528 -192 0
v -544 -192 0
v -544 -176 0
v -528 -176 0
v -544 -192 0
v -560 -192 0
v -560 -176 0
v -544 -176 0
v -784 -192 0
v -800 -192 0
v -800 -176 0
v -784 -176 0
v -800 -192 0
v -816 -192 0
v -816 -176 0
v -800 -176 0
v -816 -192 0
v -832 -192 0
v -832 -176 0
v -816 -176 0
v -784 -208 0
v -800 -208 0
v -800 -192 0
v -784 -192 0
v -800 -208 0
v -816 -208 0
v -816 -192 0
v -800 -192 0
v -816 -208 0
v -832 -208 0
v -832 -192 0
v -816 -192 0
v -784 -224 0
v -800 -224 0
v -800 -208 0
v -784 -208 0
v -800 -224 0
v -816 -224 0
v -816 -208 0
v -800 -208 0
v -816 -224 0
v -832 -224 0
v -832 -208 0
v -816 -208 0
v -784 -240 0
v -800 -240 0
v -800 -224 0
v -784 -224 0
v -800 -240 0
v -816 -240 0
v -816 -224 0
v -800 -224 0
v -816 -240 0
v -832 -240 0
v -832 -224 0
v -816 -224 0
v -784 -256 0
v -800 -256 0
v -800 -240 0
v -784 -240 0
v -800 -256 0
v -816 -256 0
v -816 -240 0
v -800 -240 0
v -816 -256 0
v -832 -256 0
v -832 -240 0
v -816 -240 0
v -176 -272 0
v -192 -272 0
v -192 -256 0
v -176 -256 0
v -784 -272 0
v -800 -272 0
v -800 -256 0
v -784 -256 0
v -800 -272 0
v -816 -272 0
v -816 -256 0
v -800 -256 0
v -816 -272 0
v -832 -272 0
v -832 -256 0
v -816 -256 0
v -336 -352 0
v -352 -352 0
v -352 -336 0
v -336 -336 0
v -352 -352 0
v -368 -352 0
v -368 -336 0
v -352 -336 0
v -368 -352 0
v -384 -352 0
v -384 -336 0
v -368 -336 0
v -336 -368 0
v -352 -368 0
v -352 -352 0
v -336 -352 0
v -352 -368 0
v -368 -368 0
v -368 -352 0
v -352 -352 0
v -368 -368 0
v -384 -368 0
v -384 -352 0
v -368 -352 0
v -720 -368 0
v -736 -368 0
v -736 -352 0
v -720 -352 0
v -736 -368 0
v -752 -368 0
v -752 -352 0
v -736 -352 0
v -752 -368 0
v -768 -368 0
v -768 -352 0
v -752 -352 0
v -336 -384 0
v -352 -384 0
v -352 -368 0
v -336 -368 0
v -352 -384 0
v -368 -384 0
v -368 -368 0
v -352 -368 0
v -368 -384 0
v -384 -384 0
v -384 -368 0
v -368 -368 0
v -720 -384 0
v -736 -384 0
v -736 -368 0
v -720 -368 0
v -736 -384 0
v -752 -384 0
v -752 -368 0
v -736 -368 0
v -752 -384 0
v -768 -384 0
v -768 -368 0
v -752 -368 0
v -336 -400 0
v -352 -400 0
v -352 -384 0
v -336 -384 0
v -352 -400 0
v -368 -400 0
v -368 -384 0
v -352 -384 0
v -368 -400 0
v -384 -400 0
v -384 -384 0
v -368 -384 0
v -704 -400 0
v -720 -400 0
v -720 -384 0
v -704 -384 0
v -720 -400 0
v -736 -400 0
v -736 -384 0
v -720 -384 0
v -736 -400 0
v -752 -400 0
v -752 -384 0
v -736 -384 0
v -752 -400 0
v -768 -400 0
v -768 -384 0
v -752 -384 0
v -816 -400 0
v -832 -400 0
v -832 -384 0
v -816 -384 0
v -720 -416 0
v -736 -416 0
v -736 -400 0
v -720 -400 0
v -736 -416 0
v -752 -416 0
v -752 -400 0
v -736 -400 0
v -752 -416 0
v -768 -416 0
v -768 -400 0
v -752 -400 0
v -208 -592 0
v -224 -592 0
v -224 -576 0
v -208 -576 0
v -224 -592 0
v -240 -592 0
v -240 -576 0
v -224 -576 0
v -240 -592 0
v -256 -592 0
v -256 -576 0
v -240 -576 0
v -272 -592 0
v -288 -592 0
v -288 -576 0
v -272 -576 0
v -288 -592 0
v -304 -592 0
v -304 -576 0
v -288 -576 0
v -672 -592 0
v -688 -592 0
v -688 -576 0
v -672 -576 0
v -208 -608 0
v -224 -608 0
v -224 -592 0
v -208 -592 0
v -224 -608 0
v -240 -608 0
v -240 -592 0
v -224 -592 0
v -240 -608 0
v -256 -608 0
v -256 -592 0
v -240 -592 0
v -192 -624 0
v -208 -624 0
v -208 -608 0
v -192 -608 0
v -208 -624 0
v -224 -624 0
v -224 -608 0
v -208 -608 0
v -224 -624 0
v -240 -624 0
v -240 -608 0
v -224 -608 0
v -240 -624 0
v -256 -624 0
v -256 -608 0
v -240 -608 0
v -576 -624 0
v -592 -624 0
v -592 -608 0
v -576 -608 0
v -592 -624 0
v -608 -624 0
v -608 -608 0
v -592 -608 0
v -608 -624 0
v -624 -624 0
v -624 -608 0
v -608 -608 0
v -208 -640 0
v -224 -640 0
v -224 -624 0
v -208 -624 0
v -224 -640 0
v -240 -640 0
v -240 -624 0
v -224 -624 0
v -240 -640 0
v -256 -640 0
v -256 -624 0
v -240 -624 0
v -288 -640 0
v -304 -640 0
v -304 -624 0
v -288 -624 0
v -576 -640 0
v -592 -640 0
v -592 -624 0
v -576 -624 0
v -592 -640 0
v -608 -640 0
v -608 -624 0
v -592 -624 0
v -608 -640 0
v -624 -640 0
v -624 -624 0
v -608 -624 0
v -576 -656 0
v -592 -656 0
v -592 -640 0
v -576 -640 0
v -592 -656 0
v -608 -656 0
v -608 -640 0
v -592 -640 0
v -608 -656 0
v -624 -656 0
v -624 -640 0
v -608 -640 0
v -624 -656 0
v -640 -656 0
v -640 -640 0
v -624 -640 0
v -576 -672 0
v -592 -672 0
v -592 -656 0
v -576 -656 0
v -592 -672 0
v -608 -672 0
v -608 -656 0
v -592 -656 0
v -608 -672 0
v -624 -672 0
v -624 -656 0
v -608 -656 0
v -144 -688 0
v -160 -688 0
v -160 -672 0
v -144 -672 0
v -144 -704 0
v -160 -704 0
v -160 -688 0
v -144 -688 0
v -224 -752 0
v -240 -752 0
v -240 -736 0
v -224 -736 0
v -368 -752 0
v -384 -752 0
v -384 -736 0
v -368 -736 0
v -128 -784 0
v -144 -784 0
v -144 -768 0
v -128 -768 0
v -144 -784 0
v -160 -784 0
v -160 -768 0
v -144 -768 0
v -128 -800 0
v -144 -800 0
v -144 -784 0
v -128 -784 0
v -144 -800 0
v -160 -800 0
v -160 -784 0
v -144 -784 0
v -160 -800 0
v -176 -800 0
v -176 -784 0
v -160 -784 0

# Texture cooridinates (Count = 92)
vt 0.4367246 0.7590691
vt 0.4466501 0.7590691
vt 0.4466501 0.7700205
vt 0.4367246 0.7700205
vt 0.4764268 0.7590691
vt 0.4863524 0.7590691
vt 0.4863524 0.7700205
vt 0.4764268 0.7700205
vt 0.4168735 0.7590691
vt 0.426799 0.7590691
vt 0.426799 0.7700205
vt 0.4168735 0.7700205
vt 0.1985112 0.6933607
vt 0.2084367 0.6933607
vt 0.2084367 0.7043121
vt 0.1985112 0.7043121
vt 0.2183623 0.6933607
vt 0.2183623 0.7043121
vt 0.2282878 0.6933607
vt 0.2282878 0.7043121
vt 0.4367246 0.7809719
vt 0.4466501 0.7809719
vt 0.4466501 0.7919233
vt 0.4367246 0.7919233
vt 0.4367246 0.7481177
vt 0.4466501 0.7481177
vt 0.4764268 0.7481177
vt 0.4863524 0.7481177
vt 0.4168735 0.7481177
vt 0.426799 0.7481177
vt 0.1985112 0.6824093
vt 0.2084367 0.6824093
vt 0.2183623 0.6824093
vt 0.2282878 0.6824093
vt 0.4565757 0.7809719
vt 0.4565757 0.7919233
vt 0.1985112 0.6714579
vt 0.2084367 0.6714579
vt 0.2183623 0.6714579
vt 0.2282878 0.6714579
vt 0.4367246 0.5290897
vt 0.4466501 0.5290897
vt 0.4466501 0.5400411
vt 0.4367246 0.5400411
vt 0.4565757 0.5290897
vt 0.4565757 0.5400411
vt 0.4665012 0.5290897
vt 0.4665012 0.5400411
vt 0.1985112 0.6605065
vt 0.2084367 0.6605065
vt 0.2183623 0.6605065
vt 0.2282878 0.6605065
vt 0.4367246 0.5181383
vt 0.4466501 0.5181383
vt 0.4565757 0.5181383
vt 0.4665012 0.5181383
vt 0.4367246 0.5071869
vt 0.4466501 0.5071869
vt 0.4565757 0.5071869
vt 0.4665012 0.5071869
vt 0.2382134 0.6933607
vt 0.2382134 0.7043121
vt 0.248139 0.6933607
vt 0.248139 0.7043121
vt 0.2580645 0.6933607
vt 0.2580645 0.7043121
vt 0.2382134 0.6824093
vt 0.248139 0.6824093
vt 0.2580645 0.6824093
vt 0.2382134 0.6714579
vt 0.248139 0.6714579
vt 0.2580645 0.6714579
vt 0.2382134 0.6605065
vt 0.248139 0.6605065
vt 0.2580645 0.6605065
vt 0.4168735 0.7809719
vt 0.426799 0.7809719
vt 0.426799 0.7919233
vt 0.4168735 0.7919233
vt 0.4466501 0.8795345
vt 0.4565757 0.8795345
vt 0.4565757 0.890486
vt 0.4466501 0.890486
vt 0.4665012 0.8028747
vt 0.4764268 0.8028747
vt 0.4764268 0.8138261
vt 0.4665012 0.8138261
vt 0.4863524 0.8028747
vt 0.4863524 0.8138261
vt 0.4665012 0.7919233
vt 0.4764268 0.7919233
vt 0.4863524 0.7919233

# Normal
vn 0 0 -1

# Mesh description
g 002---Zone-1---Path-1_mesh_0013

# Faces
f 1/1/1 2/2/1 3/3/1 4/4/1
f 5/5/1 6/6/1 7/7/1 8/8/1
f 9/9/1 10/10/1 11/11/1 12/12/1
f 13/1/1 14/2/1 15/3/1 16/4/1
f 17/9/1 18/10/1 19/11/1 20/12/1
f 21/1/1 22/2/1 23/3/1 24/4/1
f 25/13/1 26/14/1 27/15/1 28/16/1
f 29/14/1 30/17/1 31/18/1 32/15/1
f 33/17/1 34/19/1 35/20/1 36/18/1
f 37/21/1 38/22/1 39/23/1 40/24/1
f 41/5/1 42/6/1 43/7/1 44/8/1
f 45/9/1 46/10/1 47/11/1 48/12/1
f 49/25/1 50/26/1 51/2/1 52/1/1
f 53/21/1 54/22/1 55/23/1 56/24/1
f 57/1/1 58/2/1 59/3/1 60/4/1
f 61/27/1 62/28/1 63/6/1 64/5/1
f 65/29/1 66/30/1 67/10/1 68/9/1
f 69/25/1 70/26/1 71/2/1 72/1/1
f 73/5/1 74/6/1 75/7/1 76/8/1
f 77/9/1 78/10/1 79/11/1 80/12/1
f 81/29/1 82/30/1 83/10/1 84/9/1
f 85/25/1 86/26/1 87/2/1 88/1/1
f 89/9/1 90/10/1 91/11/1 92/12/1
f 93/31/1 94/32/1 95/14/1 96/13/1
f 97/32/1 98/33/1 99/17/1 100/14/1
f 101/33/1 102/34/1 103/19/1 104/17/1
f 105/27/1 106/28/1 107/6/1 108/5/1
f 109/29/1 110/30/1 111/10/1 112/9/1
f 113/25/1 114/26/1 115/2/1 116/1/1
f 117/22/1 118/35/1 119/36/1 120/23/1
f 121/27/1 122/28/1 123/6/1 124/5/1
f 125/29/1 126/30/1 127/10/1 128/9/1
f 129/29/1 130/30/1 131/10/1 132/9/1
f 133/37/1 134/38/1 135/32/1 136/31/1
f 137/38/1 138/39/1 139/33/1 140/32/1
f 141/39/1 142/40/1 143/34/1 144/33/1
f 145/41/1 146/42/1 147/43/1 148/44/1
f 149/42/1 150/45/1 151/46/1 152/43/1
f 153/45/1 154/47/1 155/48/1 156/46/1
f 157/49/1 158/50/1 159/38/1 160/37/1
f 161/50/1 162/51/1 163/39/1 164/38/1
f 165/51/1 166/52/1 167/40/1 168/39/1
f 169/53/1 170/54/1 171/42/1 172/41/1
f 173/54/1 174/55/1 175/45/1 176/42/1
f 177/55/1 178/56/1 179/47/1 180/45/1
f 181/53/1 182/54/1 183/42/1 184/41/1
f 185/54/1 186/55/1 187/45/1 188/42/1
f 189/55/1 190/56/1 191/47/1 192/45/1
f 193/53/1 194/54/1 195/42/1 196/41/1
f 197/54/1 198/55/1 199/45/1 200/42/1
f 201/55/1 202/56/1 203/47/1 204/45/1
f 205/53/1 206/54/1 207/42/1 208/41/1
f 209/54/1 210/55/1 211/45/1 212/42/1
f 213/55/1 214/56/1 215/47/1 216/45/1
f 217/53/1 218/54/1 219/42/1 220/41/1
f 221/54/1 222/55/1 223/45/1 224/42/1
f 225/55/1 226/56/1 227/47/1 228/45/1
f 229/21/1 230/22/1 231/23/1 232/24/1
f 233/57/1 234/58/1 235/54/1 236/53/1
f 237/58/1 238/59/1 239/55/1 240/54/1
f 241/59/1 242/60/1 243/56/1 244/55/1
f 245/19/1 246/61/1 247/62/1 248/20/1
f 249/61/1 250/63/1 251/64/1 252/62/1
f 253/63/1 254/65/1 255/66/1 256/64/1
f 257/34/1 258/67/1 259/61/1 260/19/1
f 261/67/1 262/68/1 263/63/1 264/61/1
f 265/68/1 266/69/1 267/65/1 268/63/1
f 269/19/1 270/61/1 271/62/1 272/20/1
f 273/61/1 274/63/1 275/64/1 276/62/1
f 277/63/1 278/65/1 279/66/1 280/64/1
f 281/40/1 282/70/1 283/67/1 284/34/1
f 285/70/1 286/71/1 287/68/1 288/67/1
f 289/71/1 290/72/1 291/69/1 292/68/1
f 293/34/1 294/67/1 295/61/1 296/19/1
f 297/67/1 298/68/1 299/63/1 300/61/1
f 301/68/1 302/69/1 303/65/1 304/63/1
f 305/52/1 306/73/1 307/70/1 308/40/1
f 309/73/1 310/74/1 311/71/1 312/70/1
f 313/74/1 314/75/1 315/72/1 316/71/1
f 317/21/1 318/22/1 319/23/1 320/24/1
f 321/40/1 322/70/1 323/67/1 324/34/1
f 325/70/1 326/71/1 327/68/1 328/67/1
f 329/71/1 330/72/1 331/69/1 332/68/1
f 333/22/1 334/35/1 335/36/1 336/23/1
f 337/52/1 338/73/1 339/70/1 340/40/1
f 341/73/1 342/74/1 343/71/1 344/70/1
f 345/74/1 346/75/1 347/72/1 348/71/1
f 349/19/1 350/61/1 351/62/1 352/20/1
f 353/61/1 354/63/1 355/64/1 356/62/1
f 357/63/1 358/65/1 359/66/1 360/64/1
f 361/76/1 362/77/1 363/78/1 364/79/1
f 365/77/1 366/21/1 367/24/1 368/78/1
f 369/22/1 370/35/1 371/36/1 372/23/1
f 373/34/1 374/67/1 375/61/1 376/19/1
f 377/67/1 378/68/1 379/63/1 380/61/1
f 381/68/1 382/69/1 383/65/1 384/63/1
f 385/21/1 386/22/1 387/23/1 388/24/1
f 389/40/1 390/70/1 391/67/1 392/34/1
f 393/70/1 394/71/1 395/68/1 396/67/1
f 397/71/1 398/72/1 399/69/1 400/68/1
f 401/13/1 402/14/1 403/15/1 404/16/1
f 405/14/1 406/17/1 407/18/1 408/15/1
f 409/17/1 410/19/1 411/20/1 412/18/1
f 413/52/1 414/73/1 415/70/1 416/40/1
f 417/73/1 418/74/1 419/71/1 420/70/1
f 421/74/1 422/75/1 423/72/1 424/71/1
f 425/22/1 426/35/1 427/36/1 428/23/1
f 429/31/1 430/32/1 431/14/1 432/13/1
f 433/32/1 434/33/1 435/17/1 436/14/1
f 437/33/1 438/34/1 439/19/1 440/17/1
f 441/37/1 442/38/1 443/32/1 444/31/1
f 445/38/1 446/39/1 447/33/1 448/32/1
f 449/39/1 450/40/1 451/34/1 452/33/1
f 453/21/1 454/22/1 455/23/1 456/24/1
f 457/49/1 458/50/1 459/38/1 460/37/1
f 461/50/1 462/51/1 463/39/1 464/38/1
f 465/51/1 466/52/1 467/40/1 468/39/1
f 469/80/1 470/81/1 471/82/1 472/83/1
f 473/80/1 474/81/1 475/82/1 476/83/1
f 477/22/1 478/35/1 479/36/1 480/23/1
f 481/22/1 482/35/1 483/36/1 484/23/1
f 485/84/1 486/85/1 487/86/1 488/87/1
f 489/85/1 490/88/1 491/89/1 492/86/1
f 493/90/1 494/91/1 495/85/1 496/84/1
f 497/91/1 498/92/1 499/88/1 500/85/1
f 501/22/1 502/35/1 503/36/1 504/23/1

